<?xml version="1.0" encoding="UTF-8"?>
<svg width="24px" height="26px" viewBox="0 0 24 26" version="1.1" xmlns="http://www.w3.org/2000/svg" xmlns:xlink="http://www.w3.org/1999/xlink">
    <!-- Generator: Sketch 46 (44423) - http://www.bohemiancoding.com/sketch -->
    <title>Group</title>
    <desc>Created with Sketch.</desc>
    <defs></defs>
    <g id="Symbols" stroke="none" stroke-width="1" fill="none" fill-rule="evenodd">
        <g id="Mobile/Common-Components/Header" transform="translate(-32.000000, -19.000000)" fill-rule="nonzero" fill="#000000">
            <g id="Header">
                <g id="Group" transform="translate(32.000000, 19.000000)">
                    <path d="M11.9738372,0.101496325 C11.8658093,0.105117215 11.7667535,0.126006963 11.6860465,0.153720696 L0.523255953,4.61020039 C0.213614093,4.7352325 -0.00346869767,5.06022128 1.39534883e-07,5.39356596 L1.39534883e-07,20.4341849 C2.93023256e-06,20.7646607 0.216326651,21.0849145 0.523255953,21.2088325 L11.6860465,25.6653122 C11.8849395,25.7456124 12.1150605,25.7456124 12.3139535,25.6653122 L23.4767442,21.2088325 C23.7836735,21.0849145 23.9999972,20.7646607 24,20.4341849 L24,5.39356596 C24.0034605,5.06022128 23.786386,4.7352325 23.4767442,4.61020039 L12.3139535,0.153720696 C12.1988623,0.112024758 12.0818651,0.0980147002 11.9738372,0.101496325 L11.9738372,0.101496325 Z M11.999986,1.83361857 L20.8953349,5.38487582 L17.5813953,6.71658337 L8.67732558,3.15663598 L12,1.83361857 L11.999986,1.83361857 Z M6.4185907,4.06185841 L15.3139395,7.61311567 L11.999986,8.94482321 L3.10463749,5.38487582 L6.4185907,4.06185841 Z M1.67440465,6.62954275 L11.1627767,10.4157874 L11.1627767,23.6546878 L1.67440465,19.8597168 L1.67440465,6.62954275 L1.67440465,6.62954275 Z M22.3255674,6.62954275 L22.3255674,19.8597168 L18.4185907,21.41773 L18.4185907,18.2059451 C18.4233012,17.9798212 18.3359769,17.7614481 18.1765625,17.6007018 C18.0171481,17.4399555 17.799259,17.350565 17.5726605,17.352947 C17.3490892,17.3552491 17.1357269,17.4467001 16.9801074,17.6069261 C16.8244879,17.7671521 16.739539,17.9828426 16.744186,18.2059451 L16.744186,22.0879567 L12.8372093,23.6546878 L12.8372093,10.4157874 L16.744186,8.85778259 L16.744186,12.0782771 C16.739916,12.3796209 16.8985468,12.6599157 17.1593354,12.8118313 C17.4201241,12.9637469 17.7426666,12.9637469 18.0034553,12.8118313 C18.2642439,12.6599157 18.4228747,12.3796209 18.4186047,12.0782771 L18.4186047,8.1875559 L22.3255814,6.62954275 L22.3255674,6.62954275 Z" id="Shape"></path>
                </g>
            </g>
        </g>
    </g>
</svg>