<?xml version="1.0" encoding="UTF-8"?>
<svg width="122px" height="40px" viewBox="0 0 122 40" version="1.1" xmlns="http://www.w3.org/2000/svg" xmlns:xlink="http://www.w3.org/1999/xlink">
    <!-- Generator: Sketch 47.1 (45422) - http://www.bohemiancoding.com/sketch -->
    <title>coca-cola-seeklogo.com</title>
    <desc>Created with Sketch.</desc>
    <defs></defs>
    <g id="HiFi" stroke="none" stroke-width="1" fill="none" fill-rule="evenodd">
        <g id="Homepage---Desktop" transform="translate(-418.000000, -679.000000)" fill="#AF3234">
            <g id="Brands-we-ship" transform="translate(0.000000, 446.000000)">
                <g id="Logos-row-1" transform="translate(128.000000, 209.000000)">
                    <g id="Stacked-Group">
                        <g id="coca-cola-seeklogo.com" transform="translate(290.000000, 24.000000)">
                            <path d="M120.989537,34.1337931 C121.141864,34.1986207 121.272825,34.2965517 121.378282,34.437931 C121.638136,34.9268966 121.663638,35.0786207 121.663638,35.2413793 C121.663638,35.4482759 121.614701,35.6544828 121.518203,35.8503448 C121.420328,36.0455172 121.261107,36.1868966 121.037785,36.2627586 C121.225266,36.3496552 121.356226,36.4586207 121.433424,36.6103448 C121.512,36.7517241 121.551288,36.9689655 121.551288,37.2731034 C121.551288,37.762069 121.506486,38.24 121.520271,38.3048276 L120.696599,38.3158621 L120.706249,37.717931 L120.701424,37.3165517 C120.697977,37.0448276 120.649729,36.8606897 120.559435,36.7627586 C120.469141,36.6758621 120.300271,36.6324138 120.051446,36.6324138 L119.180215,36.6324138 L119.180215,38.3158621 L118.355164,38.3158621 L118.355164,34.0248276 L120.337492,34.0248276 C120.619401,34.0248276 120.837898,34.0682759 120.989537,34.1337931 Z M119.180215,34.7641379 L119.180215,35.9151724 L120.136226,35.9151724 C120.327153,35.9151724 120.469141,35.8937931 120.563571,35.8503448 C120.731751,35.7744828 120.815842,35.6117241 120.815842,35.3724138 C120.815842,35.1117241 120.735198,34.9372414 120.571842,34.84 C120.480859,34.7965517 120.344384,34.7641379 120.161729,34.7641379 L119.180215,34.7641379 Z M116.337684,34.0248276 L117.552169,34.0248276 L117.552169,38.3158621 L116.765718,38.3158621 L116.765718,35.4158621 L116.771232,34.7096552 L116.006147,38.3158621 L115.187299,38.3158621 L114.427729,34.7096552 L114.433243,35.4158621 L114.433243,38.3158621 L113.64748,38.3158621 L113.64748,34.0248276 L114.874373,34.0248276 L115.609819,37.3924138 L116.337684,34.0248276 L116.337684,34.0248276 Z" id="Fill-2"></path>
                            <path d="M46.0973898,34.5137931 C41.6812655,31.6682759 35.688791,31.1682759 26.0239096,33.8517241 C15.7200791,36.2737931 12.2854689,37.8268966 7.77353672,34.7096552 C6.0400339,33.177931 5.41900565,30.7124138 5.88288136,27.16 C6.95951412,21.3703448 9.86752542,15.797931 15.0335706,9.61724138 C17.9174576,6.40206897 20.5918079,3.64275862 24.1236045,2.53517241 C26.8310395,1.84 26.5773898,3.96896552 26.2499887,4.27310345 C25.9046667,4.27310345 25.3243051,4.32758621 24.8755932,4.62068966 C24.5109718,4.90275862 23.5115367,5.81586207 23.457774,7.04275862 C23.3805763,8.92206897 25.3243051,8.53103448 26.162452,7.49931034 C27.0653898,6.33724138 28.4011864,4.11034483 27.3507458,2.03517241 C26.9103051,1.29655172 26.1500452,0.786206897 25.2050621,0.612413793 C21.9710282,0.427586207 18.9589379,1.97034483 16.1798192,3.67586207 C10.0998079,7.90137931 5.23703955,13.7558621 2.48480226,20.1648276 C0.89880226,24.0317241 -0.536248588,29.5717241 1.61425989,34.0793103 C3.27814689,37.2075862 6.7320565,38.8696552 10.8524859,38.522069 C13.7432655,38.217931 17.2371525,37.2841379 19.5882373,36.7193103 C21.9386328,36.1537931 33.970452,32.0158621 37.9240791,39.217931 C37.9240791,39.217931 39.2385085,36.6648276 42.523548,36.6103448 C45.2247797,36.3606897 49.1205085,37.3924138 51.9582147,39.477931 C51.0132316,38.0551724 48.3333672,35.9586207 46.0973898,34.5137931" id="Fill-3"></path>
                            <path d="M27.250113,10.3448276 C25.0003503,8.86827586 20.4773898,11.6917241 16.8546102,16.5365517 C13.542,20.882069 12.111774,25.9324138 13.6681356,28.2682759 C15.9840678,31.0165517 20.2830169,27.0193103 22.1109492,24.8793103 L22.346678,24.6296552 C23.590113,23.2931034 24.5509492,21.6855172 25.4800791,20.1427586 C25.4800791,20.1427586 26.3347684,18.7310345 26.375435,18.6655172 C26.9034124,18.5682759 27.5396045,18.4158621 28.2564407,18.2096552 C28.2461017,18.242069 25.5138531,22.8372414 25.7923164,25.117931 C25.8791638,25.8131034 25.8129944,28.3551724 28.293661,29.1262069 C31.5993785,29.68 34.2385763,27.1165517 36.5676045,24.8358621 C36.5676045,24.8358621 36.9639322,24.4551724 37.1886328,24.2386207 C37.1314237,24.4662069 37.0576723,24.7703448 37.0576723,24.7703448 C36.0899435,28.137931 37.3940339,28.8441379 38.2101243,29.1041379 C40.6770056,29.8213793 43.6229266,26.2372414 43.6325763,26.2372414 C43.5560678,27.3668966 43.3327458,28.3006897 44.5224181,29.0503448 C45.6452316,29.4524138 46.7818305,28.8544828 47.6454802,28.2793103 C50.7568249,26.0848276 53.2636836,22.6303448 55.2880565,19.697931 L53.9970621,19.697931 C53.9818983,19.7193103 50.8098983,24.282069 48.7503729,25.2806897 C48.7476158,25.2806897 48.3726554,25.4655172 48.156226,25.3131034 C47.8894802,25.0855172 47.9949379,24.5744828 48.1603616,24.2386207 C48.1707006,24.2165517 56.1110395,10.3993103 56.1110395,10.3993103 L52.3621243,10.3993103 C52.3621243,10.3993103 51.9527006,11.0944828 51.9189266,11.137931 C51.8934237,11.1165517 51.8334576,11.0186207 51.7921017,10.9641379 C49.4685876,7.74896552 44.208113,12.702069 40.2475932,18.4372414 C38.7229379,20.6427586 36.7812768,23.1303448 34.7686215,24.922069 C34.7686215,24.922069 31.7861695,27.66 30.5124068,25.6937931 C30.0464633,24.8682759 30.1898305,23.6627586 30.4524407,22.8696552 C31.9357401,18.6441379 34.492226,14.8096552 37.4009266,12.4958621 C38.2218418,11.8551724 39.1144407,11.6703448 39.5576384,11.942069 C39.9794689,12.1917241 40.0477062,12.8110345 39.7809605,13.2344828 C39.1034124,13.2131034 38.5609605,13.4193103 38.1191412,13.8751724 C37.2499774,14.7875862 36.9480791,15.6682759 37.2244746,16.4931034 C38.5664746,18.4055172 41.2442712,14.6248276 41.1146893,12.322069 C41.0685085,11.4965517 40.6280678,10.7144828 39.9711977,10.3337931 C38.9924407,9.74758621 37.498113,9.9 36.5317627,10.3668966 C35.2380113,10.8558621 33.1888249,12.5606897 31.9936384,13.8862069 C30.4875932,15.5482759 27.9062938,17.3951724 27.0991638,17.1882759 C27.3638418,16.482069 29.544678,12.017931 27.250113,10.3448276 Z M45.3274802,16.9496552 C46.0567232,15.9393103 48.179661,13.2344828 48.6972994,12.7786207 C50.4383842,11.2462069 51.1338531,11.9206897 51.1938192,12.397931 C49.5692203,15.3089655 47.6523729,18.6441379 45.8499435,21.642069 C45.8533898,21.6310345 45.285435,22.5 45.285435,22.5 C44.4893333,23.7165517 43.6877175,24.7593103 42.3801808,25.4875862 C42.1933898,25.5413793 41.8859774,25.5634483 41.6812655,25.4110345 C41.4351977,25.2482759 41.3380113,24.9772414 41.3662712,24.6944828 C41.4441582,23.76 42.3946554,20.9034483 45.3274802,16.9496552 Z M24.9300452,18.6986207 C24.9300452,18.6986207 24.8976497,18.7965517 24.8811073,18.8289655 C24.8769718,18.8289655 23.2461695,21.4896552 23.2461695,21.4896552 C22.2625876,22.8041379 21.0336271,24.4551724 19.4979435,25.2482759 C19.042339,25.4006897 18.4137288,25.497931 18.0932203,25.0965517 C17.4129153,24.282069 17.7637514,23.1517241 18.0477288,22.24 L18.1483616,21.9137931 C18.964452,19.697931 20.2602712,17.7427586 21.5202486,15.9282759 C21.5361017,15.917931 21.5712542,15.9068966 21.583661,15.9068966 C21.5871073,15.917931 21.5919322,15.917931 21.594,15.9393103 C22.3852768,17.46 23.8685763,18.1662069 24.9776045,18.4917241 C24.9844972,18.4917241 24.9913898,18.5027586 24.9913898,18.5248276 C24.9913898,18.5572414 24.9727797,18.6006897 24.9300452,18.6986207 Z M26.4746893,15.5593103 C26.4677966,15.5806897 25.7482034,17.2324138 25.7482034,17.2324138 C25.6441243,17.3186207 25.4800791,17.2751724 25.2919096,17.2324138 L24.9693333,17.177931 C23.9554237,16.8627586 23.1910282,16.1889655 22.9552994,15.3855172 C22.6299661,13.8213793 23.9657627,12.5937931 24.5543955,12.1482759 C25.1182147,11.7572414 25.996339,11.5510345 26.5063955,11.9531034 C26.8207006,12.322069 26.9399435,12.8 26.9399435,13.3213793 C26.9399435,14.0275862 26.7221356,14.8206897 26.4746893,15.5593103 L26.4746893,15.5593103 Z" id="Fill-4"></path>
                            <path d="M73.8761695,20.5993103 C73.5143051,19.8172414 72.6561695,19.317931 71.7415141,19.3717241 C68.7714689,19.6434483 65.8655254,22.0875862 64.3408701,25.5958621 C63.5406328,27.3993103 63.1036384,28.8875862 62.8162147,31.2551724 C63.7405198,30.1910345 65.6242825,28.442069 67.7616949,27.4862069 C67.7616949,27.4862069 68.0532542,25.2158621 69.5365537,23.1951724 C70.0976158,22.3593103 71.2211186,21.0117241 72.4824746,21.3703448 C73.5846102,21.74 73.1972429,24.7924138 71.7325537,27.7462069 C70.6490282,29.9193103 68.9906554,32.0917241 67.3122938,33.5910345 C65.8289944,34.8510345 63.6336836,36.3717241 61.7133898,35.1986207 C60.5037288,34.4813793 59.8868362,32.982069 60.0171073,31.0489655 C60.5954011,25.5634483 63.0905424,20.8924138 66.6623164,15.5703448 C70.3450621,10.6275862 74.4034576,5.55517241 79.8720904,2.85034483 C80.987322,2.28482759 82.0205311,2.15517241 82.9131299,2.50275862 C82.9131299,2.50275862 77.7794802,5.32689655 75.3325876,10.5517241 C74.7108701,11.8772414 73.8451525,13.6689655 74.7163842,15.2551724 C75.1719887,16.0806897 75.9818757,16.1455172 76.6325424,16.102069 C79.6315367,15.4068966 81.5697514,12.6041379 83.1523051,10.0413793 C84.071096,8.09655172 84.8871864,6.16344828 84.8871864,4.01241379 C84.8871864,3.75172414 84.8734011,3.40413793 84.8513446,3.14344828 C86.2836384,2.38275862 89.2219774,3.72965517 89.2219774,3.72965517 C91.5179209,4.49034483 96.4075706,8.23793103 98.0562938,8.95448276 C98.8613559,8.02068966 100.182678,6.60896552 100.927774,5.90275862 L99.8497627,5.24 C98.1245311,4.1862069 96.3014237,3.18689655 94.505887,2.19862069 C90.4295706,-0.0282758621 87.1114463,0.753793103 85.423435,1.36206897 C84.7596723,1.60068966 84.1531186,1.80758621 84.1531186,1.80758621 C82.8993446,0.43862069 80.8446441,0.568965517 79.3303277,0.93862069 C73.8844407,2.50275862 68.8279887,6.31517241 63.406226,12.9303448 C59.4208927,18.1117241 56.9484972,22.5875862 55.6306215,27.0082759 C54.6153333,29.9848276 54.3065424,34.362069 56.7858305,36.957931 C58.8936045,39.1627586 61.687887,38.6848276 63.6619435,37.8924138 C67.9388362,35.7848276 71.7821808,31.2441379 73.6969605,26.0193103 C74.1580791,24.4662069 74.6715819,22.2717241 73.8761695,20.5993103 Z M83.7085424,4.22965517 C83.1426554,10.7255172 78.0958531,14.537931 76.8475932,14.842069 C76.0914689,14.9937931 74.7997853,14.657931 75.9529266,11.9310345 C77.6498983,8.25931034 80.5475706,5.14206897 83.6575367,3.54551724 C83.7326667,3.81724138 83.7305989,3.99034483 83.7085424,4.22965517 L83.7085424,4.22965517 Z" id="Fill-5"></path>
                            <path d="M113.644034,5.05517241 C110.929017,6.59793103 108.115435,7.59655172 104.709085,7.24896552 C103.764791,8.3137931 102.846,9.41103448 101.998203,10.5406897 C106.778949,11.7572414 111.848497,9.05241379 114.674486,6.47793103 C117.665209,3.88206897 119.198825,0.612413793 119.198825,0.612413793 C119.198825,0.612413793 116.956644,3.17586207 113.644034,5.05517241" id="Fill-6"></path>
                            <polyline id="Fill-7" points="62.3433785 10.3993103 58.7826328 10.3993103 56.774113 13.7993103 60.3341695 13.7993103 62.3433785 10.3993103"></polyline>
                            <path d="M104.69461,34.8510345 C104.312068,35.1117241 103.773751,34.8937931 103.975017,34.2965517 C104.476113,32.7758621 106.46809,29.6475862 106.46809,29.6475862 L112.01461,19.7737931 L108.215379,19.7737931 C108.034791,20.0993103 107.648802,20.7731034 107.648802,20.7731034 C107.47304,20.48 106.94713,19.8386207 106.730701,19.697931 C105.80226,19.1110345 104.440271,19.3937931 103.500113,19.9255172 C99.4155254,22.3158621 96.434452,27.0406897 94.0840565,30.7227586 C94.0840565,30.7227586 91.6095932,34.817931 90.235887,35.122069 C89.1640791,35.2089655 89.2736723,33.7641379 89.3198531,33.4275862 C89.734791,30.9944828 90.6983842,28.6806897 91.6681808,26.5848276 C93.6408588,25.2158621 95.8933785,23.4234483 97.9398079,21.4572414 C102.380746,17.2103448 106.124836,12.397931 106.672113,11.3227586 C106.672113,11.3227586 106.080034,11.442069 105.37974,11.4641379 C101.96374,16.2324138 94.9718305,23.1627586 92.852339,24.1944828 C93.7911186,21.9351724 99.8580339,11.1489655 105.020633,5.98965517 L105.833277,5.20689655 C107.089119,3.98 108.391141,2.72 109.405051,2.51310345 C109.512576,2.50275862 109.650429,2.51310345 109.769672,2.76344828 C109.814475,3.71931034 109.459503,4.42551724 109.051458,5.22896552 L108.480056,6.40206897 C108.480056,6.40206897 109.289254,6.25034483 109.821367,6.07586207 C110.438949,4.9137931 111.122011,3.61034483 110.86974,2.05724138 C110.78565,1.55724138 110.424475,1.17724138 109.951638,1.09034483 C108.411819,0.797241379 106.732768,1.93724138 105.382497,2.86137931 L105.328045,2.8937931 C98.3857627,8.33586207 92.5228701,16.1786207 87.3981808,26.8889655 C87.0259774,27.1710345 85.5909266,27.5075862 85.3469266,27.3448276 C85.8535367,26.302069 86.4904181,24.9006897 86.809548,23.38 C86.8653785,22.9455172 86.9163842,22.5 86.9163842,22.0655172 C86.9163842,21.1317241 86.6916836,20.2517241 85.8549153,19.6434483 C84.8734011,19.1544828 83.6602938,19.3827586 82.8428249,19.7517241 C79.1786893,21.2731034 76.4409266,25.0310345 74.4648023,28.1268966 C73.4019548,30.0931034 72.3425537,32.2 72.0489266,34.6117241 C71.8421469,36.502069 72.2632881,37.717931 73.3371638,38.3268966 C74.4413672,38.8910345 75.8316158,38.3048276 76.3775141,38.0227586 C80.0885198,36.0675862 82.682226,32.1462069 84.7265876,28.5613793 C84.8079209,28.5503448 85.9238418,28.517931 86.7681921,28.3006897 C86.7799096,28.3006897 86.7840452,28.3006897 86.8026554,28.3117241 C86.7544068,28.4744828 86.3181017,29.777931 86.3181017,29.777931 C85.0222825,33.58 84.4233107,36.1655172 85.6474463,37.6965517 C87.396113,39.857931 90.2910282,37.6206897 92.6462486,34.6662069 C92.1410169,38.2068966 93.9751525,38.7613793 95.3729831,38.4896552 C96.9789718,38.0551724 98.7689944,36.3386207 99.5988701,35.4593103 C99.3328136,36.4910345 99.4058757,38.3372414 100.866429,38.522069 C101.867243,38.7068966 102.617164,38.1965517 103.484949,37.7296552 C106.595605,36.0344828 110.318328,30.3537931 111.285367,28.7896552 L110.017808,28.7896552 C108.643412,30.8206897 106.894746,33.557931 104.69461,34.8510345 Z M76.7745311,34.437931 C76.5774011,34.1448276 76.5119209,33.8075862 76.5050282,33.4606897 C76.4671186,31.3310345 78.757548,27.54 80.3738757,25.422069 C80.3780113,25.422069 80.3780113,25.422069 80.3780113,25.422069 C81.0548701,26.9972414 82.5891751,27.8772414 83.515548,28.2793103 C82.3651638,30.8427586 78.4198079,36.3496552 76.7745311,34.437931 Z M84.1641469,27.1489655 C84.0545537,27.2255172 82.1197853,26.5737931 81.7468927,24.7813793 C81.4298305,23.2386207 82.4912994,22.0331034 83.5189944,21.4248276 C83.959435,21.0772414 84.6245763,20.957931 85.1111977,21.1317241 C85.5633559,21.4358621 85.6860452,21.9786207 85.6860452,22.5655172 C85.6860452,22.9241379 85.6384859,23.2931034 85.5964407,23.6296552 C85.5964407,23.6296552 85.5888588,23.6951724 85.5874802,23.7055172 C85.264904,24.9117241 84.7713898,26.0958621 84.1641469,27.1489655 Z M99.6802034,33.7537931 C99.6788249,33.7537931 99.3135141,34.0793103 99.3135141,34.0793103 C98.7917401,34.5462069 98.254113,35.0462069 97.6068927,34.7965517 C97.4276836,34.7310345 97.301548,34.4924138 97.2712203,34.3075862 C97.2415819,32.9717241 97.844,31.7331034 98.4264294,30.5275862 L98.5753107,30.2124138 C100.252983,27.4103448 102.202915,24.1075862 105.066814,21.8158621 C105.549299,21.4682759 106.073141,21.1744828 106.625243,21.4027586 C106.752757,21.5227586 106.900949,21.7289655 106.900949,21.9351724 C106.900949,22.0006897 106.843051,22.1744828 106.809277,22.2282759 C106.00904,23.5213793 105.247401,24.8793103 104.50713,26.182069 C103.059672,28.7565517 101.557763,31.417931 99.6802034,33.7537931 L99.6802034,33.7537931 Z" id="Fill-8"></path>
                        </g>
                    </g>
                </g>
            </g>
        </g>
    </g>
</svg>