<?xml version="1.0" encoding="UTF-8"?>
<svg width="124px" height="71px" viewBox="0 0 124 71" version="1.1" xmlns="http://www.w3.org/2000/svg" xmlns:xlink="http://www.w3.org/1999/xlink">
    <!-- Generator: Sketch 47.1 (45422) - http://www.bohemiancoding.com/sketch -->
    <title>General_Mills</title>
    <desc>Created with Sketch.</desc>
    <defs></defs>
    <g id="HiFi" stroke="none" stroke-width="1" fill="none" fill-rule="evenodd">
        <g id="Homepage---Desktop" transform="translate(-330.000000, -781.000000)" fill="#1A1919">
            <g id="Brands-we-ship" transform="translate(0.000000, 446.000000)">
                <g id="Logos-row-2" transform="translate(97.000000, 335.000000)">
                    <g id="Stacked-Group">
                        <g id="General_Mills" transform="translate(233.000000, 0.000000)">
                            <path d="M76.5151708,39.9999611 C75.6140445,39.9955251 74.7882425,39.8010799 75.0487675,38.9183138 C75.302382,38.0577277 76.1827768,37.8677186 77.501987,38.0791685 C78.2034005,38.1915474 78.0575894,39.2199625 77.7120655,39.540834 C77.3914194,39.8373073 77.2221127,40.0029184 76.5151708,39.9999611" id="Fill-2"></path>
                            <path d="M89.2482816,51.9989394 C87.0856664,52.0389992 86,50.9309164 86,50.9309164 L86.333948,48.870698 C86.333948,48.870698 87.630176,50.3436111 89.4668902,50.0381551 C90.3587594,49.8900769 91.4980721,48.4665232 90.5485331,47.673196 C88.9317687,46.3226084 85.8290025,46.0643657 87.2995809,42.2636919 C88.100922,40.1898818 90.7637888,39.7506546 92.271249,40.1162003 C93.5171836,40.4173642 94,41.1384407 94,41.1384407 C94,41.1384407 93.7243923,42.5791629 93.6090528,43.1421462 C92.6038558,42.536957 91.5503772,41.8502175 90.4761106,42.1585349 C89.3401509,42.4854516 88.8942163,43.9032824 89.4709137,44.4884417 C90.6122381,45.6444532 92.2471081,45.6609063 92.8164292,47.294774 C93.2911987,48.6560919 92.6709137,50.2949671 91.6677284,51.067549 C90.9609388,51.6119331 90.1864208,51.9817709 89.2482816,51.9989394" id="Fill-3"></path>
                            <polyline id="Fill-4" points="78 52 80.5333034 52 83 38 80.398593 38 78 52"></polyline>
                            <path d="M73,52 L75.7523927,52 L78,41 C78,41 77.227385,41.188934 76.4601729,41.188934 C75.9029021,41.188934 75.1781414,41 75.1781414,41 L73,52" id="Fill-5"></path>
                            <polyline id="Fill-6" points="82 52 84.5336726 52 87 38 84.3989823 38 82 52"></polyline>
                            <polyline id="Fill-7" points="58 51.9672404 60.4682213 38 64.0755678 38.0160158 64.7877839 48.3520358 69.3288625 38.0327596 73 38.0327596 70.6488457 52 68.2689504 51.9504966 69.9303206 41.9762883 65.369614 51.9672404 63.1895037 51.9672404 61.9080755 42.2725807 60.2467053 51.9672404 58 51.9672404"></polyline>
                            <polyline id="Fill-8" points="119 36 121.533303 36 124 22 121.398593 22 119 36"></polyline>
                            <path d="M88.0101828,25.5600636 C85.72187,25.6927276 84.9052257,27.942995 84.8254836,28.0720734 L83.4755642,35 L81,35 L83.0576303,23.3133817 L85.3715745,23.3133817 L85.3559108,25.0294078 C85.3559108,25.0294078 87.1458356,22.6751605 89.533826,23.0380144 C92.4109485,23.4754469 92.0250538,26.3402711 91.9282242,27.3434974 C91.8463461,28.1997177 90.6267196,35 90.6267196,35 L88.1518673,35 L89.5017867,27.3277211 C89.5017867,27.3277211 89.61428,25.4661232 88.0101828,25.5600636" id="Fill-9"></path>
                            <path d="M94.4657299,30.7452079 L101.577525,30.7452079 C101.577525,30.7452079 103.474241,24.7589631 99.2299557,24.0860247 C94.7036207,23.369831 92.2727188,27.2628047 92.0277056,30.6650793 C91.6096161,36.4747576 96.0262649,36.2996092 98.3303867,35.7394181 C99.5198405,35.4508133 100.291205,34.7459652 100.291205,34.7459652 L100.805448,32.2811243 C100.805448,32.2811243 97.8959155,34.9870601 95.3553275,33.7383303 C94.0212873,33.0817013 94.4657299,30.7452079 94.4657299,30.7452079 Z M94.8674377,28.7760298 C94.9600299,28.5108254 95.6879472,26.6210668 97.6950616,26.4445002 C99.3909237,26.2948795 100.195051,26.8394704 99.9692689,28.7760298 L94.8674377,28.7760298 L94.8674377,28.7760298 Z" id="Fill-10"></path>
                            <path d="M73.4655839,30.7452079 L80.5772084,30.7452079 C80.5772084,30.7452079 82.4745912,24.7589631 78.2304079,24.0860247 C73.703469,23.369831 71.2726253,27.2628047 71.0276179,30.6650793 C70.6102506,36.4747576 75.0260816,36.2996092 77.3301482,35.7394181 C78.5195736,35.4508133 79.2916318,34.7459652 79.2916318,34.7459652 L79.8058624,32.2811243 C79.8058624,32.2811243 76.8963996,34.9870601 74.3558724,33.7383303 C73.0211519,33.0817013 73.4655839,30.7452079 73.4655839,30.7452079 Z M73.8679943,28.7760298 C73.9598721,28.5108254 74.6884842,26.6210668 76.6948383,26.4445002 C78.3906598,26.2948795 79.1947684,26.8394704 78.9697035,28.7760298 L73.8679943,28.7760298 L73.8679943,28.7760298 Z" id="Fill-11"></path>
                            <path d="M108.189217,25.5963262 C106.326261,25.8801782 105.885913,27.4972747 105.815652,27.9137343 L104.528,35 L102,35 L104.057043,23.1083201 L106.176696,23.1083201 L106.176696,25.0013838 C106.176696,25.0013838 107.15687,22.8287689 108.814609,23.0108356 C109.591652,23.0968514 110,23.3556155 110,23.3556155 L109.513739,25.8801782 C109.513739,25.8801782 109.005217,25.4723201 108.189217,25.5963262" id="Fill-12"></path>
                            <path d="M115.82678,29.7485845 C115.82678,29.7485845 115.3431,33.1797686 112.536758,33.1170158 C111.106437,33.0849422 111.332202,31.6890408 112.113806,31.0663935 C113.649864,29.8434109 115.82678,29.7485845 115.82678,29.7485845 Z M114.875138,33.8407649 L115.052321,34.7220932 L117.407134,34.7220932 L118.923187,27.073223 C118.923187,27.073223 119.826247,23.259944 115.43955,23.012419 C112.085228,22.8241606 110.827804,24.8385257 110.827804,24.8385257 L110.440574,27.4511344 C110.440574,27.4511344 112.116664,25.3077773 114.375026,25.3419427 C116.471924,25.3733191 116.40691,26.1918947 116.471924,26.569806 C116.536224,26.9477174 116.356184,28.1135251 113.956361,28.5527948 C111.891613,28.9307062 108.408691,30.1808816 109.085985,33.1170158 C109.89188,36.6109528 114.600791,34.2500527 114.875138,33.8407649 L114.875138,33.8407649 Z" id="Fill-13"></path>
                            <path d="M54.2436488,27.1255686 C55.7186871,18.7222905 60,14.0350349 60,14.0350349 L51.5769048,13.9146864 C49.4419435,15.4010954 46.7004509,17.8284745 42.1158724,18.3661717 C42.3372705,17.8481807 42.4768012,17.5237325 42.5131076,17.4427964 C42.8953931,16.5996534 44.2437148,13.7971531 44.6373906,11.5541676 C45.7080748,5.45369732 41.745689,1.04584715 36.69411,0.179479029 C28.6782164,-1.19573081 22.8734566,5.60290125 21.871114,11.3141745 C21.0567106,15.9521647 23.0955666,22.058969 29.4598728,25.2703726 L28.2845407,28.0735767 C28.0417858,28.0257188 27.7983191,27.9799723 27.5534285,27.9377448 C11.9146054,25.2555929 2.05918533,34.007952 0.27945764,44.1453739 C-1.70956603,55.4792425 7.04455853,67.9166572 22.5317489,70.5734725 C37.0813787,73.0691195 51.0543767,64.4687795 53.8471254,48.5595582 C55.327147,40.1267208 52.5849426,36.5753857 54.2436488,27.1255686 Z M30.4202139,12.1340923 C30.8822312,9.50261349 32.8520338,8.22311938 34.3491408,8.48000351 C35.2568019,8.63554158 35.7636683,9.3850802 35.6042047,10.296491 C35.5016924,10.8799347 33.9063445,14.6417037 33.2549642,16.2245322 L32.9289181,17.0015187 C30.850908,15.9676481 30.0201311,14.4143788 30.4202139,12.1340923 Z M45.1093744,47.2146115 C43.4293114,56.7840732 34.7841062,63.4335013 23.6828768,61.5290398 C15.5765731,60.1383465 8.07537681,53.5227004 9.50770166,45.3587116 C10.1904052,41.4709638 14.6197915,35.0530833 24.0573315,36.6718052 C24.2523896,36.7055872 24.4431764,36.7400731 24.6346751,36.7745589 L20.9591815,45.5360672 L30.4301804,45.8978164 C30.4301804,45.8978164 31.6674471,42.9784866 33.3496457,39.0112103 C35.7821775,39.8466116 37.0934808,40.5102875 37.0934808,40.5102875 L40.4180122,32.5785501 C40.4180122,32.5785501 39.0262651,31.7783385 36.824386,30.8176622 C37.3227098,29.6430331 37.8174741,28.4768496 38.2965768,27.3493745 C42.4725298,27.3718959 45.5842057,26.1332217 45.5842057,26.1332217 C44.3298536,33.2802309 46.3217249,40.3068916 45.1093744,47.2146115 L45.1093744,47.2146115 Z" id="Fill-14"></path>
                            <path d="M69.1884586,33.7505093 C68.2075398,34.8941701 66.3364607,36 64.6069651,36 C60.9040147,36 59.9564951,32.9742458 60.0015113,30.2591425 C60.0784746,25.5746435 62.4570757,21 66.7016733,21 C68.2213351,21 69.7206669,21.240809 71,23.0246872 L70.5178904,25.7361529 C69.6015917,24.222912 68.33678,23.7485692 66.8693952,23.7332913 C63.591921,23.7005529 62.3837427,27.6167912 62.4135115,30.3217092 C62.4381979,32.5566495 63.3770047,33.6486565 64.9140921,33.6486565 C65.9443836,33.6486565 66.613819,33.2528858 67.2004825,32.6715976 L67.5882032,30.4773984 L65.9872217,30.4752158 L66.3981766,28.3988748 L70.1621167,28.3988748 L69.1884586,33.7505093" id="Fill-15"></path>
                        </g>
                    </g>
                </g>
            </g>
        </g>
    </g>
</svg>