<?xml version="1.0" encoding="UTF-8"?>
<svg width="177px" height="32px" viewBox="0 0 177 32" version="1.1" xmlns="http://www.w3.org/2000/svg" xmlns:xlink="http://www.w3.org/1999/xlink">
    <!-- Generator: Sketch 47.1 (45422) - http://www.bohemiancoding.com/sketch -->
    <title>Johnson__and__Johnson</title>
    <desc>Created with Sketch.</desc>
    <defs></defs>
    <g id="HiFi" stroke="none" stroke-width="1" fill="none" fill-rule="evenodd">
        <g id="Homepage---Desktop" transform="translate(-510.000000, -801.000000)" fill="#DC3B41">
            <g id="Brands-we-ship" transform="translate(0.000000, 446.000000)">
                <g id="Logos-row-2" transform="translate(97.000000, 335.000000)">
                    <g id="Stacked-Group">
                        <g id="Johnson__and__Johnson" transform="translate(413.000000, 20.000000)">
                            <path d="M13.40775,11.7025882 C12.7082234,12.5411765 11.9531489,13.5482353 11.9531489,15.0588235 C11.9531489,17.8832941 13.5753351,20.0931765 16.4854787,20.0941176 C20.3474681,20.0941176 21.1025426,16.1496471 21.1025426,14.2757647 C21.1025426,14.0574118 21.0903032,13.8484706 21.0677074,13.6489412 L21.0686489,13.648 C22.0929894,13.4908235 23.1145053,13.0625882 24.0748245,12.4367059 L24.0795319,12.4395294 C24.1266064,14.3171765 24.1802713,16.1355294 24.1802713,16.9609412 C24.1529681,19.5623529 24.3478564,19.8701176 25.1594202,19.8701176 C26.0274734,19.8701176 26.5029255,18.1082353 27.3144894,16.4291765 C28.2653936,14.3312941 29.2727872,12.2334118 29.8885213,12.2334118 C31.0361968,12.2334118 28.9649202,19.9821176 31.7357234,19.9821176 C33.6940213,19.9821176 36.6041649,12.1214118 37.8638777,12.1214118 C38.8430266,12.1214118 36.8555426,19.9821176 39.0379149,19.9821176 C40.6327979,19.9821176 43.3471117,11.9821176 44.2707128,11.9821176 C45.2225585,11.9821176 43.2633191,19.9821176 46.0896702,19.9821176 C48.6354574,19.9821176 50.706734,13.4089412 51.4062606,13.4089412 C51.7423723,13.4089412 52.3722287,14.2889412 52.8213191,15.4955294 L52.8175532,15.5265882 C51.9334947,16.6277647 51.378016,17.6828235 51.378016,18.4715294 C51.378016,19.4785882 52.1613351,19.9821176 52.9446543,19.9821176 C54.119633,19.9821176 55.2673085,18.7228235 55.2673085,16.9044706 C55.2673085,16.5242353 55.2352979,15.4390588 54.8078617,14.352 L54.8106862,14.3407059 C56.5693883,12.7105882 58.8430851,11.2903529 60.2195426,11.0588235 C59.4362234,11.9538824 58.009867,12.7369412 58.009867,15.2828235 C58.009867,18.0235294 60.1075053,20.1214118 62.794516,20.1214118 C66.5717713,20.1214118 67.3833351,16.0941176 67.3833351,14.5270588 C67.3833351,13.9567059 67.3098989,13.4428235 67.1790319,12.9844706 L67.175266,12.9901176 C68.4575745,12.3868235 69.42825,11.5341176 69.7897819,11.5341176 C70.5731011,11.5341176 70.265234,13.9115294 70.265234,16.3736471 C70.265234,18.2192941 69.9856117,20.1214118 71.3564202,20.1214118 C72.3920585,20.1214118 72.8957553,18.0790588 73.9304521,16.2616471 C74.9378457,14.4715294 76.0290319,12.0376471 76.4489362,12.0376471 C77.0081809,12.0376471 76.7850479,15.7863529 76.7850479,16.5129412 C76.7850479,17.4362353 76.6165213,20.3454118 78.5192713,20.3454118 C79.8062872,20.3454118 82.212734,16.7369412 82.212734,16.2616471 C82.212734,16.0103529 82.212734,15.9538824 82.0169043,15.9538824 C81.8210745,15.9538824 80.3382287,18.3877647 79.7507394,18.3877647 C78.9109309,18.3877647 79.4428723,15.2828235 79.4428723,12.9891765 C79.4428723,11.9821176 79.5831543,9.744 77.9035372,9.744 C75.7776543,9.744 73.7063777,15.7298824 73.0633404,15.7298824 C72.4476064,15.7298824 73.9586968,9.968 71.3008723,9.968 C70.2191011,9.968 68.6119787,11.4352941 66.8589255,12.1891765 L66.8692819,12.1929412 C66.2234202,10.9261176 65.0644468,10.2757647 63.94125,10.2757647 C63.1296862,10.2757647 62.5139521,10.8912941 62.5139521,11.5341176 C62.5139521,12.4009412 63.2144202,13.5764706 64.8366064,13.5764706 C65.2838138,13.5764706 65.7178404,13.504 66.1311543,13.3872941 L66.1481011,13.3938824 C66.2959149,13.8701176 66.3759415,14.3463529 66.3759415,14.7228235 C66.3759415,16.2051765 65.3685479,18.1355294 63.4375532,18.1355294 C61.9264628,18.1355294 60.5838989,16.5411765 60.5838989,14.5835294 C60.5838989,11.3938824 62.5139521,10.8630588 62.5148936,10.2192941 C62.5139521,9.93976471 62.2908191,9.88329412 61.8709149,9.88329412 C59.7120798,9.88423529 56.7463883,11.6677647 54.5188245,13.7232941 L54.5103511,13.7214118 C54.4350319,13.5868235 54.3512394,13.4541176 54.2599149,13.3242353 C52.1057872,10.2475294 52.9446543,9.57647059 52.3854096,9.57647059 C51.685883,9.57647059 48.5516649,18.1082353 47.3201968,18.1082353 C45.6980106,18.1082353 48.6637021,9.88423529 45.5021809,9.88423529 C43.0119415,9.88423529 41.5846436,16.3454118 40.6327979,16.3454118 C39.7101383,16.3454118 41.5563989,9.88423529 38.8703298,9.88423529 C36.9402766,9.88423529 34.0574362,17.6037647 32.7986649,17.6037647 C31.7357234,17.6037647 33.7778138,9.99623529 31.3158191,9.99623529 C28.9649202,9.99623529 27.1186596,15.9538824 26.5311702,15.9538824 C26.0397128,15.9538824 26.1451596,14.0922353 26.1639894,10.6776471 L26.1724628,10.6531765 C28.0996915,8.58352941 29.4403723,5.74588235 29.4413138,3.05882353 C29.4413138,1.80047059 28.8255798,0.820705882 27.6496596,0.821647059 C25.35525,0.820705882 24.0126862,4.45741176 24.0126862,8.45741176 C24.0126862,9.32988235 24.0324574,10.4432941 24.0588191,11.5868235 L24.0522287,11.6009412 C22.9874043,12.384 21.9837766,12.7934118 21.4104096,12.7934118 C21.2512979,12.7934118 21.0761809,12.7943529 20.8916489,12.7952941 L20.8935319,12.7962353 C20.3644149,11.0729412 18.9418245,10.304 17.9127766,10.304 C17.1012128,10.304 16.457234,11.0588235 16.457234,11.7025882 C16.4581755,12.6512941 17.299867,13.6545882 19.9558085,13.7129412 L19.9623989,13.7195294 C20.0320691,14.064 20.0669043,14.4028235 20.0669043,14.6945882 C20.0669043,16.1778824 18.9766596,18.1910588 17.0456649,18.1910588 C15.3660479,18.1910588 14.1072766,16.2898824 14.1072766,14.192 C14.1072766,11.5058824 15.8979894,10.6672941 15.8979894,10.4715294 C15.8979894,10.3595294 15.8706862,10.2475294 15.8141968,10.2475294 C14.0376064,10.2475294 11.1397021,12.2032941 8.40938298,15.0418824 L8.40467553,15.04 C8.09586702,12.6917647 7.72774468,9.91529412 7.72774468,6.66729412 C7.72774468,1.968 8.59485638,1.35247059 8.59485638,0.736941176 C8.59485638,0.457411765 8.51106383,0.345411765 8.0356117,0.345411765 C6.97267021,0.345411765 0.0885,3.45035294 0.0885,10.3312941 C0.0885,15.6235294 3.00146809,17.9755294 4.87785638,19.4042353 C2.86589362,22.3905882 1.43200532,25.6734118 1.43200532,28.5411765 C1.43200532,30.1637647 2.07598404,31.7581176 3.27826596,31.7581176 C5.18101596,31.7581176 8.81893085,27.7298824 8.81893085,19.4785882 C8.81893085,18.3943529 8.67864894,17.1595294 8.49882447,15.7628235 L8.49976596,15.7571765 C10.131367,14.0395294 11.8787713,12.6211765 13.40775,11.7025882 Z M159.781101,12.5383529 L159.784867,12.528 C159.428984,11.8428235 158.926229,11.3110588 158.321793,11.3110588 C158.04217,11.3101176 157.789851,11.5905882 157.789851,11.8136471 C157.789851,12.3171765 158.265303,12.6249412 158.993074,12.6249412 C159.256691,12.6249412 159.519367,12.5938824 159.781101,12.5383529 Z M99.25275,18.8432941 C99.604867,18.3454118 99.9720479,17.8569412 100.349585,17.3816471 L100.369356,17.3383529 C99.9108511,14.8978824 99.4212766,12.5449412 99.4212766,10.8065882 C99.4212766,5.856 101.575404,2.33129412 101.575404,1.57647059 C101.576346,1.07294118 101.660138,0.989176471 101.296723,0.989176471 C101.044404,0.989176471 96.1194734,3.08705882 96.1194734,10.4997647 C96.1194734,13.4870588 97.5119362,17.1444706 99.25275,18.8432941 Z M98.8648564,19.4051765 C98.1709787,18.8771765 97.525117,17.9708235 96.5393777,17.296 C95.7080426,16.7275294 93.5162553,17.344 91.6144468,17.6894118 L91.6106809,17.6922353 C91.4459202,18.7877647 91.068383,19.8701176 90.6917872,19.8701176 C90.445117,19.8701176 90.3368457,19.0032941 90.0289787,17.9952941 L90.0101489,17.9830588 C89.1609255,18.1345882 88.4406862,18.2475294 88.0047766,18.2475294 C86.6904574,18.2475294 83.6682766,17.6602353 83.6682766,15.6743529 C83.6682766,14.5552941 84.9270479,14.1082353 86.1302713,14.1082353 C87.5010798,14.1072941 89.6843936,15.0870588 90.2153936,16.1496471 C90.3556755,14.2475294 88.984867,13.2122353 88.984867,12.9044706 C88.984867,12.5976471 90.4677128,12.0376471 90.6070532,12.0376471 C91.1945426,12.0376471 91.6982394,14.7228235 91.6982394,16.6249412 C91.6982394,16.7152941 91.6963564,16.8084706 91.6916489,16.9035294 L91.6925904,16.9044706 C93.1980319,16.6042353 94.8183351,16.2861176 95.8680957,16.4291765 C94.8607021,15.0032941 94.1046862,13.0447059 94.1046862,10.3312941 C94.1046862,3.45035294 100.960612,0.345411765 102.023553,0.345411765 C102.499005,0.345411765 102.611043,0.457411765 102.611043,0.736941176 C102.611043,1.35247059 101.715686,1.968 101.715686,6.66729412 C101.715686,9.91811765 102.083809,12.6955294 102.392617,15.0456471 C105.124819,12.2051765 108.025548,10.2475294 109.802138,10.2475294 C109.857686,10.2475294 109.885931,10.3595294 109.885931,10.4715294 C109.885931,10.6672941 108.095218,11.5058824 108.095218,14.192 C108.095218,16.2898824 109.382234,18.1910588 111.061851,18.1910588 C112.964601,18.1910588 114.055787,16.1778824 114.055787,14.6955294 C114.055787,14.4018824 114.020011,14.0611765 113.949399,13.7148235 L113.947516,13.7129412 C111.28875,13.6545882 110.446117,12.6522353 110.446117,11.7025882 C110.446117,11.0588235 111.089154,10.304 111.928963,10.304 C112.935415,10.304 114.353298,11.072 114.881473,12.7952941 C115.065064,12.7943529 115.240181,12.7934118 115.398351,12.7934118 C115.973601,12.7934118 116.97817,12.3830588 118.043936,11.5981176 L118.046761,11.5915294 C118.020399,10.4461176 118.000628,9.33082353 118.000628,8.45741176 C118.000628,4.45741176 119.344133,0.821647059 121.638543,0.820705882 C122.813521,0.821647059 123.429255,1.80047059 123.429255,3.05882353 C123.429255,5.74588235 122.088574,8.58352941 120.160404,10.6541176 L120.152872,10.6738824 C120.134043,14.0912941 120.027654,15.9538824 120.519112,15.9538824 C121.106601,15.9538824 122.952862,9.99623529 125.303761,9.99623529 C127.766697,9.99623529 125.75191,17.6047059 126.786606,17.6047059 C128.046319,17.6037647 130.928218,9.88423529 132.859213,9.88423529 C135.545282,9.88423529 133.69808,16.3454118 134.621681,16.3454118 C135.572585,16.3454118 136.999883,9.88423529 139.490122,9.88423529 C142.651644,9.88423529 139.685952,18.1082353 141.30908,18.1082353 C142.540548,18.1082353 145.673824,9.57647059 146.373351,9.57647059 C146.933537,9.57647059 146.093729,10.2475294 148.248798,13.3242353 C148.340122,13.4531765 148.422973,13.5868235 148.498293,13.7214118 L148.508649,13.7232941 C150.739979,11.6677647 153.712261,9.88423529 155.887101,9.88423529 C156.278761,9.88423529 156.502835,9.93976471 156.502835,10.2202353 C156.502835,10.8630588 154.57184,11.3948235 154.57184,14.5835294 C154.57184,16.5411765 155.915346,18.1355294 157.426436,18.1355294 C159.356489,18.1355294 160.363883,16.2051765 160.363883,14.7228235 C160.363883,14.3463529 160.283856,13.8710588 160.136984,13.3957647 L160.124745,13.3891765 C159.71708,13.5049412 159.291527,13.5764706 158.852793,13.5764706 C157.202362,13.5764706 156.502835,12.4009412 156.502835,11.5341176 C156.502835,10.8912941 157.117628,10.2757647 157.930133,10.2757647 C159.049564,10.2757647 160.205713,10.9223529 160.852516,12.1835294 L160.858165,12.1844706 C162.606511,11.4296471 164.209867,9.968 165.288814,9.968 C167.946638,9.968 166.435548,15.7298824 167.051282,15.7298824 C167.723505,15.7298824 169.765596,9.744 171.89242,9.744 C173.571096,9.744 173.430814,11.9821176 173.430814,12.9891765 C173.430814,15.2828235 172.899814,18.3877647 173.738681,18.3877647 C174.32617,18.3877647 175.809957,15.9538824 176.005787,15.9538824 C176.200676,15.9538824 176.22892,16.0094118 176.22892,16.2616471 C176.22892,16.7369412 173.822473,20.3454118 172.507213,20.3454118 C170.605404,20.3454118 170.772989,17.4362353 170.772989,16.5129412 C170.772989,15.7863529 170.997064,12.0376471 170.436878,12.0376471 C170.017915,12.0376471 168.925787,14.4715294 167.918394,16.2616471 C166.883697,18.0790588 166.38,20.1214118 165.344362,20.1214118 C163.973553,20.1214118 164.253176,18.2192941 164.253176,16.3736471 C164.253176,13.9115294 164.561043,11.5341176 163.777723,11.5341176 C163.416191,11.5341176 162.446457,12.3868235 161.171681,12.9901176 L161.169798,12.9948235 C161.298782,13.4494118 161.371277,13.9614118 161.371277,14.5270588 C161.371277,16.0941176 160.559713,20.1214118 156.782457,20.1214118 C154.096388,20.1214118 151.997809,18.0235294 151.997809,15.2828235 C151.997809,12.7369412 153.425106,11.9538824 154.235729,11.0588235 C152.844207,11.2903529 150.56392,12.7096471 148.802394,14.3397647 L148.797686,14.3557647 C149.223239,15.4418824 149.25525,16.5242353 149.25525,16.9044706 C149.25525,18.7228235 148.108516,19.9821176 146.932596,19.9821176 C146.149277,19.9821176 145.365957,19.4785882 145.365957,18.4715294 C145.365957,17.6809412 145.924261,16.6221176 146.813027,15.5181176 L146.813968,15.5087059 C146.364878,14.2945882 145.732197,13.4089412 145.394202,13.4089412 C144.694676,13.4089412 142.651644,19.9821176 140.077612,19.9821176 C137.251261,19.9821176 139.2105,11.9821176 138.258654,11.9821176 C137.335995,11.9821176 134.621681,19.9821176 133.055043,19.9821176 C130.844426,19.9821176 132.830968,12.1223529 131.850878,12.1214118 C130.592106,12.1214118 127.681963,19.9821176 125.723665,19.9821176 C122.953803,19.9821176 125.024138,12.2334118 123.877404,12.2334118 C123.26167,12.2334118 122.254277,14.3312941 121.302431,16.4291765 C120.490867,18.1082353 120.015415,19.8701176 119.148303,19.8701176 C118.336739,19.8701176 118.169154,19.5623529 118.168213,16.9609412 C118.169154,16.1355294 118.114548,14.3181176 118.067473,12.4404706 L118.062766,12.4367059 C117.103388,13.0616471 116.083755,13.4898824 115.060356,13.648 L115.05659,13.6536471 C115.079186,13.8512941 115.090484,14.0592941 115.090484,14.2757647 C115.091426,16.1496471 114.33541,20.0941176 110.47342,20.0941176 C107.564218,20.0941176 105.969335,17.8842353 105.969335,15.0588235 C105.969335,13.5482353 106.696165,12.5411765 107.395691,11.7025882 C105.868596,12.6202353 104.123074,14.0357647 102.493356,15.7515294 L102.487707,15.7750588 C102.667532,17.1661176 102.806872,18.3981176 102.806872,19.4785882 C102.806872,27.7298824 99.1972021,31.7581176 97.2671489,31.7581176 C96.0639255,31.7581176 95.4199468,30.1637647 95.4199468,28.5411765 C95.4199468,25.6734118 96.8538351,22.3915294 98.8648564,19.4051765 Z M147.062521,16.2908235 L147.056872,16.2898824 C146.579537,16.9778824 146.289559,17.6357647 146.289559,18.1910588 C146.289559,18.7510588 146.401596,19.0870588 146.737707,19.0870588 C147.044633,19.0870588 147.325197,18.6945882 147.325197,18.1637647 C147.325197,17.5303529 147.222574,16.8884706 147.062521,16.2908235 Z M120.153814,9.53411765 L120.153814,9.53411765 C121.338207,8.00376471 122.254277,5.96517647 122.254277,3.47858824 C122.254277,2.304 122.170484,1.632 121.55475,1.632 C119.977755,1.632 120.135926,7.472 120.153814,9.53411765 Z M113.655654,12.7727059 L113.65942,12.7651765 C113.360027,12.0630588 112.88834,11.5058824 112.23683,11.5058824 C111.957207,11.5058824 111.788681,11.6743529 111.788681,11.8983529 C111.788681,12.5195294 112.674622,12.7143529 113.655654,12.7727059 Z M100.508697,18.0912941 L100.502106,18.0884706 C98.3413883,20.928 96.7352074,24.2296471 96.7352074,27.3656471 C96.7352074,28.4009412 96.7352074,29.9397647 98.1625053,29.9397647 C99.9249734,29.9397647 101.156441,27.3101176 101.1555,23.6461176 C101.1555,21.9416471 100.857989,20.0056471 100.508697,18.0912941 Z M89.7540638,17.2630588 L89.7644202,17.2451765 C89.2776702,16.0592941 88.4227979,14.9185882 86.6904574,14.9185882 C86.2140638,14.9185882 85.9626862,15.3383529 85.9626862,15.8418824 C85.9626862,16.7651765 87.4172872,17.3524706 88.7607926,17.3524706 C89.0413564,17.3524706 89.3784096,17.3176471 89.7540638,17.2630588 Z M65.7922181,12.5383529 C65.530484,12.5938824 65.2678085,12.6249412 65.005133,12.6249412 C64.249117,12.6249412 63.8019096,12.3171765 63.8019096,11.8136471 C63.8019096,11.5905882 64.0532872,11.3101176 64.3338511,11.3110588 C64.9382872,11.3110588 65.4410426,11.8437647 65.7969255,12.528 L65.7922181,12.5383529 Z M53.0764628,16.2992941 C53.2355745,16.8950588 53.3363138,17.5331765 53.3363138,18.1637647 C53.3372553,18.6945882 53.0566915,19.0870588 52.7488245,19.0870588 C52.4136543,19.0870588 52.301617,18.7510588 52.301617,18.1910588 C52.301617,17.6385882 52.5887713,16.9835294 53.0623404,16.2992941 L53.0764628,16.2992941 Z M26.1658723,9.52470588 C26.147984,7.45411765 25.9926383,1.632 27.565867,1.632 C28.1816011,1.632 28.2653936,2.304 28.2653936,3.47858824 C28.2653936,5.96141176 27.3530904,7.99811765 26.1705798,9.52752941 L26.1658723,9.52470588 Z M19.6705372,12.7727059 C18.6885638,12.7152941 17.8007394,12.5204706 17.8007394,11.8983529 C17.8007394,11.6743529 17.9683245,11.5068235 18.2488883,11.5058824 C18.9013404,11.5058824 19.3739681,12.0649412 19.6724202,12.7698824 L19.6705372,12.7727059 Z M6.37764894,17.3628235 C5.99540426,17.8428235 5.62351596,18.3369412 5.26763298,18.8404706 L5.26575,18.8404706 C3.52681915,17.1407059 2.13153191,13.4851765 2.13153191,10.4988235 C2.13153191,3.08705882 7.05646277,0.989176471 7.30784043,0.989176471 C7.67219681,0.989176471 7.55921809,1.07294118 7.55921809,1.57647059 C7.55921809,2.33129412 5.43333511,5.856 5.43333511,10.8065882 C5.43333511,12.5449412 5.92290957,14.8988235 6.38141489,17.3392941 L6.37764894,17.3628235 Z M6.51981383,18.0847059 C6.86910638,20.0018824 7.16755851,21.9397647 7.16755851,23.6461176 C7.16755851,27.3101176 5.93703191,29.9397647 4.17362234,29.9397647 C2.74726596,29.9397647 2.74726596,28.4009412 2.74726596,27.3665882 C2.74726596,24.2277647 4.35532979,20.9242353 6.51793085,18.0837647 L6.51981383,18.0847059 L6.51981383,18.0847059 Z" id="Fill-2"></path>
                        </g>
                    </g>
                </g>
            </g>
        </g>
    </g>
</svg>