<?xml version="1.0" encoding="UTF-8"?>
<svg width="250px" height="32px" viewBox="0 0 250 32" version="1.1" xmlns="http://www.w3.org/2000/svg" xmlns:xlink="http://www.w3.org/1999/xlink">
    <!-- Generator: Sketch 47.1 (45422) - http://www.bohemiancoding.com/sketch -->
    <title>Kimberly-Clark</title>
    <desc>Created with Sketch.</desc>
    <defs></defs>
    <g id="HiFi" stroke="none" stroke-width="1" fill="none" fill-rule="evenodd">
        <g id="Homepage---Desktop" transform="translate(-277.000000, -919.000000)">
            <g id="Brands-we-ship" transform="translate(0.000000, 446.000000)">
                <g id="Logos-row-3" transform="translate(127.000000, 453.000000)">
                    <g id="Stacked-Group">
                        <g id="Kimberly-Clark" transform="translate(150.000000, 20.000000)">
                            <polyline id="Fill-2" fill="#484269" points="55.6659255 4.58933333 61.6058138 4.58933333 52.3308298 13.2066667 59.3788564 25.388 53.4389681 25.388 48.605883 16.4146667 46.0037606 18.792 45.1065691 25.388 40.34825 25.388 43.1813457 4.58933333 47.9396649 4.58933333 46.786133 13.0573333 55.6659255 4.58933333"></polyline>
                            <path d="M68.221266,10.2946667 L66.1652021,25.388 L61.783383,25.388 L63.8394468,10.2946667 L68.221266,10.2946667 Z M64.5296968,4.58933333 L69.0850798,4.58933333 L68.6044415,8.12533333 L64.0477234,8.12533333 L64.5296968,4.58933333 L64.5296968,4.58933333 Z" id="Fill-3" fill="#484269"></path>
                            <path d="M75.0222979,10.2946667 L74.7218989,12.4933333 C76.7926489,9.99733333 78.5296223,9.72933333 79.5963723,9.72933333 C82.4802021,9.72933333 83.2839362,11.6613333 83.4801968,12.76 C85.6724415,9.99733333 87.6697606,9.72933333 88.9100745,9.72933333 C91.1583936,9.72933333 93.7485,10.8293333 93.0155266,16.2066667 L91.7645319,25.388 L87.3827128,25.388 L88.5923191,16.504 C88.7738936,15.1666667 88.9581383,12.76 86.9114202,12.76 C85.8446702,12.76 84.1237181,13.532 83.6911436,16.712 L82.5095745,25.388 L78.1264202,25.388 L79.3373617,16.504 C79.6123936,14.484 79.529617,12.76 77.6270904,12.76 C76.6457872,12.76 74.8647553,13.5626667 74.4361862,16.712 L73.2532819,25.388 L68.8714628,25.388 L70.9275266,10.2946667 L75.0222979,10.2946667" id="Fill-4" fill="#484269"></path>
                            <path d="M99.3773085,25.388 L95.3132447,25.388 L98.1463404,4.58933333 L102.52816,4.58933333 L101.545521,11.8093333 C102.728426,10.532 104.452048,9.72933333 106.239755,9.72933333 C110.13159,9.72933333 112.634915,12.5226667 111.917963,17.7813333 C111.076846,23.9626667 107.115585,25.9533333 104.087564,25.9533333 C101.896654,25.9533333 100.876633,25.18 99.7110851,23.576 L99.6256383,23.576 L99.3773085,25.388 Z M103.231761,22.9213333 C105.134287,22.9213333 106.884612,21.288 107.354569,17.8413333 C107.452032,17.128 107.988745,12.76 104.616266,12.76 C102.597585,12.76 100.974096,14.3053333 100.492122,17.8413333 C99.9500691,21.8226667 101.675027,22.9213333 103.231761,22.9213333 L103.231761,22.9213333 Z" id="Fill-5" fill="#484269"></path>
                            <path d="M129.150181,21.02 C127.327761,25.508 123.202282,25.9533333 120.867181,25.9533333 C116.051452,25.9533333 113.355872,23.308 114.103532,17.8106667 C114.755064,13.028 118.174271,9.72933333 123.422574,9.72933333 C130.054048,9.72933333 130.120803,15.3746667 129.83509,18.1093333 L129.750979,18.94 L118.505378,18.94 C118.291761,20.724 118.857846,22.9213333 121.48133,22.9213333 C122.893872,22.9213333 124.198271,22.2386667 124.709617,21.02 L129.150181,21.02 Z M125.538718,16.4146667 C125.913883,13.028 123.845803,12.76 122.951282,12.76 C120.155569,12.76 119.172931,15.108 118.849835,16.4146667 L125.538718,16.4146667 L125.538718,16.4146667 Z" id="Fill-6" fill="#484269"></path>
                            <path d="M143.539957,12.76 C138.481239,12.2253333 137.406479,16.088 136.981915,19.208 L136.140798,25.388 L131.757644,25.388 L133.813707,10.2946667 L138.195527,10.2946667 L137.860415,12.76 C139.398457,10.1453333 141.704186,9.72933333 143.434484,9.72933333 L143.952505,9.72933333 L143.539957,12.76" id="Fill-7" fill="#484269"></path>
                            <polyline id="Fill-8" fill="#484269" points="151.200798 4.58933333 148.367702 25.388 143.985883 25.388 146.818979 4.58933333 151.200798 4.58933333"></polyline>
                            <path d="M152.648053,27.8546667 C153.031229,28.0026667 153.455793,28.0626667 154.032559,28.0626667 C155.417064,28.0626667 155.983149,27.0826667 156.454441,25.9533333 L156.756176,25.2106667 L152.41708,10.2946667 L157.69342,10.2946667 L159.75616,20.1293333 L163.718755,10.2946667 L168.390293,10.2946667 L161.120638,26.1906667 C160.011165,28.6266667 158.858968,31.1533333 155.283553,31.1533333 C154.188766,31.1533333 153.04725,31.064 152.235505,30.8853333 L152.648053,27.8546667" id="Fill-9" fill="#484269"></path>
                            <polyline id="Fill-10" fill="#484269" points="168.391628 14.6546667 176.380904 14.6546667 175.894926 18.368 167.905649 18.368 168.391628 14.6546667"></polyline>
                            <path d="M195.953564,18.0493333 C195.331404,20.6933333 193.314059,25.9826667 186.125846,25.9826667 C181.703973,25.9826667 176.896255,24.0506667 178.029761,15.3746667 C178.724016,10.056 181.423601,3.99466667 188.832106,3.99466667 C195.191218,3.99466667 196.881463,7.976 196.567713,11.6613333 L192.088431,11.6613333 C192.124479,8.42266667 189.934904,8.036 188.526367,8.036 C184.351489,8.036 183.280734,12.8493333 182.97366,15.1973333 C182.511713,18.732 183.502362,21.9413333 186.848138,21.9413333 C189.972287,21.9413333 191.083096,19.356 191.419543,18.0493333 L195.953564,18.0493333" id="Fill-11" fill="#484269"></path>
                            <polyline id="Fill-12" fill="#484269" points="204.37408 4.58933333 201.657138 25.388 197.455559 25.388 200.1725 4.58933333 204.37408 4.58933333"></polyline>
                            <path d="M206.754574,15.1666667 C207.168457,12.6413333 208.874723,9.72933333 214.072293,9.72933333 C220.679734,9.72933333 219.986814,13.9786667 219.775867,15.3746667 L218.793229,22.268 C218.571601,23.7533333 218.420734,24.9133333 219.249835,25.1213333 L219.215122,25.388 L214.791915,25.388 L214.626362,23.9026667 L214.543585,23.9026667 C212.79059,25.8933333 210.184463,25.9533333 209.575654,25.9533333 C205.428814,25.9533333 205.032287,23.2786667 205.253915,21.5853333 C205.695835,18.1973333 208.256569,17.2173333 211.996202,16.7413333 C214.834638,16.3853333 215.387372,16.3853333 215.600989,15.1666667 C215.621016,15.0186667 215.637037,14.9 215.655729,14.752 C215.698452,14.424 215.86,12.76 213.649064,12.76 C213.068293,12.76 211.070973,12.82 210.763899,15.1666667 L206.754574,15.1666667 Z M215.233835,18.1973333 C213.852,18.8213333 213.978835,18.7026667 212.363356,19 C211.630383,19.1186667 209.849351,19.416 209.619713,21.1693333 C209.450154,22.476 210.607691,22.9213333 211.547606,22.9213333 C212.350005,22.9213333 214.694452,22.328 215.10967,19.1493333 L215.233835,18.1973333 L215.233835,18.1973333 Z" id="Fill-13" fill="#484269"></path>
                            <path d="M233.221723,12.76 C228.369947,12.2253333 227.34058,16.088 226.933372,19.208 L226.125633,25.388 L221.924053,25.388 L223.89467,10.2946667 L228.097585,10.2946667 L227.774489,12.76 C229.249782,10.1453333 231.460718,9.72933333 233.11892,9.72933333 L233.616915,9.72933333 L233.221723,12.76" id="Fill-14" fill="#484269"></path>
                            <polyline id="Fill-15" fill="#484269" points="244.631543 10.2946667 249.690261 10.2946667 243.357851 16.236 248.216303 25.388 243.212324 25.388 240.106867 19.1186667 238.463351 20.6933333 237.849202 25.388 233.647622 25.388 236.364564 4.58933333 240.566144 4.58933333 239.07216 16.0293333 244.631543 10.2946667"></polyline>
                            <path d="M4.50998936,9.19066667 L10.7863245,9.23733333 C11.9652234,9.90933333 13.9865745,12.2653333 14.156133,13.4426667 C14.3243564,9.57333333 14.0693511,4.59066667 14.0693511,4.59066667 L20.2201862,4.52666667 L20.3884096,13.4426667 C21.5673085,10.7506667 23.4538138,9.19066667 23.4538138,9.19066667 L29.9904947,9.23733333 C26.6220213,12.7693333 23.5993404,16.66 26.9584681,16.8066667 C30.6647234,16.9746667 31.6753989,16.8066667 31.6753989,16.8066667 L31.6219947,21.6 C31.6219947,21.6 26.4524628,21.5173333 24.6006702,21.5173333 C22.7475426,21.5173333 20.7248564,20.676 20.3884096,19.8346667 C20.3884096,22.6946667 20.3884096,25.3866667 20.3884096,25.3866667 L14.156133,25.3866667 L14.156133,19.6666667 C13.3136809,21.3493333 10.4498777,21.5173333 10.4498777,21.5173333 L2.85846277,21.5133333 L2.86914362,16.8066667 C2.86914362,16.8066667 6.06939362,16.8066667 7.58607447,16.8066667 C9.10142021,16.8066667 9.94387234,15.7973333 8.59675,14.1146667 C7.24962766,12.4333333 4.50998936,9.19066667 4.50998936,9.19066667 L4.50998936,9.19066667 M0.34312234,16.1333333 C0.510010638,21.1813333 5.05871809,29.76 17.1881596,29.9293333 C29.316266,30.0973333 34.3696436,21.5173333 34.5392021,15.2933333 C34.7074255,9.06933333 28.6433723,0.846666667 17.356383,0.993333333 C4.89049468,1.16266667 0.17356383,11.088 0.34312234,16.1333333 L0.34312234,16.1333333" id="Stroke-16" stroke="#484269" stroke-width="0.648" stroke-linecap="round" stroke-linejoin="round"></path>
                        </g>
                    </g>
                </g>
            </g>
        </g>
    </g>
</svg>