<?xml version="1.0" encoding="UTF-8"?>
<svg width="188px" height="32px" viewBox="0 0 188 32" version="1.1" xmlns="http://www.w3.org/2000/svg" xmlns:xlink="http://www.w3.org/1999/xlink">
    <!-- Generator: Sketch 47.1 (45422) - http://www.bohemiancoding.com/sketch -->
    <title>Kraft</title>
    <desc>Created with Sketch.</desc>
    <defs></defs>
    <g id="HiFi" stroke="none" stroke-width="1" fill="none" fill-rule="evenodd">
        <g id="Homepage---Desktop" transform="translate(-743.000000, -801.000000)">
            <g id="Brands-we-ship" transform="translate(0.000000, 446.000000)">
                <g id="Logos-row-2" transform="translate(97.000000, 335.000000)">
                    <g id="Stacked-Group">
                        <g id="Kraft" transform="translate(646.000000, 20.000000)">
                            <path d="M83.5555556,14.8347826 C83.5518286,13.0711865 83.5518286,11.3054696 83.5555556,9.53998826 C82.0557088,9.52891277 80.5588901,9.53268315 79.0588104,9.53645353 C79.0553165,7.61073101 79.0515895,5.68500848 79.0667301,3.76470588 C77.0835502,3.77389619 75.0971093,3.77036146 73.1155599,3.76847626 L73.1155599,9.53268315 L70.648348,9.53268315 C70.6446211,11.2981644 70.648348,13.0655309 70.648348,14.8347826 L73.111833,14.8347826 L73.111833,14.838553 L73.1155599,14.838553 C73.121849,16.4510982 73.1136964,18.063879 73.1127647,19.6766598 L73.111833,19.6766598 C73.1109012,19.8109797 73.111833,19.9455352 73.111833,20.0789124 C73.111833,20.1792989 73.1109012,20.2813348 73.1109012,20.3817212 L73.111833,20.3817212 C73.111833,21.3224315 73.1146281,22.2614922 73.1269735,23.2022025 C73.1768209,25.7427329 74.0908446,28.4656555 76.2058638,29.9587268 C78.0674534,31.3045174 80.3867537,31.5566617 82.6124154,31.5272056 C80.7818057,29.5970057 79.6830672,26.7774671 79.2416618,24.5128815 L79.2286176,24.4476068 L79.220465,24.3804468 C79.1603686,23.8832277 79.0862964,23.0862633 79.094449,22.2431116 C79.0802401,22.0626046 79.0702241,21.8839828 79.0625373,21.7072461 C79.0562482,21.2489091 79.0562482,20.791279 79.0543847,20.3338845 C79.0462321,18.5003007 79.0648666,16.669309 79.0588104,14.838553 C80.5551632,14.8420877 82.0557088,14.8420877 83.5555556,14.8347826" id="Fill-1" fill="#1B3D6A"></path>
                            <path d="M69.4209129,5.58341176 C69.4094122,3.81682353 69.4094122,2.05117647 69.4209129,0.284588235 C66.462436,-0.212588235 63.0554347,-0.0158823529 60.6848979,2.03376471 C58.5643236,3.94364706 58.1472499,6.98223529 58.2232949,9.69376471 L58.16321,9.69376471 L55.6323685,9.69376471 C55.635185,11.4584706 55.635185,13.2241176 55.6323685,14.9897647 L57.820773,14.9897647 C57.9597194,14.9888235 58.0986657,14.9878824 58.237612,14.9878824 L58.237612,14.9897647 L58.2493473,14.9897647 L58.2493473,17.8838824 L58.2401938,17.8838824 C58.2448879,22.2158824 58.2467655,26.5502353 58.237612,30.8829412 L61.0219366,30.8829412 C62.1220065,30.8829412 63.2237194,30.8829412 64.3237893,30.8794118 C64.3209728,26.4822353 64.318391,22.0862353 64.3247281,17.6909412 L64.3247281,14.9841176 L68.3844484,14.9841176 C68.3802237,13.2175294 68.3802237,11.4537647 68.3844484,9.69 L64.2949203,9.69 C64.3491376,8.49894118 64.2120689,7.07329412 65.1903261,6.19 C66.368788,5.19917647 68.0107955,5.52082353 69.4209129,5.58341176" id="Fill-3" fill="#1B3D6A"></path>
                            <path d="M47.3040325,30.7344087 L50.0198907,30.7344087 C50.5337846,30.7344087 51.0476784,30.7334673 51.5622794,30.7344087 L53.278402,30.7344087 C53.2418637,26.1947564 53.3142331,21.6560456 53.2418637,17.1145106 C53.1944817,14.4503568 52.1820166,11.4955466 49.6377706,10.2451359 C46.0002037,8.43977158 41.7372421,8.84692583 37.8559292,9.46754188 C37.8420211,11.3943464 37.8521575,13.3239751 37.8495645,15.2554867 C40.3461928,14.7132419 43.0695944,14.1495804 45.5419424,15.0735617 C46.6920745,15.4689485 47.1222838,16.6786438 47.3002608,17.7727825 C45.5709373,17.5557905 43.8163906,17.1439293 42.0719803,17.4969532 C40.0041469,17.7516011 37.9549363,18.7619556 36.7859457,20.5324882 C34.9000967,23.3493837 35.4382708,27.6096763 38.2312132,29.6449769 C40.8527789,31.6400327 44.6612509,31.4249234 47.3257198,29.6193238 C47.3219481,29.8968006 47.3118116,30.4522249 47.3040325,30.7344087 M47.0527431,26.1479219 C45.5051683,26.6240335 43.6164906,27.1516866 42.1962106,26.0716688 C40.8996894,25.1587489 41.0677657,22.9596453 42.4724875,22.2406532 C43.9066756,21.4849467 45.5815452,21.7497146 47.1041325,22.0511971 C47.2417995,23.4155168 47.2307201,24.7890152 47.0527431,26.1479219" id="Fill-6" fill="#1B3D6A"></path>
                            <path d="M16.2105786,2.11764706 C18.6306063,2.13221571 21.050634,2.12140671 23.4706617,2.12140671 C19.9251759,6.90438889 16.4597955,11.7489354 12.8929951,16.5138242 C16.0691058,21.2756584 19.1946236,26.0652199 22.3960307,30.8089608 C19.8858258,30.8272891 17.3749182,30.8014415 14.8679925,30.8235294 C12.0722656,26.5664285 9.26880918,22.3128523 6.48643315,18.0484672 C6.47964058,22.305568 6.47964058,26.5626689 6.49018077,30.8197698 C4.32686526,30.8089608 2.16331552,30.8162451 0,30.8162451 C0.00772947293,21.2538054 0.00772947293,11.6911307 0,2.12869104 C2.16331552,2.11764706 4.32405454,2.12869104 6.48643315,2.11764706 C6.4824513,6.63181413 6.47589296,11.1459812 6.49018077,15.6610882 C9.71665016,11.136817 12.9761455,6.63557378 16.2105786,2.11764706" id="Fill-8" fill="#1B3D6A"></path>
                            <path d="M23.9400749,9.68661241 C25.9605922,9.67648857 27.9843628,9.68661241 30.0085982,9.67648857 C30.0013945,11.0283735 29.998606,12.3802585 29.9765301,13.7304954 C30.956696,11.4900675 33.0771354,10.0315291 35.431346,9.64705882 C35.4355287,11.6536969 35.4603931,13.6643374 35.4064816,15.6709754 C32.8261683,15.9836371 30.1742829,17.9332991 30.0804026,20.7550235 C30.0085982,24.1081314 30.0662276,27.4675962 30.062742,30.8235294 C28.020846,30.8235294 25.9782529,30.8235294 23.9400749,30.8199978 C23.9437929,23.7733386 23.9437929,16.7304464 23.9400749,9.68661241" id="Fill-10" fill="#1B3D6A"></path>
                            <path d="M132.617624,26.6261645 C131.765322,26.9697216 131.594441,27.1406771 130.572194,27.4823529 C129.549011,27.82591 128.354713,27.82591 127.33153,27.4823529 C124.091802,26.1135332 126.138168,21.1443013 126.138168,21.1443013 C139.439077,17.8907383 137.563592,10.6955576 133.981867,10.3529412 C131.765322,10.3529412 123.750741,10.6955576 119.999071,19.9454964 C119.487831,21.3159622 115.906106,31.0801784 123.921857,31.7647059 C125.626225,31.7647059 127.502412,31.5937504 129.20795,30.737562 C130.743076,29.8816087 131.936438,28.8528188 132.958685,27.4823529 C133.811922,25.9409316 132.617624,26.6261645 132.617624,26.6261645 M130.743076,12.9222118 C131.765322,13.2648283 129.20795,18.4031345 129.20795,18.4031345 C128.184768,18.7466916 127.160648,19.0902486 126.479229,19.0902486 C126.82029,18.4031345 128.695774,11.8943625 130.743076,12.9222118" id="Fill-12" fill="#E1282F"></path>
                            <path d="M163.758679,28.4389376 C163.588185,28.26827 163.246493,28.26827 163.075295,28.0968981 C162.050219,27.41188 162.903863,25.5319539 163.075295,24.5048963 L166.150523,13.5612751 C166.321955,12.8762571 167.517291,9.28519433 162.732665,9.96833433 C158.633299,10.6533524 155.728331,13.2182966 155.728331,13.2182966 C156.070961,12.1931171 156.412653,10.6533524 155.728331,10.3113129 C154.874453,9.96833433 149.920272,11.508099 148.723998,12.5342176 C148.383009,12.5342176 147.87012,13.047629 148.383009,13.5612751 C148.894258,14.2444151 149.066628,14.7571223 148.723998,15.9546127 C148.041317,18.0068498 145.992104,25.1889753 145.478276,26.5571334 C144.96609,27.9252914 144.282706,30.4911747 145.478276,31.3459213 C146.332858,32.0300003 149.920272,30.4911747 150.433396,30.1481961 C150.945347,29.9777633 151.457534,29.6366628 151.627793,29.4650561 C152.312115,28.7800381 151.287039,28.4389376 152.312115,24.8469358 C152.312115,24.6755639 153.507685,21.0845012 154.361564,18.0068498 C155.045886,15.4412013 157.436791,14.2444151 158.291607,14.0730433 C159.658375,13.9023756 159.317621,15.1001008 159.146189,15.9546127 C157.950619,19.7172821 156.583851,25.360582 156.070961,26.72874 C155.557837,28.0968981 154.704194,30.8332142 156.070961,31.3459213 C157.266297,32.2013722 162.732665,29.8070956 163.246493,29.4650561 C164.270865,28.7800381 164.270865,28.4389376 163.758679,28.4389376" id="Fill-14" fill="#E1282F"></path>
                            <path d="M143.2082,28.4090422 C142.86395,28.2372955 142.69076,28.2372955 142.517806,28.0648402 C141.483162,27.3754911 142.172609,25.4836791 142.517806,24.4501279 L145.79777,13.4373158 C145.969776,12.232018 146.66017,10.6836993 145.79777,10.1668056 C144.761231,9.82165861 139.75623,11.3711585 138.548396,12.4037646 C138.375442,12.4037646 137.857054,12.9204221 138.375442,13.4373158 C138.893593,14.1247749 138.893593,14.6407237 138.548396,15.8457852 C138.030245,17.9109976 135.613629,25.3112237 135.095478,26.6880319 C134.578985,28.0648402 133.887644,30.8184566 135.441622,31.3344053 C136.64922,32.1952649 141.827412,29.9575971 142.517806,29.4416484 C143.72564,28.9249909 143.72564,28.4090422 143.2082,28.4090422" id="Fill-16" fill="#E1282F"></path>
                            <path d="M141.940413,7.81338733 C142.28707,8.50211933 145.406033,7.12560074 146.967536,6.26409486 C147.14027,6.09250274 147.833822,5.57536286 148.006556,5.05845933 C148.354165,3.85353286 148.527137,3.33757474 148.69987,2.47606886 C148.873794,2.13170286 148.873794,1.61550839 148.354165,1.44297087 C147.660851,1.2711424 143.500965,1.78828228 142.460042,3.50916686 C142.114098,4.19789886 140.900441,7.46996674 141.940413,7.81338733" id="Fill-18" fill="#E1282F"></path>
                            <path d="M187.822139,19.7332471 C187.310479,17.8480706 184.231832,17.3334824 183.036237,18.3619529 C182.351363,19.0466588 182.009395,20.4179529 182.180027,20.7617176 C185.087338,19.9050118 185.599702,22.4758353 185.087338,23.5033647 C184.061435,25.0466588 183.719468,25.5614824 182.351363,25.5614824 L173.289575,25.5614824 C173.118943,25.3894824 172.947607,25.2177176 173.289575,24.8748941 C173.802174,24.1899529 182.69333,12.0210118 183.036237,11.5052471 C183.206868,11.1624235 183.719468,10.3059529 182.521995,10.3059529 L172.604701,10.3059529 C171.579737,10.3059529 171.066199,10.6478353 170.211867,11.5052471 C169.527932,12.3628941 168.673365,14.9327765 168.160062,16.6478353 C168.160062,16.6478353 168.160062,17.3334824 169.186903,16.4767765 C169.3573,16.3040706 169.698329,15.6193647 170.211867,15.6193647 L176.196886,15.6193647 C178.076416,15.6193647 168.160062,25.0466588 165.083058,30.0172471 C164.569755,30.8748941 165.424087,30.8748941 165.937625,30.8748941 L178.932626,30.8748941 C182.180027,30.8748941 181.668367,31.3885412 183.3775,28.9887765 C183.3775,28.9887765 188.676706,22.1330118 187.822139,19.7332471" id="Fill-20" fill="#E1282F"></path>
                            <path d="M116.406367,25.3443949 L120.003818,11.4995994 C122.401414,3.12463365 123.772006,2.78184545 124.629213,1.92757313 L118.975874,1.92757313 C116.920927,1.92757313 115.377482,4.83294365 115.035775,6.71370356 L112.636298,15.430519 L107.497284,15.430519 C107.497284,15.430519 110.58041,4.32075566 110.923999,3.12463365 C111.094735,2.61127254 111.094735,1.92757313 110.067732,1.92757313 C109.895114,1.92757313 99.1027609,1.58572343 95.6758106,2.78184545 C94.133777,3.29497194 91.9073882,4.66260536 91.2216218,6.71370356 C90.7077674,7.91052945 90.0220011,10.1322006 91.5647402,14.234397 C91.7361818,14.7458811 92.0783594,15.0886693 92.2495658,15.2592422 C92.7631851,15.6020304 97.2171387,14.9180964 97.0464026,14.9180964 C97.3895209,14.9180964 97.5607274,14.7458811 97.2171387,14.0631202 C96.874961,13.2079094 95.8479577,11.6701723 95.6758106,10.1322006 C94.9907498,4.14924425 99.273497,3.29497194 99.9585578,3.12463365 C100.986972,2.95312224 101.843945,2.95312224 102.870948,3.12463365 C103.214067,3.12463365 104.070334,3.29497194 104.24154,3.63776014 C104.585129,4.32075566 104.070334,5.51664305 103.728156,6.88404185 C103.385508,7.91052945 100.473353,18.5071663 99.616145,21.4125368 C99.1027609,23.6351464 96.874961,28.4201037 94.6481018,29.1038031 C94.133777,29.2753145 93.4489514,29.2753145 92.7631851,29.1038031 C92.0783594,28.9334648 91.3925931,28.5906766 90.8789739,28.2497654 C89.5083819,26.8823666 88.6511739,24.1473344 88.4804379,22.0962362 C88.3089963,19.5327154 88.8235562,17.6531286 88.3089963,17.6531286 C87.4153365,17.6531286 84.4295719,18.8297767 83.218898,19.6969534 C83.2170166,19.6988304 83.2151352,19.6988304 83.2132538,19.7004728 C82.7224464,20.050769 82.6902277,20.1185758 82.6902277,20.1185758 C82.6657696,20.142273 82.646015,20.1671434 82.6328453,20.1899021 C82.3167719,20.7269604 82.3384079,22.6389255 82.4844507,23.8054847 C82.9987755,26.3690055 84.3693675,29.2753145 86.4250203,30.6427133 C91.9073882,34.4021215 101.501297,27.566066 102.5283,26.8823666 C104.070334,25.5149678 105.098748,23.6351464 105.441396,22.2677476 C105.955721,20.5584991 106.811988,17.6531286 106.811988,17.6531286 L111.951002,17.6531286 C111.951002,17.6531286 109.895114,25.3443949 109.381495,27.2232778 C108.867876,28.7619534 108.524287,31.3254742 109.895114,31.1551359 C115.035775,31.1551359 117.091663,29.2753145 117.262634,29.1038031 C117.43337,28.9334648 117.43337,28.5906766 117.262634,28.4201037 C116.920927,28.2497654 115.721071,27.0527049 116.406367,25.3443949" id="Fill-23" fill="#E1282F"></path>
                        </g>
                    </g>
                </g>
            </g>
        </g>
    </g>
</svg>