<?xml version="1.0" encoding="UTF-8"?>
<svg width="177px" height="32px" viewBox="0 0 177 32" version="1.1" xmlns="http://www.w3.org/2000/svg" xmlns:xlink="http://www.w3.org/1999/xlink">
    <!-- Generator: Sketch 47.1 (45422) - http://www.bohemiancoding.com/sketch -->
    <title>L_Oreal</title>
    <desc>Created with Sketch.</desc>
    <defs></defs>
    <g id="HiFi" stroke="none" stroke-width="1" fill="none" fill-rule="evenodd">
        <g id="Homepage---Desktop" transform="translate(-97.000000, -801.000000)" fill="#1A1919">
            <g id="Brands-we-ship" transform="translate(0.000000, 446.000000)">
                <g id="Logos-row-2" transform="translate(97.000000, 335.000000)">
                    <g id="Stacked-Group">
                        <g id="L_Oreal" transform="translate(0.000000, 20.000000)">
                            <polyline id="Fill-2" points="23.4807447 26.0602353 23.4807447 29.8014118 0.0885 29.8014118 0.0885 4.08376471 4.29978191 4.08376471 4.29978191 26.0602353 23.4807447 26.0602353"></polyline>
                            <polyline id="Fill-3" points="20.2053032 13.4352941 24.8835638 4.55152941 20.439734 4.55152941 16.9308032 13.4352941 20.2053032 13.4352941"></polyline>
                            <path d="M58.450484,8.30588235 C56.9337447,5.92094118 54.7174787,3.91435294 52.1086117,2.54776471 C49.4997447,1.18117647 46.4982766,0.452705882 43.495867,0.452705882 C40.4934574,0.452705882 37.4910479,1.18117647 34.8821809,2.54776471 C32.2733138,3.91435294 30.0579894,5.92094118 28.54125,8.30588235 C27.0235691,10.6917647 26.2044734,13.4569412 26.2044734,16.2230588 C26.2044734,18.9891765 27.0235691,21.7543529 28.54125,24.1402353 C30.0579894,26.5261176 32.2733138,28.5317647 34.8821809,29.8983529 C37.4910479,31.2658824 40.4934574,31.9943529 43.495867,31.9943529 C46.4982766,31.9943529 49.4997447,31.2658824 52.1086117,29.8983529 C54.7174787,28.5317647 56.9337447,26.5261176 58.450484,24.1402353 C59.9681649,21.7543529 60.7863191,18.9891765 60.7863191,16.2230588 C60.7863191,13.4569412 59.9681649,10.6917647 58.450484,8.30588235 Z M54.8106862,22.5204706 C53.6780745,24.3915294 52.0219947,25.9698824 50.0684043,27.0465882 C48.1138723,28.1232941 45.8618298,28.6983529 43.6088457,28.6983529 C41.3558617,28.6983529 39.1038191,28.1232941 37.1492872,27.0465882 C35.1947553,25.9698824 33.539617,24.3915294 32.4070053,22.5204706 C31.2743936,20.6494118 30.6661915,18.4837647 30.6661915,16.3190588 C30.6661915,14.1534118 31.2743936,11.9887059 32.4070053,10.1176471 C33.539617,8.24564706 35.1947553,6.66823529 37.1492872,5.59152941 C39.1038191,4.51388235 41.3558617,3.93976471 43.6088457,3.93976471 C45.8618298,3.93976471 48.1138723,4.51388235 50.0684043,5.59152941 C52.0219947,6.66823529 53.6780745,8.24564706 54.8106862,10.1176471 C55.9423564,11.9887059 56.5515,14.1534118 56.5515,16.3190588 C56.5515,18.4837647 55.9423564,20.6494118 54.8106862,22.5204706 L54.8106862,22.5204706 Z" id="Fill-4"></path>
                            <path d="M90.1504309,15.1745882 C89.3906489,16.8498824 87.9492287,17.8183529 86.822266,18.4037647 C85.6953032,18.9901176 84.8827979,19.1934118 84.0646436,19.1632941 L92.2518351,29.8014118 L87.5735745,29.8014118 L79.6556489,19.5143529 L69.3275106,19.5143529 L69.3275106,29.8014118 L65.1171702,29.8014118 L65.1171702,4.08376471 L81.9594734,4.08376471 C83.6607447,4.08376471 85.3883777,4.41976471 86.910766,5.27623529 C88.4340957,6.13270588 89.7521809,7.43341176 90.3716809,9.27529412 C90.9911809,11.1171765 90.9111543,13.4992941 90.1504309,15.1745882 Z M85.4411011,14.9985882 C86.3289255,14.2484706 86.8533351,13.0164706 86.8072021,11.7948235 C86.7620106,10.5731765 86.1462766,9.36188235 85.2650426,8.624 C84.3838085,7.88611765 83.2577872,7.82494118 82.1929628,7.82494118 L69.3275106,7.82494118 L69.3275106,15.7741176 L82.1929628,15.7741176 C83.3302819,15.7741176 84.5542181,15.7487059 85.4411011,14.9985882 L85.4411011,14.9985882 Z" id="Fill-5"></path>
                            <polyline id="Fill-6" points="114.472867 15.0729412 114.472867 18.5788235 100.204596 18.5788235 100.204596 26.0602353 119.385559 26.0602353 119.385559 29.8014118 95.9942553 29.8014118 95.9942553 4.08376471 119.385559 4.08376471 119.385559 7.82494118 100.204596 7.82494118 100.204596 15.0729412 114.472867 15.0729412"></polyline>
                            <polyline id="Fill-7" points="114.707298 0.110117647 108.391787 0.110117647 105.818697 3.38258824 114.707298 0.110117647"></polyline>
                            <path d="M127.632064,23.2545882 L124.29825,29.8014118 L120.08791,29.8014118 L133.186851,4.08376471 L137.397191,4.08376471 L150.496133,29.8014118 L146.285793,29.8014118 L142.951979,23.2545882 L127.632064,23.2545882 Z M135.292021,8.21741176 L129.299441,19.9821176 L141.284601,19.9821176 L135.292021,8.21741176 L135.292021,8.21741176 Z" id="Fill-8"></path>
                            <polyline id="Fill-9" points="175.993548 26.0602353 175.993548 29.8014118 152.601303 29.8014118 152.601303 4.08376471 156.811644 4.08376471 156.811644 26.0602353 175.993548 26.0602353"></polyline>
                            <path d="M174.169883,9.24517647 L174.134106,8.63058824 C174.127516,8.51764706 174.136931,8.40470588 174.091739,8.27670588 C174.046548,8.14964706 173.966521,8.00941176 173.884612,7.91717647 C173.801761,7.82588235 173.716085,7.78258824 173.624761,7.77223529 C173.797053,7.712 173.949574,7.59341176 174.058787,7.41741176 C174.168941,7.24235294 174.235787,7.00894118 174.232021,6.75952941 C174.229197,6.50917647 174.153878,6.24282353 174.021128,6.04517647 C173.733973,5.62447059 173.228394,5.552 172.785894,5.57364706 L170.922686,5.57364706 L170.922686,9.87011765 L171.64575,9.87011765 L171.64575,8.10541176 L172.725638,8.10541176 C172.844266,8.10541176 173.041037,8.08941176 173.237809,8.24282353 C173.498601,8.55058824 173.382798,8.95529412 173.428931,9.29882353 C173.432697,9.504 173.452468,9.69788235 173.538144,9.87011765 L174.349707,9.87011765 L174.349707,9.73741176 C174.200952,9.67717647 174.187771,9.46258824 174.169883,9.24517647 Z M173.27641,7.35247059 C173.051394,7.49647059 172.820729,7.49647059 172.659734,7.49364706 L171.640101,7.49364706 L171.640101,6.18541176 C172.084484,6.19105882 172.533574,6.16658824 172.975133,6.20235294 C173.148367,6.224 173.349846,6.32188235 173.451527,6.54117647 C173.544734,6.82541176 173.5485,7.13035294 173.27641,7.35247059 L173.27641,7.35247059 Z" id="Fill-10"></path>
                            <path d="M175.743112,5.89552941 C175.426771,5.34776471 174.963559,4.88470588 174.415612,4.56847059 C173.867665,4.25223529 173.234984,4.08282353 172.602303,4.08282353 C171.968681,4.08282353 171.336,4.25223529 170.788053,4.56847059 C170.240106,4.88470588 169.776894,5.34776471 169.460553,5.89552941 C169.144213,6.44329412 168.974745,7.07576471 168.974745,7.70729412 C168.974745,8.33976471 169.144213,8.97223529 169.460553,9.52 C169.776894,10.0677647 170.240106,10.5308235 170.788053,10.8461176 C171.336,11.1623529 171.968681,11.3317647 172.602303,11.3317647 C173.234984,11.3317647 173.867665,11.1623529 174.415612,10.8461176 C174.963559,10.5308235 175.426771,10.0677647 175.743112,9.52 C176.059452,8.97223529 176.22892,8.33976471 176.22892,7.70729412 C176.22892,7.07576471 176.059452,6.44329412 175.743112,5.89552941 Z M175.308144,9.28376471 C175.038878,9.74870588 174.645335,10.1421176 174.179298,10.4094118 C173.713261,10.6776471 173.17567,10.8216471 172.63808,10.8216471 C172.100489,10.8216471 171.561957,10.6776471 171.096862,10.4094118 C170.630824,10.1421176 170.237282,9.74870588 169.968016,9.28376471 C169.69875,8.81976471 169.554702,8.28235294 169.554702,7.74588235 C169.554702,7.20941176 169.69875,6.67294118 169.968016,6.208 C170.237282,5.744 170.630824,5.35058824 171.096862,5.08235294 C171.561957,4.81505882 172.100489,4.67105882 172.63808,4.67105882 C173.17567,4.67105882 173.713261,4.81505882 174.179298,5.08235294 C174.645335,5.35058824 175.038878,5.744 175.308144,6.208 C175.576468,6.67294118 175.720516,7.20941176 175.720516,7.74588235 C175.720516,8.28235294 175.576468,8.81976471 175.308144,9.28376471 L175.308144,9.28376471 Z" id="Fill-11"></path>
                        </g>
                    </g>
                </g>
            </g>
        </g>
    </g>
</svg>