<?xml version="1.0" encoding="UTF-8"?>
<svg width="120px" height="87px" viewBox="0 0 120 87" version="1.1" xmlns="http://www.w3.org/2000/svg" xmlns:xlink="http://www.w3.org/1999/xlink">
    <!-- Generator: Sketch 47.1 (45422) - http://www.bohemiancoding.com/sketch -->
    <title>mccormick-company-seeklogo.com</title>
    <desc>Created with Sketch.</desc>
    <defs>
        <path d="M0.00363693975,6.18383261 C-0.0604641234,2.25223772 15.5945157,0.796016642 27.4475297,0.192830879 L27.4475297,11.4852226 C13.519187,12.1164688 3.39053709,9.61168769 0.306184866,6.74189729 C0.180483135,6.63975754 0.0538721701,6.4199887 0.00363693975,6.18383261 Z" id="path-1"></path>
        <path d="M13.5552937,1.56349425 C16.6660483,1.44369316 20.7919994,1.14599197 25.84745,0.2006443 L18.3362462,13.5884157 L26.1547539,26.8214815 C22.274512,27.7679551 16.6504265,28.2322969 13.4133581,28.3410637 C10.8473593,28.4433 0.193041308,29.5228609 0.193041308,26.3416016 C0.193041308,25.9506717 0.30417954,25.6311271 0.474680764,25.3532426 C0.91521665,24.848817 1.76727643,24.3270518 3.51848469,24.3270518 C4.35090559,24.3245747 5.78164295,24.3245747 9.07517315,25.5442038 C10.4797997,26.2794492 12.3872264,26.4483417 13.1812622,25.9175688 C13.4562066,25.7326878 13.5771642,25.4797994 13.5485986,25.1422396 C13.5485986,25.1244496 13.5552937,1.81232921 13.5552937,1.56349425 Z" id="path-3"></path>
        <path d="M78.2802447,1.42077764 C83.9890937,0.612888919 89.206714,0.21540676 93.5842166,0.21540676 C99.7865392,0.21540676 104.300544,1.01286526 106.123119,2.56402068 C106.706846,3.06285739 107.01667,3.63788006 107.040019,4.28659453 L107.032161,28.0187509 C107.032161,28.0187509 106.465048,26.4508164 103.725573,26.0102529 C99.7932745,25.0615562 91.7602946,24.6856147 78.2595898,26.2292876 C72.0889231,26.9312869 66.5798884,27.6246699 61.7019522,28.2420937 C49.4210121,29.7971038 39.7149811,31.0224281 28.3630648,31.271393 C15.7404199,31.5439392 4.20126199,29.291238 0.929023787,25.9118461 C0.280188904,25.2359223 -0.0287373235,24.5495684 0.00359216544,23.8450749 L0.00359216544,1.25774874 C2.33221341,4.04261803 12.5377799,7.15422537 27.6810024,6.35336571 C48.8476127,5.24821566 60.8580178,3.87936238 78.2802447,1.42077764 Z" id="path-5"></path>
    </defs>
    <g id="HiFi" stroke="none" stroke-width="1" fill="none" fill-rule="evenodd">
        <g id="Homepage---Desktop" transform="translate(-602.000000, -655.000000)">
            <g id="Brands-we-ship" transform="translate(0.000000, 446.000000)">
                <g id="Logos-row-1" transform="translate(128.000000, 209.000000)">
                    <g id="Stacked-Group">
                        <g id="mccormick-company-seeklogo.com" transform="translate(474.000000, 0.000000)">
                            <path d="M0.296972589,57.490424 C3.32133916,60.4317757 13.2566643,62.9990161 26.9191578,62.3497284 L26.9191578,50.7780497 C15.2901517,51.3962766 -0.0637930489,52.891341 0.000199372682,56.9184434 C0.0470230958,57.1604883 0.170548537,57.3884983 0.296972589,57.490424" id="Fill-1" fill="#CF393F"></path>
                            <g id="Group-5" transform="translate(0.000000, 50.778050)">
                                <mask id="mask-2" fill="white">
                                    <use xlink:href="#path-1"></use>
                                </mask>
                                <g id="Clip-4"></g>
                                <polygon id="Fill-3" mask="url(#mask-2)" points="0 36.1417595 120.973027 36.1417595 120.973027 -50.6042999 0 -50.6042999"></polygon>
                            </g>
                            <polygon id="Fill-6" fill="#FFFFFE" points="20.4819679 74.1242795 90.1206587 74.1242795 90.1206587 1.75096723 20.4819679 1.75096723"></polygon>
                            <polyline id="Fill-7" fill="#CACFDE" points="87.7798624 71.5059009 87.7798624 4.36912149 90.1206587 1.75096723 90.1206587 74.1242795 87.7798624 71.5059009"></polyline>
                            <polyline id="Fill-8" fill="#EDEFF2" points="87.5022186 4.08559021 23.1057994 4.08559021 20.4819679 1.75096723 90.1206587 1.75096723 87.5022186 4.08559021"></polyline>
                            <polyline id="Fill-9" fill="#AFB9D0" points="23.1024298 71.7896565 87.4990736 71.7896565 90.1206587 74.1242795 20.4819679 74.1242795 23.1024298 71.7896565"></polyline>
                            <polyline id="Fill-10" fill="#BCC4D6" points="20.4819679 74.1242795 20.4819679 1.75096723 22.8227642 4.36912149 22.8227642 71.5059009 20.4819679 74.1242795"></polyline>
                            <path d="M28.6747551,14.399181 L37.5805129,7.32053964 L44.6799609,12.6711671 L51.6059114,7.12660426 L58.548739,12.4858209 L65.2469599,7.00386893 L72.5646863,12.5190476 L72.5646863,26.673844 L63.0148947,33.9984081 L63.0148947,16.3444117 C63.0148947,16.3444117 62.8517485,13.6453646 58.8847077,13.6731665 L58.8847077,54.86364 L49.5448684,54.86364 L49.5448684,16.4538111 C49.5448684,16.4538111 49.2939608,13.7581545 45.3280452,13.7866345 L45.3280452,54.86364 L35.4443102,54.86364 L35.4443102,18.6458686 C35.4443102,18.6458686 35.4872908,13.4647651 28.6747551,14.399181" id="Fill-11" fill="#1B4B84"></path>
                            <path d="M77.8124399,25.097197 L63.2015009,36.4525272 L63.2015009,47.3098127 L72.9405625,54.86364 L84.853867,45.2934916 L84.5485925,44.9116871 C84.5485925,44.9116871 81.0542496,47.6931819 78.3043207,47.7188889 C75.5575205,47.7387839 72.1820693,45.6247763 72.1391611,40.509088 C72.0870901,35.3898232 72.065189,31.1086057 72.065189,31.1086057 C72.065189,31.1086057 75.828379,34.6787458 78.1201727,34.651027 C80.4173299,34.6353793 82.5732474,32.5848568 84.7318466,30.3968578 L77.8124399,25.097197" id="Fill-12" fill="#D72633"></path>
                            <path d="M20.5339002,74.0573419 L90.0622221,74.0573419 L90.0622221,1.81141075 L20.5339002,1.81141075 L20.5339002,74.0573419 Z M18.7263706,0 L18.7263706,75.8730074 L91.876256,75.8752467 L91.876256,0 L18.7263706,0 L18.7263706,0 Z" id="Fill-13" fill="#1B4B84"></path>
                            <path d="M70.2881439,13.0357283 C70.4255275,13.1421543 70.5364642,13.2724306 70.6151029,13.4240821 L72.5646863,12.495273 L64.9570982,7.00386893 L65.004609,9.50341853 C65.2849933,9.50341853 65.546186,9.59656945 65.7514423,9.75182097 L70.2881439,13.0357283" id="Fill-14" fill="#8A99BC"></path>
                            <path d="M45.0603294,54.2799842 L43.0047707,52.2063679 C42.7939896,52.4143551 42.5079296,52.5445984 42.1924221,52.5445984 L38.2052937,52.5445984 C37.891779,52.5445984 37.6077116,52.4185997 37.4002516,52.2126232 C37.1872564,52.0032956 37.0550754,51.7070647 37.0550754,51.3851426 L37.0595036,18.4974811 C37.0619391,18.2264946 37.0214213,15.8101798 35.0513264,14.0616132 C33.4972586,12.6774152 30.9023483,12.1220381 28.6747551,14.2863555 C35.3776829,13.3637058 35.3351724,18.4845237 35.3351724,18.4845237 L35.3351724,54.2799842 L45.0603294,54.2799842" id="Fill-15" fill="#24365F"></path>
                            <path d="M42.9170231,14.1216332 C43.0677143,14.243664 43.1961469,14.4103232 43.2751652,14.5913936 L44.4751303,13.0886718 L37.4527413,7.58752467 L37.4825679,10.1601658 C37.7338683,10.1601658 37.967807,10.247563 38.1565606,10.3905134 L42.9170231,14.1216332" id="Fill-16" fill="#8A99BC"></path>
                            <path d="M70.9215434,25.422693 C70.9215434,25.6054629 70.8831444,25.7777186 70.809089,25.9336435 L72.5646863,26.8481642 L72.5646863,12.8404264 L70.809089,13.7661326 C70.8831444,13.9229523 70.9215434,14.0972213 70.9215434,14.2844654 L70.9215434,25.422693" id="Fill-17" fill="#8A99BC"></path>
                            <path d="M43.6841912,14.7936123 C43.6841912,14.6184649 43.6355297,14.446019 43.5621592,14.29496 L44.9191353,12.8404264 L45.6455285,13.9518693 L45.6455285,54.86364 L43.3047321,52.7715518 C43.5409801,52.559709 43.6864604,52.2661458 43.6864604,51.9435415 L43.6841912,14.7936123" id="Fill-18" fill="#8A99BC"></path>
                            <path d="M71.9794872,27.0854532 L70.1374077,26.1579693 C70.0674441,26.3090342 69.9757829,26.4274364 69.8500256,26.5358583 L66.2900741,29.2992566 C66.0890395,29.4750453 65.8268974,29.5857355 65.5408437,29.5857355 C65.359514,29.5857355 65.1870405,29.5424121 65.0329434,29.4639309 C64.6530145,29.2715841 64.3888798,28.8710127 64.3888798,28.4055696 L64.3930865,16.7132397 C64.3930865,16.6581214 64.390651,16.605725 64.3842303,16.5501531 C64.2989899,15.6020283 63.7290965,14.0739142 62.1841409,13.1643494 C60.85284,12.3779502 58.8269953,13.162308 58.5199083,14.0389832 C62.4230356,14.0088156 62.5833319,16.7195907 62.5833319,16.7195907 L62.5833319,34.4356889 L71.9794872,27.0854532" id="Fill-19" fill="#24365F"></path>
                            <path d="M58.5199083,54.86364 L56.4459213,52.7778026 C56.2356852,52.9870156 55.9468061,53.1180265 55.6270953,53.1180265 L52.1395442,53.1180265 C51.8243017,53.1180265 51.5378802,52.9912852 51.3296548,52.7840947 C51.1136099,52.5710616 50.9802295,52.2755567 50.9802295,51.9517373 L50.9779953,16.5163229 C50.8919795,15.5761006 50.314668,14.0646438 48.7565526,13.1608259 C47.4120246,12.3828504 45.3666351,13.1590282 45.0603294,14.0266664 C48.9987375,13.9970036 49.2469546,16.6778955 49.2469546,16.6778955 L49.2469546,54.86364 L58.5199083,54.86364" id="Fill-20" fill="#24365F"></path>
                            <path d="M57.1458805,14.5132497 C57.1458805,14.3487244 57.1045753,14.1893545 57.0363209,14.0445543 L58.7283233,12.8404264 L59.1051074,14.016984 L59.1051074,54.86364 L56.764311,52.7830898 C57.0005567,52.5730622 57.1483991,52.2814445 57.1483991,51.9595667 L57.1458805,14.5132497" id="Fill-21" fill="#8A99BC"></path>
                            <path d="M56.5695355,12.935806 C56.7536704,13.0565506 56.9007051,13.2251957 56.9906103,13.4240821 L58.5199083,12.2376064 L51.4975193,7.00386893 L51.5189144,9.48387908 C51.780436,9.48387908 52.0219281,9.56577349 52.2192642,9.70726762 L56.5695355,12.935806" id="Fill-22" fill="#8A99BC"></path>
                            <path d="M65.4390711,47.2851299 C65.1577479,47.0678713 64.9800941,46.7326853 64.9800941,46.3555443 L64.9800941,37.6341303 L63.2015009,36.7703119 L63.2015009,47.7822394 L73.1498853,55.4472957 L73.1183735,52.8837348 C72.8391054,52.8837348 72.583357,52.7873518 72.3819551,52.629964 L65.4390711,47.2851299" id="Fill-23" fill="#942F28"></path>
                            <path d="M78.9002287,47.3328509 C78.9363113,47.3259719 78.9684337,47.3173177 79.0018762,47.3111044 C78.6819726,47.3756783 78.3620691,47.4185056 78.0558065,47.4202808 C75.3504874,47.4420274 72.0286828,45.3437099 71.9864397,40.2634561 C71.9340758,35.1836461 71.9103141,30.9337544 71.9103141,30.9337544 C71.9103141,30.9337544 70.4571071,31.7184045 70.2238899,34.1702138 C70.2456715,36.8670044 70.2729535,40.2761046 70.2729535,40.2761046 C70.319377,45.4970451 73.3800223,48.8750788 76.8109549,49.0270825 C77.5198471,48.4534625 78.2423803,47.8680817 78.9002287,47.3328509" id="Fill-24" fill="#DD7969"></path>
                            <path d="M73.3335504,52.0736976 C73.127309,52.243305 72.8573789,52.3442672 72.5646863,52.3442672 L72.5977952,54.86364 L84.853867,45.3221619 L84.5404813,44.9414923 C84.5404813,44.9414923 81.6418358,47.1775917 79.0007047,47.6503084 L73.3335504,52.0736976" id="Fill-25" fill="#D2574E"></path>
                            <path d="M81.4993822,30.5385902 L81.4993822,30.5669283 C81.4993822,30.9112794 81.3135772,31.2219254 81.0544042,31.4284502 C80.0261165,32.2414538 79.0164548,32.7592686 78.1126428,32.7652797 C77.4123533,32.773867 76.0149541,31.9123451 74.6291394,30.958939 C73.1792697,29.9638844 71.9794872,31.0353661 71.9794872,31.0353661 C71.9794872,31.0353661 75.8043903,34.4640644 78.1337674,34.4355116 C80.468596,34.4204838 82.6598686,32.4507695 84.853867,30.3500987 L81.4993822,30.5385902" id="Fill-26" fill="#942F28"></path>
                            <g id="Group-30" transform="translate(77.246279, 25.097197)">
                                <path d="M3.40377486,4.77993753 C3.68246895,4.98549009 3.86555267,5.3114153 3.8766281,5.68082709 L7.21440241,5.4860341 L0.216536046,0.171704753 L0.223090895,2.37517436 L3.40377486,4.77993753" id="Fill-27" fill="#DD7969"></path>
                                <path d="M34.6193219,46.9233673 L42.2267892,33.5992129 C37.1051919,34.5402267 32.9297531,34.8365631 29.7759666,34.9582807 C29.7759666,35.2035092 29.7691857,58.4087565 29.7691857,58.4311722 C29.8017339,58.7642705 29.6778699,59.0142063 29.3969155,59.1959981 C28.5931554,59.7265793 26.6642216,59.558461 25.2418193,58.8265863 C21.9060793,57.6125485 20.4533891,57.6150143 19.6139164,57.6150143 C17.8368742,57.6150143 16.9738945,58.1343875 16.5313291,58.6365006 C16.3532181,58.9131112 16.2458542,59.2336566 16.2458542,59.6203285 C16.2458542,62.7870035 27.0344575,61.7123918 29.6319859,61.6106242 C32.9109926,61.5023561 38.6080605,61.0379015 42.5380315,60.0980085 L34.6193219,46.9233673" id="Fill-29" fill="#CF393F"></path>
                            </g>
                            <g id="Group-33" transform="translate(93.631853, 58.365574)">
                                <mask id="mask-4" fill="white">
                                    <use xlink:href="#path-3"></use>
                                </mask>
                                <g id="Clip-32"></g>
                                <polygon id="Fill-31" mask="url(#mask-4)" points="-92.6151938 28.5991315 26.1547539 28.5991315 26.1547539 -58.4201439 -92.6151938 -58.4201439"></polygon>
                            </g>
                            <path d="M106.827216,82.9505323 C106.362631,82.3974865 105.4938,81.702585 103.884329,81.4286979 C102.229991,80.9980986 99.1023305,80.4924978 93.6318532,80.5488088 L93.6318532,85.0874744 C93.759382,84.7992101 93.9914535,83.1918309 96.925279,83.1918309 C97.6643714,83.1918309 99.0400027,83.1566066 102.348679,84.4706894 C104.216965,85.5269397 107.227042,85.5882828 107.086694,83.7923217 C107.061277,83.4896801 106.969775,83.2110006 106.827216,82.9505323" id="Fill-34" fill="#CF393F"></path>
                            <path d="M93.6318532,80.5488059 L93.6318532,85.0874743 C93.7620447,84.7992098 93.9939136,83.1918296 96.9255419,83.1918296 C97.6646933,83.1918296 99.0417607,83.1566053 102.351585,84.4706889 C104.218031,85.5269399 107.227464,85.588283 107.086663,83.7923208 C107.06478,83.4848866 106.973271,83.2109993 106.828491,82.9505309 C106.366079,82.3974848 105.496957,81.704979 103.88559,81.4286956 C102.313346,81.0220581 99.4124415,80.5444927 94.4353267,80.5444927 C94.1749438,80.5444927 93.9066036,80.5444927 93.6318532,80.5488059" id="Fill-35"></path>
                            <g id="Group-39" transform="translate(0.000000, 55.447296)" fill="#CF393F">
                                <path d="M78.2813673,1.41987067 C60.8571198,3.87936238 48.8462656,5.24821566 27.6821249,6.35336571 C12.5366574,7.15422537 2.33333596,4.04261803 0.0022451034,1.25774874 L0.0022451034,23.8450749 C-0.0298598752,24.5495684 0.279066353,25.2341084 0.927901235,25.9091251 C4.20058846,29.2891973 15.7390729,31.5464334 28.3621667,31.271393 C39.7161036,31.0201607 49.4221347,29.7971038 61.7028503,28.2420937 C66.5785413,27.622856 72.0902702,26.9312869 78.2582427,26.2292876 C91.7593965,24.6856147 99.7946216,25.0595155 103.726696,26.0102529 C106.466395,26.4508164 107.033284,28.0187509 107.033284,28.0187509 L107.041366,4.28659453 C107.015548,3.63992076 106.707744,3.06195041 106.124242,2.56492765 C103.012304,-0.0820813129 92.0773032,-0.533755278 78.2813673,1.41987067" id="Fill-37"></path>
                            </g>
                            <g id="Group-42" transform="translate(0.000000, 55.447296)">
                                <mask id="mask-6" fill="white">
                                    <use xlink:href="#path-5"></use>
                                </mask>
                                <g id="Clip-41"></g>
                                <polygon id="Fill-40" mask="url(#mask-6)" points="0 31.5174102 119.483729 31.5174102 119.483729 -56.1023506 0 -56.1023506"></polygon>
                            </g>
                            <path d="M82.0790041,54.1580426 L82.0790041,52.9972989 L82.2586936,52.9972989 L82.4410191,53.0036478 C82.5763354,53.0209429 82.6672785,53.0275106 82.7399891,53.0564088 C82.8559745,53.1069807 82.9242916,53.1868885 82.9706419,53.297446 C82.9956842,53.3705671 83.0196281,53.5032361 83.0216052,53.6980799 C83.0378607,53.8922669 83.0598276,54.0498934 83.0844306,54.1580426 L83.9024792,54.1580426 L83.8785352,54.0584315 C83.8721648,54.0207763 83.8603026,53.9874996 83.8603026,53.9638556 C83.8539322,53.9277329 83.8539322,53.8922669 83.8539322,53.8640255 L83.8539322,53.5761383 C83.8539322,53.2466552 83.7539827,52.9972989 83.5589163,52.8471159 C83.4572094,52.776184 83.3010245,52.7164173 83.0844306,52.6763539 C83.3034409,52.6430772 83.501363,52.5703939 83.6500791,52.4528309 C83.8093394,52.3339542 83.887322,52.1296966 83.887322,51.8709265 C83.887322,51.5156102 83.7454156,51.2605618 83.4486423,51.0998704 C83.2773003,51.0048567 83.0681751,50.954066 82.8091849,50.9358951 C82.7733788,50.9315166 82.5361359,50.9315166 82.1407312,50.9315166 C81.737638,50.9251678 81.4351533,50.9251678 81.2403066,50.9251678 L81.2403066,54.1580426 L82.0790041,54.1580426 Z M83.0464278,51.9269715 C83.0464278,52.1051769 82.9934875,52.2273375 82.8755251,52.3046182 C82.7733788,52.393502 82.6066498,52.4153946 82.4137801,52.4153946 L82.0790041,52.4153946 L82.0790041,51.4991908 L82.2868113,51.4991908 C82.4983528,51.4991908 82.6609081,51.5156102 82.7777722,51.5600521 C82.9535077,51.6298894 83.0464278,51.7498606 83.0464278,51.9269715 L83.0464278,51.9269715 Z M85.4390661,52.5303305 C85.4390661,51.725122 85.1592074,51.0372577 84.5838934,50.4689267 C84.0077008,49.897093 83.3216735,49.6107383 82.5157067,49.6107383 C81.7400543,49.6107383 81.0777513,49.8806736 80.5011193,50.4100358 C79.8915369,50.9672015 79.5870753,51.6743313 79.5870753,52.5303305 C79.5870753,53.3580884 79.8642979,54.0452959 80.4275301,54.6048699 C80.9931786,55.1707926 81.6910681,55.4472957 82.5157067,55.4472957 C83.3034409,55.4472957 83.9912256,55.1753901 84.5665395,54.6199757 C85.1475649,54.0584315 85.4390661,53.3580884 85.4390661,52.5303305 L85.4390661,52.5303305 Z M82.5157067,50.1357219 C83.1775704,50.1357219 83.7454156,50.3763212 84.2177046,50.8535791 C84.6816462,51.3343398 84.9166924,51.8956651 84.9166924,52.5373362 C84.9166924,53.2046215 84.6816462,53.7757985 84.2091375,54.2464886 C83.7454156,54.7263736 83.1775704,54.9582158 82.5157067,54.9582158 C81.8501086,54.9582158 81.2870962,54.7263736 80.8231545,54.251086 C80.3508655,53.7779877 80.1103276,53.2107514 80.1103276,52.5373362 C80.1103276,51.8956651 80.3409804,51.3343398 80.804922,50.8535791 C81.270621,50.3763212 81.8483513,50.1357219 82.5157067,50.1357219 L82.5157067,50.1357219 Z" id="Fill-43" fill="#D72633"></path>
                            <path d="M102.975709,62.1172803 L102.975709,61.3039677 L103.094236,61.3039677 L103.229118,61.3164412 C103.318969,61.3248978 103.393526,61.3352571 103.432185,61.3557644 C103.518425,61.3832483 103.573865,61.4415988 103.601904,61.5206679 C103.621021,61.5709846 103.63674,61.6665441 103.647148,61.8045979 C103.651184,61.9460344 103.666265,62.0506847 103.683895,62.1172803 L104.252951,62.1172803 L104.226612,62.0568157 C104.2247,62.0297546 104.215991,62.0130528 104.215991,61.9855689 L104.215991,61.7168608 C104.215991,61.4834589 104.142708,61.3120015 104.011862,61.2039686 C103.941765,61.1492121 103.827487,61.1054493 103.696428,61.076274 C103.844268,61.057881 103.973203,61.0141181 104.07686,60.9303979 C104.183492,60.8449863 104.235108,60.7096809 104.235108,60.5240587 C104.235108,60.2714181 104.134212,60.0942525 103.932207,59.981357 C103.814955,59.9189897 103.666265,59.877341 103.483802,59.8686729 C103.454276,59.8686729 103.293055,59.8604278 103.018616,59.8604278 L102.387748,59.8604278 L102.387748,62.1172803 L102.975709,62.1172803 Z M103.651184,60.5678216 C103.651184,60.6821969 103.618684,60.7783907 103.53818,60.8280731 C103.456613,60.8845209 103.342335,60.9141189 103.196407,60.9141189 L102.975709,60.9141189 L102.975709,60.265287 L103.11484,60.265287 C103.269902,60.265287 103.383118,60.2714181 103.469145,60.3048216 C103.595956,60.3485844 103.651184,60.4403385 103.651184,60.5678216 L103.651184,60.5678216 Z M105.335835,60.9868456 C105.335835,60.4318819 105.13383,59.9523932 104.732581,59.5479568 C104.34089,59.1473258 103.85765,58.9492302 103.293055,58.9492302 C102.748214,58.9492302 102.282816,59.1369665 101.879868,59.4997542 C101.456528,59.898271 101.239441,60.3946729 101.239441,60.9868456 C101.239441,61.5667563 101.439747,62.0506847 101.831225,62.4422248 C102.226527,62.8386275 102.711679,63.0348204 103.293055,63.0348204 C103.844268,63.0348204 104.318799,62.8491982 104.718137,62.459138 C105.13383,62.061044 105.335835,61.5709846 105.335835,60.9868456 L105.335835,60.9868456 Z M103.293055,59.3118065 C103.749956,59.3118065 104.150993,59.4809383 104.486393,59.8166649 C104.807987,60.1570427 104.969422,60.5426632 104.969422,61.0016446 C104.969422,61.4665457 104.807987,61.8669652 104.478109,62.1967723 C104.150993,62.5341902 103.749956,62.6988823 103.293055,62.6988823 C102.829993,62.6988823 102.42662,62.5341902 102.09568,62.204806 C101.767714,61.8690794 101.606279,61.470774 101.606279,61.0016446 C101.606279,60.5426632 101.767714,60.1570427 102.093556,59.8166649 C102.424284,59.4809383 102.829993,59.3118065 103.293055,59.3118065 L103.293055,59.3118065 Z" id="Fill-44" fill="#FFFFFE"></path>
                            <path d="M31.5938669,73.9550515 L31.5938669,73.3217298 C31.5938669,72.4544495 30.4723091,71.7399209 28.2145086,71.7923718 C25.7641984,71.8445927 23.4079633,73.7187923 23.4079633,77.1230401 C23.4079633,79.8284026 25.1997483,81.7118042 27.9091089,81.7118042 C29.8282394,81.7118042 31.0743892,80.9926747 31.6007505,80.4932408 L31.6007505,79.2514426 C31.3088884,79.5419931 30.136163,80.2114322 28.8980439,80.2457094 C26.9277458,80.3046016 25.8899377,78.6595296 25.8899377,76.5285965 C25.8899377,73.746168 27.3737991,72.9791886 28.207625,72.9791886 C28.7101233,72.9791886 29.0123107,73.0380808 29.3066966,73.1517244 L29.3066966,74.712829 L31.5938669,73.9550515" id="Fill-45" fill="#FFFFFE"></path>
                            <path d="M42.719533,69.0932295 L42.719533,68.4992557 C42.719533,67.4535175 41.2407607,66.47277 38.5559259,66.5400251 C34.8211805,66.6095447 32.1859496,69.5717147 32.1859496,73.9163515 C32.1859496,77.7895229 34.4668357,80.5444927 38.2387284,80.5444927 C40.519837,80.5444927 41.8364515,79.6683643 42.4563881,79.0673706 L42.4563881,77.6670144 C42.1196159,78.0173299 40.7240357,78.8194097 39.2570526,78.8572265 C36.343106,78.9536935 35.1339293,76.1772111 35.1339293,73.1991898 C35.1339293,69.2404209 37.1316511,67.8201373 38.7249793,67.8201373 C39.3293452,67.8201373 39.6189603,67.9184158 39.9515062,68.1061414 L39.9515062,70.1296833 L42.719533,69.0932295" id="Fill-46" fill="#FFFFFE"></path>
                            <path d="M91.2844147,66.0220441 L91.2910569,65.5789825 C91.2910569,64.8510136 90.4923919,64.0503853 88.0567727,64.2268765 C85.4429598,64.4166618 83.0982698,66.3051177 83.0982698,69.6827467 C83.0982698,72.3803116 84.8843294,74.2071102 87.5870101,74.1213859 C89.5098071,74.0578949 90.7521241,73.2893559 91.2731917,72.7853246 L91.2731917,71.5434683 C90.9816229,71.8512964 89.8203863,72.5474052 88.5753209,72.629233 C86.6200001,72.7465882 85.573742,71.1389138 85.573742,69.0139138 C85.573742,66.248503 87.1609943,65.4254122 88.1144909,65.4254122 C88.5269933,65.4254122 88.8116909,65.4840898 89.0082079,65.59709 L89.0082079,66.8410092 L91.2844147,66.0220441" id="Fill-47" fill="#FFFFFE"></path>
                            <path d="M5.97764169,65.5258694 C8.21785988,65.0919361 11.2322561,65.2913589 13.2321027,69.7101947 C14.2858828,72.0410873 15.0262728,74.8803081 15.0262728,74.8803081 C15.0262728,74.8803081 16.4891382,71.0375332 17.3483534,69.0526325 C17.8245613,67.9487008 18.5393268,67.4843433 19.4094267,67.519431 C20.2182999,67.5591824 20.6133257,67.608927 21.5226561,67.692427 L21.5226561,68.5840556 L20.4709168,68.8316685 C20.4709168,68.8316685 21.1006452,78.0171086 21.1779723,78.8976335 C21.2473626,79.7392953 21.4117677,80.5192205 21.6523661,81.1281484 C20.8101583,81.04909 21.0067642,81.0690767 19.7105715,80.9220634 C18.9062336,80.8170222 18.6220962,79.6977674 18.5674457,78.99468 C18.3359179,75.8574353 18.0361337,70.6806597 18.0361337,70.6806597 C18.0361337,70.6806597 14.8260387,78.7972559 14.3493772,80.0395399 L14.3516449,80.0304348 L13.594701,79.848778 C12.6706309,76.3173514 11.4660515,72.1594529 10.27916,69.7626043 L9.73016023,79.4281691 L8.14620193,79.0686307 C8.14620193,79.0686307 8.71878528,72.8714234 8.88908631,70.463471 L8.98523496,68.761493 C8.60472214,66.9977783 6.12390556,66.5225392 4.09639358,67.0350868 L5.97764169,65.5258694" id="Fill-48" fill="#FFFFFE"></path>
                            <path d="M80.4245428,65.3694433 L77.2462789,66.8610372 L77.2567029,67.5665453 C77.402852,67.5977805 78.3616496,67.6244889 78.3616496,67.6244889 C78.3616496,67.6244889 78.3208044,72.9430736 78.3208044,73.7560942 C78.3208044,74.9885264 78.5707683,75.3547478 79.2317366,75.2829974 C79.6944356,75.220527 80.2915833,75.1711845 80.7574734,75.1268214 C80.5968583,74.7784811 80.4349669,74.0193299 80.4268829,73.3362297 L80.4245428,65.3694433" id="Fill-49" fill="#FFFFFE"></path>
                            <path d="M101.553076,72.8345079 C100.186656,71.5266767 98.560479,68.9967995 97.7099056,67.5404682 C99.2968784,65.6623787 100.072482,65.2072472 100.964553,64.860299 L100.950109,64.1090632 C99.9436352,64.1798415 97.4973769,64.2129908 97.4973769,64.2129908 C97.4973769,64.2129908 97.4907282,65.6623787 97.4973769,65.8240937 C96.9627308,66.4624426 96.2449018,67.3330608 95.311793,68.2831927 L95.3014761,59.5328859 L91.876256,60.6823618 L91.8932216,61.391489 C92.0413268,61.4378532 93.0670587,61.5572357 93.0670587,61.5572357 C93.0670587,61.5572357 93.0253325,71.0074863 93.0253325,71.8093421 C93.0319812,72.9720329 93.3476792,73.5635695 94.1480435,73.5019744 C94.660451,73.4793522 95.0265873,73.4556101 95.554814,73.4267165 C95.4248207,73.1261325 95.3161491,72.4676253 95.311793,71.6747289 L95.311793,69.6839764 C95.5424337,69.4275169 95.8363515,69.1538109 96.0083003,68.9967995 C96.6053065,70.0020309 98.0460082,72.2736569 98.9914973,73.2101258 C100.067897,74.2818799 101.146589,75.1636972 103.268437,75.291591 L104.750636,74.2021423 C103.701519,74.1779522 102.286724,73.619117 101.553076,72.8345079" id="Fill-50" fill="#FFFFFE"></path>
                            <path d="M79.6577319,63.6105701 C80.4267637,63.693423 81.2488162,63.1158827 81.3354936,62.3096683 C81.4203269,61.5074308 80.7405083,60.7884881 79.9733208,60.7080655 C79.2063638,60.6249916 78.5071811,61.2091602 78.4244226,62.0153746 C78.3446609,62.8107629 78.8896223,63.5365548 79.6577319,63.6105701" id="Fill-51" fill="#FFFFFE"></path>
                            <path d="M47.7105004,79.9340974 C45.1421573,80.1809541 43.3047321,78.7232147 43.3047321,75.3688539 C43.3047321,72.1643048 45.3645916,70.283743 47.6952503,70.0595989 C50.1152312,69.8423374 52.0827184,71.3154481 52.0827184,74.6062593 C52.0827184,77.7071102 50.1152312,79.7104122 47.7105004,79.9340974 M47.7209577,71.3154481 C46.5508354,71.4427766 45.7846243,72.9521357 45.7846243,75.1564103 C45.7846243,77.3833975 46.464781,78.7502863 47.7209577,78.6192871 C49.0265883,78.4832406 49.6627374,76.9240971 49.6627374,74.7535474 C49.6627374,72.5449139 48.9074193,71.1915609 47.7209577,71.3154481" id="Fill-52" fill="#FFFFFE"></path>
                            <path d="M59.2793061,68.3105224 C58.646139,68.3105224 57.3262812,68.753077 56.6795579,69.5763972 L56.6725461,68.2877221 L53.2531165,69.8737136 L53.2706461,70.5887322 C53.4192966,70.6204246 54.4037558,70.6110765 54.4037558,70.6110765 C54.4037558,70.6110765 54.3703328,74.4255731 54.3682292,76.7110789 C54.3588801,77.4979186 54.37267,78.3303589 55.2178277,78.1953809 L56.8660723,77.9753577 C56.8660723,77.9753577 56.7178892,77.4716982 56.7106437,76.5849931 C56.7106437,75.2445612 56.7129809,73.5646323 56.6956851,72.8829022 C56.6910106,72.5589094 56.6910106,72.2084682 56.688907,71.8393307 L56.6956851,71.8707952 C56.6956851,70.3817051 57.7042182,69.8737136 58.1482999,69.8664175 C58.2782523,69.8577533 58.6300118,69.9272944 58.6300118,70.240115 L58.6300118,71.4432888 L60.8607046,70.3502406 L60.8607046,70.1185892 C60.8607046,69.4480313 60.8088172,68.3105224 59.2793061,68.3105224" id="Fill-53" fill="#FFFFFE"></path>
                            <path d="M75.3181984,74.0991921 C75.3245614,71.9176099 75.3402417,68.4734229 75.3402417,68.4734229 C75.3402417,67.6190817 74.7187109,66.5367548 73.0009225,66.5367548 C72.3039444,66.5367548 70.5475234,66.9903076 69.8448641,68.2348845 C69.5421661,67.6516196 68.893138,67.150579 67.7241601,67.150579 C67.0885398,67.150579 65.5618692,67.5192693 64.7694459,68.527946 L64.7624011,67.2591855 L61.4459037,68.7858313 L61.4593115,69.4842982 C61.6040702,69.5060634 62.6205628,69.5060634 62.6205628,69.5060634 C62.6205628,69.5060634 62.5871569,74.672124 62.5871569,75.4613893 C62.5871569,76.0426755 62.5655681,76.5023841 62.5655681,77.0425582 C63.22255,76.9493414 64.0879209,76.8189697 64.8433024,76.7173985 L64.8433024,75.1511794 C64.8433024,75.1511794 64.8062605,72.8152618 64.7885349,71.6920427 C64.7814902,71.3688616 64.7814902,71.0155609 64.7814902,70.6444523 L64.7885349,70.6772101 C64.7885349,69.4363706 66.1424949,68.5600443 66.8285649,68.5600443 C67.4762295,68.5600443 67.8023344,68.8616799 67.8023344,69.2890704 L67.8023344,76.3827852 L70.058707,76.1013758 L70.0612068,70.0636058 L70.0612068,70.0655844 C70.0612068,68.8251847 71.4542539,67.9488583 72.1021458,67.9488583 C72.7579914,67.9488583 73.072961,68.2502741 73.072961,68.6840403 L73.072961,74.3403687 C73.072961,75.2578072 73.5092824,75.6695883 74.0737733,75.6001153 C74.4750981,75.5524077 75.0902659,75.4915089 75.4906817,75.4422623 C75.3934184,75.1753631 75.3181984,74.658713 75.3181984,74.0991921" id="Fill-54" fill="#FFFFFE"></path>
                        </g>
                    </g>
                </g>
            </g>
        </g>
    </g>
</svg>