<?xml version="1.0" encoding="UTF-8"?>
<svg width="125px" height="32px" viewBox="0 0 125 32" version="1.1" xmlns="http://www.w3.org/2000/svg" xmlns:xlink="http://www.w3.org/1999/xlink">
    <!-- Generator: Sketch 47.1 (45422) - http://www.bohemiancoding.com/sketch -->
    <title>Nestle</title>
    <desc>Created with Sketch.</desc>
    <defs></defs>
    <g id="HiFi" stroke="none" stroke-width="1" fill="none" fill-rule="evenodd">
        <g id="Homepage---Desktop" transform="translate(-127.000000, -919.000000)" fill="#1A1919">
            <g id="Brands-we-ship" transform="translate(0.000000, 446.000000)">
                <g id="Logos-row-3" transform="translate(127.000000, 453.000000)">
                    <g id="Stacked-Group">
                        <g id="Nestle" transform="translate(0.000000, 20.000000)">
                            <path d="M49.0412234,19.8753333 C49.0412234,13.3413333 44.3783245,8.04466667 38.1575798,8.04466667 C31.9375,8.04466667 26.8949468,13.3413333 26.8949468,19.8753333 C26.8949468,26.4086667 31.9375,31.706 38.1575798,31.706 C43.9414894,31.706 47.2599734,28.716 48.7240691,23.982 L43.5644947,23.964 C42.4242021,26.244 40.2566489,27.2693333 38.1575798,27.2693333 C35.3630319,27.2693333 33.0132979,24.9406667 32.3271277,21.78 L48.8962766,21.78 C48.9920213,21.16 49.0412234,20.5233333 49.0412234,19.8753333 Z M32.4242021,17.5466667 C33.2147606,14.5913333 35.4820479,12.4566667 38.1575798,12.4566667 C40.8364362,12.4566667 42.9933511,14.622 43.5159574,17.556 L32.4242021,17.5466667 L32.4242021,17.5466667 Z" id="Fill-2"></path>
                            <path d="M121.696144,23.9806667 C120.168883,23.9806667 118.936835,25.216 118.936835,26.7473333 C118.936835,28.2786667 120.168883,29.514 121.696144,29.514 C123.223404,29.514 124.455452,28.2786667 124.455452,26.7473333 C124.455452,25.216 123.223404,23.9806667 121.696144,23.9806667 Z M121.704122,29.27 C120.294548,29.27 119.21742,28.1453333 119.21742,26.7473333 C119.21742,25.3193333 120.27992,24.2246667 121.704122,24.2246667 C123.120346,24.2246667 124.175532,25.3273333 124.175532,26.74 C124.175532,28.138 123.113032,29.27 121.704122,29.27 L121.704122,29.27 Z" id="Fill-3"></path>
                            <path d="M116.504654,19.8753333 C116.504654,13.3413333 111.841755,8.04466667 105.621011,8.04466667 C99.4009309,8.04466667 94.3583777,13.3413333 94.3583777,19.8753333 C94.3583777,26.4086667 99.4009309,31.706 105.621011,31.706 C111.40492,31.706 115.007314,29.1433333 116.1875,23.982 L111.02859,23.964 C109.887633,26.244 107.719415,27.2693333 105.621011,27.2693333 C102.826463,27.2693333 100.476729,24.9406667 99.7905585,21.78 L116.359707,21.78 C116.455452,21.16 116.504654,20.5233333 116.504654,19.8753333 Z M99.887633,17.5466667 C100.678191,14.5913333 102.945479,12.4566667 105.621011,12.4566667 C108.299867,12.4566667 110.456782,14.622 110.979388,17.556 L99.887633,17.5466667 L99.887633,17.5466667 Z" id="Fill-4"></path>
                            <polyline id="Fill-5" points="69.6914894 0.66 18.6269947 0.66 18.6269947 21.954 18.5432181 21.954 5.80119681 0.66 0.0625 0.66 0.0625 31.0726667 5.90292553 31.0726667 5.90292553 11.0826667 5.98670213 11.0826667 18.2094415 31.0726667 24.4674202 31.0726667 24.4674202 5.02533333 69.7140957 5.02533333 69.6914894 0.66"></polyline>
                            <path d="M56.1043883,14.3873333 C56.1269947,13.4253333 57.1848404,11.642 60.3550532,11.642 C63.9654255,11.642 64.6901596,14.1933333 64.9401596,15.0446667 L69.8025266,15.0446667 C69.34375,9.34133333 64.3603723,7.68333333 60.0219415,7.68333333 C53.0964096,7.68333333 51.0525266,12.1513333 51.0525266,15.414 C51.0525266,23.7373333 65.1981383,20.3493333 65.1981383,24.9433333 C65.1981383,26.9113333 63.9654255,27.7186667 60.3477394,27.7186667 C56.6768617,27.7186667 55.5086436,25.8633333 55.5086436,23.9806667 L50.8291223,23.9806667 C50.9960106,29.9206667 55.512633,31.7726667 60.5605053,31.7726667 C64.9135638,31.7726667 70.5644947,30.506 70.5644947,24.0226667 C70.5644947,15.406 56.0013298,18.7333333 56.1043883,14.3873333" id="Fill-6"></path>
                            <path d="M78.5106383,0.61 L72.9547872,0.61 L72.9547872,9.10466667 L71.2779255,9.10466667 L71.2779255,13.2873333 L72.9547872,13.2873333 L72.9547872,22.8053333 C72.9547872,25.6913333 75.1994681,30.9426667 80.2473404,30.9426667 C81.2101064,30.9293333 83.7513298,30.8593333 83.7513298,30.8593333 L83.7513298,26.9006667 L82.5418883,26.8893333 C80.4514628,26.794 78.5106383,25.6533333 78.5106383,22.0486667 L78.5106383,13.2873333 L83.7513298,13.2873333 L83.7513298,9.10466667 L78.5106383,9.10466667 L78.5106383,0.61" id="Fill-7"></path>
                            <polygon id="Fill-8" points="86.2573138 31.0726667 92.0977394 31.0726667 92.0977394 0.66 86.2573138 0.66"></polygon>
                            <polyline id="Fill-9" points="115.196809 0.300666667 95.4760638 2.48733333 95.4760638 4.95866667 115.196809 4.95866667 115.196809 0.300666667"></polyline>
                            <path d="M122.139628,26.8806667 C122.605053,26.8066667 122.981383,26.5473333 122.981383,26.0146667 C122.981383,25.4233333 122.65625,25.1126667 121.918883,25.1126667 L120.694149,25.1126667 L120.694149,28.382 L120.974069,28.382 L120.974069,26.8733333 L121.822473,26.8733333 L122.803856,28.382 L123.113697,28.382 L122.139628,26.8806667 Z M121.667553,26.6253333 L120.974069,26.6253333 L120.974069,25.3526667 L121.87367,25.3526667 C122.265293,25.3526667 122.700133,25.5006667 122.700133,26.004 C122.700133,26.5733333 122.161569,26.6253333 121.667553,26.6253333 L121.667553,26.6253333 Z" id="Fill-10"></path>
                        </g>
                    </g>
                </g>
            </g>
        </g>
    </g>
</svg>