<?xml version="1.0" encoding="UTF-8"?>
<svg width="87px" height="38px" viewBox="0 0 87 38" version="1.1" xmlns="http://www.w3.org/2000/svg" xmlns:xlink="http://www.w3.org/1999/xlink">
    <!-- Generator: Sketch 47.1 (45422) - http://www.bohemiancoding.com/sketch -->
    <title>P&amp;G</title>
    <desc>Created with Sketch.</desc>
    <defs>
        <polygon id="path-1" points="0 0.681103256 0 36.8146214 37.6726433 36.8146214 37.6726433 0.681103256 1.04419019e-20 0.681103256"></polygon>
        <polygon id="path-3" points="34.7507957 0.263965378 34.7507957 37.3311628 0.752418518 37.3311628 0.752418518 0.263965378"></polygon>
    </defs>
    <g id="HiFi" stroke="none" stroke-width="1" fill="none" fill-rule="evenodd">
        <g id="Homepage---Desktop" transform="translate(-128.000000, -679.000000)">
            <g id="Brands-we-ship" transform="translate(0.000000, 446.000000)">
                <g id="Logos-row-1" transform="translate(128.000000, 209.000000)">
                    <g id="Stacked-Group">
                        <g id="P&amp;G" transform="translate(0.000000, 24.000000)">
                            <g id="Group-3" transform="translate(0.000000, 0.497952)">
                                <mask id="mask-2" fill="white">
                                    <use xlink:href="#path-1"></use>
                                </mask>
                                <g id="Clip-2"></g>
                                <path d="M36.5080212,13.4156009 C40.6108078,3.40018326 32.9422565,0.681103256 27.9326192,0.681103256 L11.3689182,0.693293023 C12.7480709,1.62581023 12.5200099,2.86840465 12.2495727,3.62264651 L2.59858565,34.141253 C2.21488842,35.3465163 0.768704274,36.6134902 -0.000231142911,36.8146214 L13.4068282,36.8146214 C12.6710232,36.6812958 11.6154706,35.6398326 11.9976269,34.2220102 L15.5032944,23.1895088 C15.5032944,23.1895088 31.6355286,25.3440502 36.5080212,13.4156009 L36.5080212,13.4156009 Z M23.4800362,3.48474977 C25.2351814,3.48474977 30.0891825,3.71406977 26.9633599,12.8106837 C23.6741963,22.3461293 16.3916536,20.387386 16.3916536,20.387386 L21.7495463,3.48474977 L23.4800362,3.48474977 Z" id="Fill-1" fill="#233E98" mask="url(#mask-2)"></path>
                            </g>
                            <path d="M47.2428373,37.3124972 L56.249706,37.3124972 C53.3611901,36.3830274 49.0966034,33.6982312 47.4007849,31.7737716 C48.7783967,30.2850963 50.4765266,28.4292042 50.7808648,24.6267586 L46.0932865,24.6267586 C46.0932865,24.6267586 47.0055306,25.1356814 47.0055306,26.2228563 C47.0055306,27.2307977 46.5956371,28.610527 45.8082103,29.5963744 C44.4375328,27.5888721 42.965923,25.296434 42.4635724,21.9320581 C44.2911423,21.0239205 46.8722381,20.0464535 48.9301805,18.2781753 C50.8656172,16.5891307 51.3148049,15.0090321 51.3494763,13.9645214 L51.3494763,13.8365288 C51.3494763,12.7554488 50.9180096,11.7383651 50.1275008,10.9658386 C48.7783967,9.62724977 46.6364724,9.09013814 44.4013204,9.50611395 C42.5914714,9.83904698 41.0582235,10.7913726 40.2923699,11.4968553 C37.5579493,14.0148042 37.2073826,18.1829428 37.2073826,20.0670237 C37.2073826,20.5149977 37.225874,20.873834 37.2428245,21.075727 C37.0879587,21.1313428 36.8121282,21.2440981 36.8121282,21.2440981 C34.8266106,21.9617707 29.5103236,23.368927 27.6087879,27.6886758 C27.3691698,28.2379772 27.0209145,29.4104805 27.0209145,30.7993521 C27.0209145,31.9840451 27.280565,33.305873 28.0479595,34.5141837 C29.3862769,36.5795874 31.6691984,37.8877019 35.301224,37.8191344 C39.2599316,37.7513288 43.1477554,35.0893884 43.8481184,34.6048451 C44.5323014,35.23338 46.3082494,36.8774749 47.2428373,37.3124972 M47.2281982,13.1904712 C46.7643715,16.0946833 42.9597591,19.0324172 42.034417,19.4308702 C41.8718465,17.7974414 41.9404189,15.2162581 43.3272764,13.1081902 C44.2341271,11.7094144 45.4499388,11.0984023 46.4307552,11.4351447 C47.2097068,11.7040814 47.3075573,12.4202302 47.2281982,13.1904712 M41.9404189,32.6262935 C41.4064788,32.9477986 39.3169469,34.0006898 37.3514616,34.1827744 C35.5346784,34.3473363 32.5013129,33.6525195 32.5090177,30.0504433 C32.5090177,26.9626228 35.8998842,24.7219912 37.7259132,23.9288944 C38.4863733,26.9222442 40.1606185,30.2850963 41.9404189,32.6262935" id="Fill-4" fill="#233E98"></path>
                            <g id="Group-8" transform="translate(51.621917, 0.497952)">
                                <mask id="mask-4" fill="white">
                                    <use xlink:href="#path-3"></use>
                                </mask>
                                <g id="Clip-7"></g>
                                <path d="M23.0276895,3.51888112 C28.3894346,2.247336 32.8073461,6.39947553 33.21801,6.67907833 L34.751258,1.86564391 C32.6201204,1.24091833 17.2375596,-3.91230586 6.37692472,8.3696467 C-0.309269215,15.9097797 -1.95038388,31.3884988 6.53024952,35.5330197 C15.6095431,39.9685713 25.6272768,34.8473453 26.355377,34.4907946 L30.5198018,21.439363 C30.9612847,19.8623118 31.9729202,18.8368476 33.7588844,18.1816476 L19.3494354,18.1816476 C21.4589997,19.0577872 21.3033634,20.6226486 21.1253834,21.258802 L16.9871548,34.3079481 C16.4416575,34.4199416 4.85754532,37.2632048 11.3449564,17.2323695 C12.7395186,12.9293816 16.6496862,5.03498344 23.0276895,3.51888112" id="Fill-6" fill="#233E98" mask="url(#mask-4)"></path>
                            </g>
                        </g>
                    </g>
                </g>
            </g>
        </g>
    </g>
</svg>