<?xml version="1.0" encoding="UTF-8"?>
<svg width="105px" height="40px" viewBox="0 0 105 40" version="1.1" xmlns="http://www.w3.org/2000/svg" xmlns:xlink="http://www.w3.org/1999/xlink">
    <!-- Generator: Sketch 47.1 (45422) - http://www.bohemiancoding.com/sketch -->
    <title>Topco</title>
    <desc>Created with Sketch.</desc>
    <defs></defs>
    <g id="HiFi" stroke="none" stroke-width="1" fill="none" fill-rule="evenodd">
        <g id="Homepage---Desktop" transform="translate(-785.000000, -679.000000)" fill="#3E4287">
            <g id="Brands-we-ship" transform="translate(0.000000, 446.000000)">
                <g id="Logos-row-1" transform="translate(128.000000, 209.000000)">
                    <g id="Stacked-Group">
                        <g id="Topco" transform="translate(657.000000, 24.000000)">
                            <path d="M20.9519277,33.7025316 L20.9519277,8.52101266 L20.9898795,8.52101266 C20.9898795,8.52101266 17.1542169,11.181519 14.1916988,12.4731646 C11.2294337,13.7650633 7.88739759,14.1455696 6.06444578,13.3853165 C4.24149398,12.6250633 2.72266265,11.5612658 3.02627711,9.43316456 C3.33014458,7.30506329 6.29266265,5.70911392 10.2421807,5.78531646 C14.1916988,5.86101266 22.9266867,7.83696203 26.2687229,8.06481013 C29.611012,8.29291139 33.8643976,6.46911392 34.9278072,5.17696203 C35.9912169,3.88506329 36.4468916,3.35316456 36.2191807,2.89696203 C35.9912169,2.44101266 34.5477831,3.04886076 30.6741687,2.74481013 C26.8005542,2.44101266 17.9896627,0.388860759 14.7996867,0.236962025 C11.6094578,0.0848101266 9.25416867,0.541265823 6.21625301,3.20126582 C3.17833735,5.86101266 -0.0118915663,9.43291139 0.216072289,12.0931646 C0.443783133,14.7531646 2.57060241,16.8810127 3.70991566,17.4131646 C4.84922892,17.9453165 7.9633012,18.5531646 10.1660241,16.8812658 C12.369,15.2093671 14.951241,13.9931646 14.951241,13.9931646 L14.951241,33.7341772 L20.9519277,33.7025316" id="Fill-1"></path>
                            <path d="M35.7445301,27.1602532 C35.7445301,29.1331646 34.146,30.7324051 32.1745301,30.7324051 C30.2028072,30.7324051 28.6045301,29.1331646 28.6045301,27.1602532 L28.6045301,17.4324051 C28.6045301,15.4594937 30.2028072,13.86 32.1745301,13.86 C34.146,13.86 35.7445301,15.4594937 35.7445301,17.4324051 L35.7445301,27.1602532 Z M33.4274458,10.9341772 L30.9211084,10.9341772 C26.6424217,10.9341772 23.1736265,14.4050633 23.1736265,18.6863291 L23.1736265,25.9063291 C23.1736265,30.1875949 26.6424217,33.658481 30.9211084,33.658481 L33.4274458,33.658481 C37.7061325,33.658481 41.1749277,30.1875949 41.1749277,25.9063291 L41.1749277,18.6863291 C41.1749277,14.4050633 37.7061325,10.9341772 33.4274458,10.9341772 L33.4274458,10.9341772 Z" id="Fill-2"></path>
                            <path d="M93.9266747,27.1602532 C93.9266747,29.1331646 92.3281446,30.7324051 90.3566747,30.7324051 C88.3849518,30.7324051 86.7869277,29.1331646 86.7869277,27.1602532 L86.7869277,17.4324051 C86.7869277,15.4594937 88.3849518,13.86 90.3566747,13.86 C92.3281446,13.86 93.9266747,15.4594937 93.9266747,17.4324051 L93.9266747,27.1602532 Z M91.6098434,10.9341772 L89.103253,10.9341772 C84.8245663,10.9341772 81.3557711,14.4050633 81.3557711,18.6863291 L81.3557711,25.9063291 C81.3557711,30.1875949 84.8245663,33.658481 89.103253,33.658481 L91.6098434,33.658481 C95.8885301,33.658481 99.3573253,30.1875949 99.3573253,25.9063291 L99.3573253,18.6863291 C99.3573253,14.4050633 95.8885301,10.9341772 91.6098434,10.9341772 L91.6098434,10.9341772 Z" id="Fill-3"></path>
                            <path d="M102.184735,31.2875949 L102.434458,31.2875949 C102.725675,31.2875949 102.961735,31.1901266 102.961735,30.9541772 C102.961735,30.7460759 102.808916,30.6065823 102.475699,30.6065823 C102.337554,30.6065823 102.240145,30.6217722 102.184735,30.6351899 L102.184735,31.2875949 Z M102.170819,32.5640506 L101.644048,32.5640506 L101.644048,30.3020253 C101.85253,30.2602532 102.143494,30.218481 102.517952,30.218481 C102.948072,30.218481 103.141627,30.2883544 103.308108,30.3992405 C103.433349,30.4962025 103.530253,30.6772152 103.530253,30.8850633 C103.530253,31.1481013 103.335687,31.343038 103.058386,31.4260759 L103.058386,31.4531646 C103.280024,31.5237975 103.405518,31.7043038 103.474084,32.0091139 C103.543916,32.3564557 103.58541,32.4946835 103.640566,32.5640506 L103.072301,32.5640506 C103.003229,32.4807595 102.961735,32.2860759 102.891904,32.0227848 C102.850157,31.7731646 102.711253,31.6620253 102.420795,31.6620253 L102.170819,31.6620253 L102.170819,32.5640506 Z M102.517952,29.5663291 C101.51906,29.5663291 100.770398,30.3858228 100.770398,31.3843038 C100.770398,32.3979747 101.51906,33.2020253 102.545783,33.2020253 C103.543916,33.2159494 104.278157,32.3979747 104.278157,31.3843038 C104.278157,30.3858228 103.543916,29.5663291 102.531108,29.5663291 L102.517952,29.5663291 Z M102.545783,29.1091139 C103.848795,29.1091139 104.861349,30.1212658 104.861349,31.3843038 C104.861349,32.6746835 103.848795,33.6736709 102.531108,33.6736709 C101.228096,33.6736709 100.187711,32.6746835 100.187711,31.3843038 C100.187711,30.1212658 101.228096,29.1091139 102.531108,29.1091139 L102.545783,29.1091139 L102.545783,29.1091139 Z" id="Fill-4"></path>
                            <path d="M55.5690361,27.1602532 C55.5690361,29.1331646 53.970759,30.7324051 51.9992892,30.7324051 C50.0275663,30.7324051 48.4290361,29.1331646 48.4290361,27.1602532 L48.4290361,17.4324051 C48.4290361,15.4594937 50.0275663,13.86 51.9992892,13.86 C53.970759,13.86 55.5690361,15.4594937 55.5690361,17.4324051 L55.5690361,27.1602532 Z M53.2522048,10.9341772 L50.7458675,10.9341772 C49.5696145,10.9341772 48.4588916,11.2040506 47.460506,11.6734177 L47.460506,11.0288608 L42.4660482,11.0288608 L42.4660482,39.9855696 L47.460506,39.9855696 L47.460506,32.9192405 C48.4588916,33.3888608 49.5696145,33.658481 50.7458675,33.658481 L53.2522048,33.658481 C57.5308916,33.658481 60.9996867,30.1875949 60.9996867,25.9063291 L60.9996867,18.6863291 C60.9996867,14.4050633 57.5308916,10.9341772 53.2522048,10.9341772 L53.2522048,10.9341772 Z" id="Fill-5"></path>
                            <path d="M74.7099036,23.6832911 L74.7099036,27.1602532 C74.7099036,29.1331646 73.1116265,30.7324051 71.1401566,30.7324051 C69.1684337,30.7324051 67.5699036,29.1331646 67.5699036,27.1602532 L67.5699036,17.4324051 C67.5699036,15.4594937 69.1684337,13.86 71.1401566,13.86 C73.1116265,13.86 74.7099036,15.4594937 74.7099036,17.4324051 L74.7099036,19.5792405 L80.1403012,19.5792405 L80.1403012,18.6863291 C80.1403012,14.4050633 76.671506,10.9341772 72.3928193,10.9341772 L69.886988,10.9341772 C65.6080482,10.9341772 62.139506,14.4050633 62.139506,18.6863291 L62.139506,25.9063291 C62.139506,30.1875949 65.6080482,33.658481 69.886988,33.658481 L72.3928193,33.658481 C76.671506,33.658481 80.1403012,30.1875949 80.1403012,25.9063291 L80.1403012,23.6832911 L74.7099036,23.6832911" id="Fill-6"></path>
                        </g>
                    </g>
                </g>
            </g>
        </g>
    </g>
</svg>