<?xml version="1.0" encoding="UTF-8"?>
<svg width="79px" height="88px" viewBox="0 0 79 88" version="1.1" xmlns="http://www.w3.org/2000/svg" xmlns:xlink="http://www.w3.org/1999/xlink">
    <!-- Generator: Sketch 47.1 (45422) - http://www.bohemiancoding.com/sketch -->
    <title>Unilever</title>
    <desc>Created with Sketch.</desc>
    <defs></defs>
    <g id="HiFi" stroke="none" stroke-width="1" fill="none" fill-rule="evenodd">
        <g id="Homepage---Desktop" transform="translate(-277.000000, -655.000000)" fill="#005E9C">
            <g id="Brands-we-ship" transform="translate(0.000000, 446.000000)">
                <g id="Logos-row-1" transform="translate(128.000000, 209.000000)">
                    <g id="Stacked-Group">
                        <g id="Unilever" transform="translate(149.000000, 0.000000)">
                            <path d="M62.9737244,17.7924872 C63.2872182,20.0672539 66.7602701,23.132677 67.7018457,23.0609966 C68.3299275,23.0609966 68.5706558,20.0911473 68.5706558,17.7924872 C68.5706558,16.4750883 68.6434213,15.4449541 67.943121,15.2054764 C66.8330356,17.4335422 63.9142059,17.8886041 62.9737244,17.7924872 Z M63.166307,16.7862464 C65.6742575,16.7862464 67.9682881,14.7987444 67.9682881,13.0501771 C67.9682881,12.2356271 67.5814816,11.56661 66.5917603,11.4465997 C66.7602701,11.6621839 66.8330356,11.8299812 66.8330356,12.2117336 C66.8330356,13.5291325 64.808183,14.9909782 62.6109908,14.9909782 C61.8143992,14.9909782 61.5736709,15.540528 61.5736709,15.8277926 C61.5736709,16.4989818 62.2247314,16.7862464 63.166307,16.7862464 Z M62.6356107,14.0808544 C62.2980441,14.0808544 61.8143992,14.0808544 61.5501452,13.553569 C61.3313014,13.1224005 61.4051612,12.4278609 60.9942819,12.1161598 C61.4051612,12.2356271 61.838472,12.2356271 62.1765857,12.2356271 C63.2631454,12.2356271 64.3010124,11.4943866 65.0959626,11.4943866 C65.6266589,11.4943866 65.7951687,11.8299812 65.7951687,12.1639467 C65.7951687,13.2179744 63.6499519,14.0808544 62.6356107,14.0808544 Z M8.66598305,32.8540598 C9.48445903,32.8540598 9.31485505,27.873358 10.6426901,27.873358 C10.9572781,27.873358 11.0535694,28.1850592 11.0535694,28.5673546 C11.0535694,29.6930627 10.4982531,31.3449702 10.4982531,32.255094 C10.4982531,32.710156 10.6191644,32.8540598 10.8358198,32.8540598 C11.4152089,32.8540598 12.4284559,27.3705092 13.41763,27.3705092 C13.7316709,27.3705092 13.8761079,27.6816673 13.8761079,27.9933684 C13.8761079,29.1418839 12.404383,32.4467848 12.404383,33.3802591 C12.404383,33.5236199 12.4530758,33.6430872 12.5728928,33.6430872 C13.1769018,33.6430872 14.3838256,31.0571625 14.7695379,29.7647431 C14.9861933,29.094097 15.2761614,28.7351519 15.5404153,28.7351519 C15.7822378,28.7351519 15.9988932,28.9990661 15.9988932,29.5491589 C15.9988932,30.8421213 14.7936107,33.883651 13.7316709,35.919483 C12.9110065,37.4991669 11.6324114,39.7744766 11.6324114,41.0440885 C11.6324114,41.6902982 11.7538697,42.3604014 12.693804,43.1744083 C11.1498607,43.0788345 10.5228731,42.9354737 9.943484,41.7386282 C7.36167374,46.8377112 14.6967723,46.3370345 12.1877276,50.8621312 C11.7297969,50.0481243 8.11011969,49.2091378 8.11011969,44.4684568 C8.11011969,40.3728993 11.7297969,37.9781223 11.7297969,36.277885 C11.7297969,35.9428334 11.6083385,35.6561118 11.2948447,35.3927406 C10.4982531,34.7215514 10.4741803,34.1703726 9.8466456,34.1703726 C9.38871485,34.1703726 8.83449281,35.2249433 9.41224056,36.1573316 C9.60482315,36.4684897 9.77497424,36.6607235 9.77497424,36.9485311 C9.77497424,37.6191773 8.71358159,39.4144455 7.96568275,39.4144455 C7.21778391,39.4144455 6.63784772,37.5713904 6.63784772,34.6015411 C6.63784772,31.9672864 7.24076252,29.3102242 7.98975557,29.3102242 C8.20641098,29.3102242 8.27917656,29.453585 8.27917656,29.6452758 C8.27917656,29.9564339 8.18233816,30.5782071 8.18233816,31.6322348 C8.18233816,32.7579429 8.44768632,32.8540598 8.66598305,32.8540598 Z M45.6254258,9.31410776 C46.0116851,9.31410776 46.0844507,10.2486681 46.1561221,10.799847 C46.2048148,11.0871116 46.2529605,11.1110051 46.3744188,11.1110051 C46.6638398,11.1110051 47.1223177,10.0091904 47.4347172,10.0091904 C47.8948364,10.0091904 49.1247388,11.2793454 51.1747585,11.2793454 C54.0935883,11.2793454 56.8455497,9.24297039 56.8455497,5.65134792 C56.8455497,2.17864974 54.3835564,0.142817767 50.9827231,0.142817767 C49.3660142,0.142817767 48.1837103,0.932931269 47.5561756,0.932931269 C47.1704633,0.956824736 46.5916213,0 46.300559,0 C46.1801949,0 46.0603779,0.238391634 46.0603779,0.645666635 C46.0603779,0.909037803 46.0603779,1.7480243 45.7698627,1.7480243 C45.1915678,1.7480243 42.9478713,0.0944878003 42.9478713,0.693453569 C42.9478713,1.2446324 44.4431219,2.92151934 44.4431219,3.35160174 C44.4431219,3.78277021 42.9719441,4.19004521 42.9719441,4.47730985 C42.9719441,5.00459521 44.5405074,5.10071211 44.5405074,5.77081525 C44.5405074,6.44037535 42.8986315,6.96766072 42.8986315,7.47105262 C42.8986315,7.87832762 44.5405074,7.59051995 44.5405074,8.09391186 C44.5405074,8.59676072 43.3341307,10.2720186 43.3341307,10.75206 C43.3341307,10.8720704 43.3582035,10.8720704 43.4550419,10.8720704 C43.9129727,10.8720704 45.2889533,9.31410776 45.6254258,9.31410776 Z M14.6726995,44.7079345 C14.6480795,44.2289791 14.9861933,43.7733741 15.4928168,43.7255872 C15.9988932,43.6533637 16.4584653,44.0367453 16.5055167,44.5395941 C16.5547565,45.042986 16.1920229,45.4746975 15.6848523,45.5458349 C15.179323,45.5708144 14.7213922,45.2107833 14.6726995,44.7079345 Z M11.995145,45.450261 C12.0919834,46.264811 12.8628609,46.8854981 13.7316709,46.7904673 C14.0446176,46.7654878 14.3351328,46.6704569 14.5277154,46.5493605 C14.7213922,47.3172096 15.3226657,47.796165 16.2160957,47.7000481 C17.1095257,47.6283677 17.7370604,46.8854981 17.640222,46.0014399 C17.640222,45.7619622 17.5680035,45.6186014 17.4957851,45.450261 L17.6648419,45.4263676 C18.508485,45.3307937 19.1595454,44.5640306 19.0867798,43.7255872 C18.9910356,42.8627072 18.1955383,42.240391 17.3748739,42.3120714 C17.0608329,42.3848379 16.7960319,42.4798687 16.6029022,42.647123 C16.3851526,41.9297759 15.7576178,41.3552466 14.8658292,41.4508205 C14.0210919,41.4986074 13.3689373,42.3120714 13.4657757,43.1977588 C13.4657757,43.3188552 13.5139213,43.5100029 13.5866869,43.6772572 L13.41763,43.7011507 C12.5728928,43.820618 11.9223795,44.5162437 11.995145,45.450261 Z M65.7475702,1.53244007 C65.7475702,1.86803467 66.0123712,2.13086281 66.350485,2.13086281 C66.6875045,2.13086281 66.9539469,1.86803467 66.9539469,1.53244007 C66.9539469,1.19684547 66.6875045,0.932931269 66.350485,0.932931269 C66.0123712,0.932931269 65.7475702,1.19684547 65.7475702,1.53244007 Z M52.2864853,24.2334056 C52.2864853,24.7845844 52.744416,25.2396464 53.2975438,25.2396464 C53.8517659,25.2396464 54.311338,24.7845844 54.311338,24.2334056 C54.311338,23.6838559 53.8517659,23.2277079 53.2975438,23.2277079 C52.744416,23.2277079 52.2864853,23.6838559 52.2864853,24.2334056 Z M52.3576095,27.2499558 C52.3576095,27.873358 52.8653272,28.3762069 53.4901264,28.3762069 C54.1176612,28.3762069 54.6242847,27.873358 54.6242847,27.2499558 C54.6242847,26.6292687 54.1176612,26.1264198 53.4901264,26.1264198 C52.8653272,26.1264198 52.3576095,26.6292687 52.3576095,27.2499558 Z M48.8829164,29.2852447 C48.8829164,30.1948256 49.6308152,30.9376952 50.548318,30.9376952 C51.4647266,30.9376952 52.2126255,30.1948256 52.2126255,29.2852447 C52.2126255,28.3762069 51.4647266,27.6338803 50.548318,27.6338803 C49.6308152,27.6338803 48.8829164,28.3762069 48.8829164,29.2852447 Z M49.7757993,25.9102925 C49.7757993,26.4375779 50.2102043,26.8687464 50.7409006,26.8687464 C51.2721441,26.8687464 51.7065491,26.4375779 51.7065491,25.9102925 C51.7065491,25.3835502 51.2721441,24.9523817 50.7409006,24.9523817 C50.2102043,24.9523817 49.7757993,25.3835502 49.7757993,25.9102925 Z M46.6140528,27.8255711 C46.6140528,28.3533995 47.049005,28.7818528 47.5807955,28.7818528 C48.1109447,28.7818528 48.5448026,28.3533995 48.5448026,27.8255711 C48.5448026,27.2982857 48.1109447,26.8687464 47.5807955,26.8687464 C47.049005,26.8687464 46.6140528,27.2982857 46.6140528,27.8255711 Z M49.100666,22.2220101 C49.100666,23.0609966 49.7998721,23.7549932 50.6451564,23.7549932 C51.4887995,23.7549932 52.1880055,23.0609966 52.1880055,22.2220101 C52.1880055,21.3835667 51.4887995,20.6901131 50.6451564,20.6901131 C49.7998721,20.6901131 49.100666,21.3835667 49.100666,22.2220101 Z M50.9105046,19.2765973 C50.9105046,19.7799892 51.3208368,20.1867212 51.8269132,20.1867212 C52.3335367,20.1867212 52.744416,19.7799892 52.744416,19.2765973 C52.744416,18.7737485 52.3335367,18.3664735 51.8269132,18.3664735 C51.3208368,18.3664735 50.9105046,18.7737485 50.9105046,19.2765973 Z M46.5429286,21.5752574 C46.5429286,22.0775633 46.9527137,22.4859243 47.4593372,22.4859243 C47.9665078,22.4859243 48.3773871,22.0775633 48.3773871,21.5752574 C48.3773871,21.0718655 47.9665078,20.6667627 47.4593372,20.6667627 C46.9527137,20.6667627 46.5429286,21.0718655 46.5429286,21.5752574 Z M46.4220174,24.6884675 C46.4220174,25.5030175 47.0730778,26.1503133 47.8948364,26.1503133 C48.7138595,26.1503133 49.3660142,25.5030175 49.3660142,24.6884675 C49.3660142,23.8750036 48.7138595,23.2277079 47.8948364,23.2277079 C47.0730778,23.2277079 46.4220174,23.8750036 46.4220174,24.6884675 Z M43.3822764,26.2219937 C43.3822764,26.9648633 44.009264,27.5860934 44.7571628,27.5860934 C45.5050616,27.5860934 46.1320493,26.9648633 46.1320493,26.2219937 C46.1320493,25.4796671 45.5050616,24.8562648 44.7571628,24.8562648 C44.009264,24.8562648 43.3822764,25.4796671 43.3822764,26.2219937 Z M44.2023937,22.8454124 C44.2023937,23.3721547 44.6367987,23.8038662 45.1680421,23.8038662 C45.6981913,23.8038662 46.1320493,23.3721547 46.1320493,22.8454124 C46.1320493,22.318127 45.6981913,21.8869586 45.1680421,21.8869586 C44.6367987,21.8869586 44.2023937,22.318127 44.2023937,22.8454124 Z M40.9941429,58.1436652 C40.9941429,58.6682354 41.4274537,59.0988609 41.9592443,59.0988609 C42.4882992,59.0988609 42.9227043,58.6682354 42.9227043,58.1436652 C42.9227043,57.6152938 42.4882992,57.1846684 41.9592443,57.1846684 C41.4274537,57.1846684 40.9941429,57.6152938 40.9941429,58.1436652 Z M15.0354332,18.4620473 C15.0354332,18.9893327 15.4681969,19.4205012 15.9988932,19.4205012 C16.5301366,19.4205012 16.9650888,18.9893327 16.9650888,18.4620473 C16.9650888,17.935848 16.5301366,17.5052226 15.9988932,17.5052226 C15.4681969,17.5052226 15.0354332,17.935848 15.0354332,18.4620473 Z M13.7798166,16.307291 C13.7798166,16.8345764 14.2136745,17.2657449 14.7460122,17.2657449 C15.2761614,17.2657449 15.7089251,16.8345764 15.7089251,16.307291 C15.7089251,15.7805487 15.2761614,15.3488372 14.7460122,15.3488372 C14.2136745,15.3488372 13.7798166,15.7805487 13.7798166,16.307291 Z M14.8176835,39.8700505 C15.8303834,39.8700505 16.6751207,39.1271809 16.6751207,37.4758165 L16.6751207,35.0332526 C16.6751207,34.0986922 16.746792,33.0446645 17.3748739,32.302881 C17.3026554,32.6145821 17.3026554,32.9496337 17.3026554,33.2597057 C17.3026554,35.3199742 18.4603393,36.7329469 18.4603393,38.7209919 C18.4603393,39.4622324 18.2436839,39.8700505 17.6648419,39.8700505 C17.1095257,39.8700505 17.1576713,39.3672016 17.0373072,39.3672016 C16.9410159,39.3672016 16.7960319,39.6783597 16.7960319,40.0128682 C16.7960319,40.5168032 17.1576713,41.3069167 18.1714654,41.3069167 C19.0391813,41.3069167 19.7389345,40.5168032 19.7389345,39.6300297 C19.7389345,37.4758165 18.0516484,35.0810395 18.0516484,32.7818364 C18.0516484,31.7755956 18.3148082,31.1054925 18.5325578,30.5782071 C18.5325578,35.3444107 22.6101657,38.8171088 22.6101657,40.8046108 C22.6101657,41.2596728 22.2725991,41.6191608 21.7648814,41.6191608 C21.2117536,41.6191608 20.9458583,41.1874493 20.9458583,40.8523978 C20.9458583,40.6840574 20.9217855,40.6368135 20.849567,40.6368135 C20.7045829,40.6368135 20.2696308,41.1152259 20.2696308,41.7386282 C20.2696308,42.5276556 20.9217855,43.4861095 22.1270679,43.4861095 C23.5025015,43.4861095 24.2514946,42.3365079 24.2514946,41.3069167 C24.2514946,38.7932154 19.3050766,34.9849226 19.3050766,30.9138017 C19.3050766,30.218719 19.4254407,29.094097 19.9326113,28.2323031 C16.746792,30.266506 15.7576178,32.9740702 15.7576178,35.3444107 C15.7576178,37.40305 15.6848523,38.4331843 14.6240067,38.4331843 C14.0697847,38.4331843 13.9248006,37.9303354 13.7316709,37.9303354 C13.5866869,37.9303354 13.5139213,38.3620469 13.5139213,38.4815142 C13.5139213,39.3672016 14.1655289,39.8700505 14.8176835,39.8700505 Z M56.6288943,15.948346 C57.6897398,15.948346 58.4868785,15.4688476 58.4868785,15.1815829 C58.4868785,15.085466 58.3413474,15.0148717 58.0278535,15.0148717 C57.7143597,15.0148717 57.0862779,14.9909782 55.903974,14.7987444 C54.8896328,14.6320332 54.1176612,14.2491947 53.8276931,14.2491947 C53.7308547,14.2491947 53.6838032,14.2964386 53.6838032,14.368119 C53.6838032,14.9909782 54.8414872,15.948346 56.6288943,15.948346 Z M51.3684354,12.9068163 C51.6819292,12.7151255 53.0316486,13.0262836 54.7944357,12.1639467 C55.010544,12.0461085 55.2277466,11.9972355 55.4203291,11.9972355 C56.2667077,11.9972355 56.048411,12.9546032 56.8214769,12.9546032 C57.4249388,12.9546032 58.1969104,12.4517544 58.6553883,12.4517544 C59.3770258,12.4517544 60.4154399,14.7031706 60.4154399,15.7566552 C60.4154399,16.9779372 58.5596441,17.7208068 56.3624519,17.7208068 C53.1531069,17.7208068 51.2234513,14.9426483 51.2234513,13.146294 C51.2234513,13.0023902 51.296764,12.9546032 51.3684354,12.9068163 Z M15.3226657,48.8979797 C14.5277154,49.0902135 13.2491203,50.3353889 13.2491203,52.3000835 C13.2491203,54.6443584 15.7822378,58.2625895 19.9566841,58.2625895 C23.4795229,58.2625895 24.3466916,55.842833 24.3466916,54.213733 C24.3466916,50.5993031 22.1029951,48.0595362 19.1847124,48.0595362 C17.5920764,48.0595362 16.1684972,49.2091378 16.1684972,50.9099182 C16.1684972,52.4912312 17.3748739,54.8610287 20.2461051,54.8610287 C21.5963716,54.8610287 22.3929632,53.9020318 22.3929632,52.8002172 C22.3929632,51.7250112 21.4026948,50.239815 19.9566841,50.239815 C19.521732,50.239815 19.2082382,50.5265366 19.2082382,50.9826846 C19.2082382,51.5566709 20.0048298,52.1322862 20.9940039,52.1322862 C21.2358264,52.1322862 21.4267676,52.0844993 21.5241531,52.0361693 C21.5722988,52.1083927 21.5963716,52.2284031 21.5963716,52.323977 C21.5963716,52.8724406 21.0667695,53.2080352 20.2461051,53.2080352 C19.0151085,53.2080352 17.8333517,52.3000835 17.8333517,50.8621312 C17.8333517,49.9997943 18.5801563,49.376392 19.6672631,49.376392 C21.8135741,49.376392 23.0927164,51.2694062 23.0927164,53.1591622 C23.0927164,54.8610287 22.1511408,55.842833 20.2220323,55.842833 C16.3610797,55.842833 14.4801169,52.3951143 15.3226657,48.8979797 Z M12.9110065,22.8693059 C12.3556903,23.0126667 11.1985534,23.6838559 11.1985534,24.8801583 C11.1985534,25.7424952 11.8742338,26.2936741 12.7178768,26.2936741 C13.1522819,26.2936741 13.4657757,26.1975572 13.6589054,26.0536533 C12.983225,25.4074437 12.7419497,24.6884675 12.7419497,23.9711205 C12.7419497,23.4677286 12.8141681,23.1565705 12.9110065,22.8693059 Z M7.00003429,23.2043574 C6.97596146,23.3238248 6.97596146,23.4438351 6.97596146,23.5633025 C6.97596146,24.6884675 7.57942337,25.3113268 8.37601496,25.3113268 C8.97838264,25.3113268 9.67813584,24.9523817 10.3051235,24.1617252 C10.0403224,24.2095121 9.72628148,24.2334056 9.4368605,24.2334056 C8.54452472,24.2334056 7.57942337,23.995014 7.00003429,23.2043574 Z M6.15584416,25.3357633 C6.15584416,27.1549249 6.70951908,28.0172619 7.69978748,28.0172619 C8.47175914,28.0172619 9.50907897,27.466083 10.7400756,26.4136844 C9.79849995,26.6292687 9.07576815,26.7726295 8.4236135,26.7726295 C7.55535054,26.7726295 6.87912306,26.4375779 6.15584416,25.3357633 Z M42.8751057,62.9315901 C44.0327897,62.9315901 43.9611183,62.8360163 44.323852,62.8360163 C44.6860386,62.8360163 44.7090172,63.0516005 44.7090172,63.1949613 C44.7090172,63.7222467 43.5261662,64.3684563 41.4274537,64.3684563 C40.1964571,64.3684563 39.4485582,63.7222467 39.2329971,63.0043566 C38.0255261,63.7700336 36.1932561,64.4651163 34.3845117,64.4651163 C29.4380937,64.4651163 28.1824771,62.3331674 26.6390809,61.6380847 C25.4573241,61.1113424 23.6474855,62.1409336 21.1149152,59.3383386 C21.4513876,59.410019 21.9098654,59.4339124 22.2725991,59.4339124 C24.4916757,59.4339124 25.6745267,58.3576204 25.6745267,56.6340326 C25.6745267,56.4179053 25.6504538,56.1778846 25.6258339,55.9633864 C26.3020614,56.2262145 27.8454576,57.3758161 28.2070971,59.410019 C28.2557898,59.6500397 29.244964,59.8650809 29.8730458,59.8650809 C30.7407617,59.8650809 31.8508471,59.5055928 32.0193568,58.0942492 C34.9146609,57.8553145 36.8672951,56.1539911 37.2776273,53.9981487 C38.3154942,54.3337434 39.4967039,55.2677607 39.7872191,55.7472591 C40.1964571,55.6033553 40.6795549,55.5316749 41.234324,55.5316749 C42.007937,55.5316749 42.8751057,55.6750357 43.9129727,55.9872799 C43.9611183,55.6750357 44.009264,55.2916542 44.4929089,55.2916542 C45.2156407,55.2916542 45.0230581,56.0823107 45.2648805,56.5373726 C45.3852446,56.7768503 45.9876123,56.9202111 45.9876123,57.3997096 C45.9876123,57.8553145 45.6013529,58.0225688 45.3611718,58.0225688 C45.2648805,58.0225688 45.1439693,57.9992184 45.0712037,57.9753249 C44.588653,58.1436652 44.5645802,61.5897548 42.536992,61.5897548 C41.0417414,61.5897548 39.6663079,60.3684728 39.0644873,58.8354897 C38.8954304,58.3815138 38.5332439,58.0942492 38.194583,58.0942492 C37.8083236,58.0942492 37.5916682,58.1675587 37.1331904,58.6682354 C35.8310695,60.0812082 33.6601386,61.3019471 30.982037,61.3019471 C30.1624668,61.3019471 29.5108593,61.2313528 29.3412553,61.2313528 C29.244964,61.2313528 29.244964,61.2552462 29.244964,61.2785967 C29.244964,61.446394 30.0656284,62.0931467 31.8508471,62.0931467 C36.0964177,62.0931467 37.1331904,59.7211771 37.8083236,59.7211771 C37.9057091,59.7211771 38.194583,59.7211771 38.364187,60.1045586 C39.3533612,62.4048478 41.5007664,62.9315901 42.8510329,62.9315901 L42.8751057,62.9315901 Z M29.1721984,14.7987444 C30.7637403,14.7987444 31.4886605,16.1639302 31.4886605,17.6963703 C31.4886605,18.3664735 31.2960779,19.3482777 30.982037,19.3482777 C30.6679961,19.3482777 30.7166888,18.7970989 30.6679961,18.29425 C30.6198504,17.6491264 30.4989392,17.5052226 30.283378,17.5052226 C29.8730458,17.5052226 29.6076977,18.4620473 29.6076977,19.3482777 C29.6076977,19.8994566 29.7028947,20.5217728 30.1378469,20.5217728 C30.3785751,20.5217728 30.5957776,20.4023054 30.7407617,20.2594877 C30.6444704,21.3602162 29.8243531,22.318127 28.666122,22.318127 C26.5427896,22.318127 25.7467451,19.8511266 25.5049227,18.4148034 C24.2279688,19.7560958 23.0451179,20.737357 20.9217855,20.737357 C18.94289,20.737357 18.0516484,19.3010338 18.0516484,17.935848 C18.0516484,17.528573 18.1955383,16.4750883 18.7010676,16.4750883 C19.3050766,16.4750883 18.773286,18.4381539 19.9566841,18.4381539 C20.2461051,18.4381539 20.7768014,18.1986762 21.0667695,17.4096487 C21.2358264,16.9306933 21.3310235,16.4267584 21.3310235,15.9955899 C21.3310235,15.3488372 21.1876807,14.9426483 20.7045829,14.9426483 C20.2937036,14.9426483 19.7870801,15.2532633 19.6180233,15.4205176 C20.1979594,13.6969298 21.5963716,12.8106994 23.140862,12.8106994 C25.0469919,12.8106994 26.060786,14.4875863 26.060786,16.355078 C26.060786,16.6184491 26.0361661,16.9067998 25.9880205,17.1690849 C26.8086849,15.8277926 27.942296,14.7987444 29.1721984,14.7987444 Z M23.1167892,0.526199301 C23.1167892,0.382295468 22.3929632,0.238391634 21.4026948,0.238391634 C19.8352258,0.238391634 20.0529754,1.53244007 18.8465987,1.53244007 C17.5920764,1.53244007 17.9055702,0.190604701 16.3129341,0.190604701 C15.3467385,0.190604701 14.4560441,0.358402001 14.4560441,0.573986235 C14.4560441,0.861250869 15.588561,0.741783535 15.588561,1.53244007 C15.588561,2.37088354 13.1522819,2.61036124 13.1522819,3.11158101 C13.1522819,3.27937831 13.3454116,3.35160174 13.5866869,3.35160174 C14.1173832,3.35160174 14.9626676,3.11158101 15.563941,3.11158101 C15.9026019,3.11158101 16.2160957,3.18434748 16.2160957,3.49550558 C16.2160957,4.09447134 14.9145219,5.17239251 14.9145219,5.65134792 C14.9145219,5.79525175 15.0354332,5.84358172 15.1557973,5.84358172 C15.6372537,5.84358172 16.4584653,4.62121368 17.2298898,4.62121368 C18.508485,4.62121368 17.6648419,7.32714879 18.3629538,7.32714879 C19.0867798,7.32714879 18.773286,4.66954365 19.811153,4.66954365 C20.6558902,4.66954365 21.283972,6.51314182 21.8622669,6.51314182 C22.0061567,6.51314182 22.1270679,6.39367448 22.1270679,6.22533415 C22.1270679,5.72357135 21.4026948,4.69343711 21.4026948,4.02224791 C21.4026948,3.61497291 21.6926629,3.42328214 22.0789223,3.42328214 C22.6342385,3.42328214 23.3826845,3.75887674 23.7930167,3.75887674 C23.9374536,3.75887674 24.0824377,3.71108981 24.0824377,3.54383554 C24.0824377,2.96876324 21.9344854,2.34699007 21.9344854,1.60412047 C21.9344854,0.861250869 23.1167892,0.861250869 23.1167892,0.526199301 Z M57.4971572,47.6761547 C56.9899866,47.6761547 54.1904267,51.3894166 52.3816824,51.3894166 C51.9478244,51.3894166 51.5856379,50.5748666 51.5856379,49.9520074 C51.5856379,49.6164128 51.8028404,49.376392 52.5759063,49.2091378 C56.7246384,48.2751204 55.8071356,45.1868899 59.3524059,45.1868899 C61.3083228,45.1868899 63.480895,46.5048318 63.480895,49.473052 C63.480895,52.6324199 58.9453564,56.5618091 58.2685818,56.5618091 C57.7143597,56.5618091 57.1103507,55.7706096 57.1103507,55.2438672 C57.1103507,55.0760699 57.1825692,54.8610287 57.6662141,54.669338 C59.9804877,53.758128 61.3083228,51.6527878 61.3083228,50.5748666 C61.3083228,50.3353889 61.1879587,50.0959112 60.8733706,50.0959112 C60.4624913,50.0959112 58.7035339,54.0698292 56.7487113,54.0698292 C55.3968034,54.0698292 54.021917,52.8485472 54.021917,52.275647 C54.021917,51.3171932 57.930468,49.5441893 57.930468,48.202354 C57.930468,47.7000481 57.6897398,47.6761547 57.4971572,47.6761547 Z M60.101399,46.1925876 C59.7632852,46.1925876 59.4005516,46.4570448 59.4005516,47.1010824 C59.4005516,47.8200585 59.956962,48.2751204 60.2699087,48.4184812 C60.4389656,48.5140551 60.7048609,48.609629 60.970209,48.609629 C61.6699622,48.609629 62.2247314,48.4184812 62.2247314,47.8434089 C62.2247314,47.1010824 61.1392659,46.1925876 60.101399,46.1925876 Z M28.785939,2.96876324 C28.785939,3.39993171 30.3069037,4.33449208 31.0061098,4.33449208 C31.4158949,4.33449208 31.5368061,3.78277021 31.5368061,3.20769791 C31.5368061,2.49089391 31.2227652,2.46591437 30.5957776,2.46591437 C29.8008274,2.46591437 28.785939,2.68204164 28.785939,2.96876324 Z M31.2960779,7.71053032 C31.2960779,6.27312108 27.3399283,3.61497291 27.3399283,2.53813781 C27.3399283,2.49089391 27.3399283,2.46591437 27.3629069,2.41867047 C27.652875,1.62801394 30.9333442,1.07629207 30.9333442,0.430082401 C30.9333442,0.118381267 30.3550494,0.118381267 30.0656284,0.118381267 C27.8208377,0.118381267 24.5403684,0.932931269 24.5403684,1.72413084 C24.5403684,2.53813781 27.4838181,4.52563981 27.4838181,5.50798712 C27.4838181,5.77081525 27.3158555,5.86747518 27.0499602,5.86747518 C26.2298429,5.86747518 24.4429829,4.88512788 23.5993399,4.88512788 C23.2130805,4.88512788 23.0691907,5.14795601 23.0691907,5.53133755 C23.0691907,6.67985305 24.4429829,8.86013189 24.4429829,9.50579853 C24.4429829,9.57802196 24.418363,9.67359583 24.323713,9.67359583 C23.889308,9.67359583 21.8381941,7.27936185 21.1149152,7.27936185 C20.849567,7.27936185 20.8249471,7.63884992 20.8249471,8.16504922 L20.8249471,8.98014226 C20.8249471,9.52969199 20.8008742,9.86528659 20.5355261,9.86528659 C19.9079914,9.86528659 19.6180233,8.11726229 19.0151085,8.11726229 C18.3870266,8.11726229 18.2677567,11.2315585 17.6648419,11.2315585 C16.9650888,11.2315585 17.5680035,7.80610419 16.8917761,7.80610419 C16.1444243,7.80610419 15.29914,10.0814139 14.7695379,10.0814139 C14.5764082,10.0814139 14.5277154,9.88972309 14.5277154,9.72138276 C14.5277154,9.02847223 14.9380476,7.90276412 14.9380476,7.23157492 C14.9380476,6.89598032 14.8417564,6.70483259 14.5517883,6.70483259 C13.8038894,6.70483259 12.1642019,7.90276412 11.5361201,7.90276412 C11.4398288,7.90276412 11.3189176,7.85443416 11.3189176,7.75831725 C11.3189176,7.18324495 13.9494206,5.36408328 13.9494206,4.54953328 C13.9494206,3.75887674 10.3291963,4.28561908 10.3291963,3.37603824 C10.3291963,2.61036124 12.9110065,1.81970471 12.9110065,1.02850514 C12.9110065,0.334508534 9.8466456,0.0244365001 8.66598305,0.0244365001 C7.24076252,0.0244365001 6.46933796,0.190604701 6.46933796,0.597879702 C6.46933796,1.22073894 9.70220866,1.4124297 9.70220866,1.96306551 C9.70220866,2.49089391 6.34842674,3.90278058 6.34842674,4.71733058 C6.34842674,5.43576368 11.0776422,4.76457448 11.0776422,5.50798712 C11.0776422,6.32090802 6.95134153,9.84139313 6.95134153,11.0154312 C6.95134153,11.2793454 7.14501833,11.3988127 7.40981939,11.3988127 C8.66598305,11.3988127 11.9223795,9.02847223 12.8141681,9.02847223 C13.1276619,9.02847223 13.1522819,9.41022466 13.1522819,9.74581926 C13.1522819,10.3686785 12.9356265,11.3260463 12.9356265,12.021672 C12.9356265,12.5712217 13.0795163,12.9546032 13.5631612,12.9546032 C14.4560441,12.9546032 15.2761614,11.4465997 15.8785291,11.4465997 C16.6510478,11.4465997 16.1920229,15.8755795 17.3513481,15.8755795 C18.338881,15.8755795 18.7492132,11.0871116 19.377295,11.0871116 C20.0048298,11.0871116 20.5114533,12.4751048 21.0908423,12.4751048 C21.8135741,12.4751048 21.4760075,10.0569774 22.2485263,10.0569774 C23.0927164,10.0569774 25.5049227,12.9307098 26.5909353,12.9307098 C26.929049,12.9307098 27.0499602,12.6667956 27.0499602,12.331744 C27.0499602,11.0637612 25.2647416,8.19002876 25.2647416,7.27936185 C25.2647416,7.03934112 25.3364129,6.96766072 25.6023082,6.96766072 C26.5427896,6.96766072 29.2936567,8.26170916 30.5957776,8.26170916 C31.0296355,8.26170916 31.2960779,8.02223146 31.2960779,7.71053032 Z M64.2287939,35.2727303 C64.6150533,34.0747987 65.0959626,33.2352692 65.8909129,31.9433929 C65.0959626,31.5366609 62.9977973,30.674324 62.9977973,29.2618943 C62.9977973,27.6099869 65.0740782,26.3175675 65.5052006,26.3175675 C65.6988774,26.3175675 65.7475702,26.4853648 65.7475702,26.7965229 C65.7475702,27.6577738 65.3366908,29.04631 65.3366908,29.7886366 C65.3366908,30.4581967 65.7710959,31.1054925 66.156261,31.1054925 C66.5676875,31.1054925 67.7018457,29.6691693 67.7018457,28.2567396 C67.7018457,25.7186018 65.457055,24.9523817 64.7600373,24.9523817 C64.1078827,24.9523817 62.9250317,26.0058664 60.1484504,26.0058664 C54.9618513,26.0058664 53.7806416,20.9051543 53.7806416,18.6776316 C53.7806416,18.5820577 53.8036202,18.5581642 53.8276931,18.5581642 C53.9491514,18.5581642 54.4557749,19.1804804 56.0965566,19.1804804 C56.941841,19.1804804 57.7143597,18.9654392 58.9453564,18.9654392 C61.838472,18.9654392 63.1187085,20.9534843 64.9050214,23.4921651 C65.9877513,24.1617252 68.5706558,25.2396464 68.5706558,28.280633 C68.5706558,30.9610456 65.6988774,32.4467848 65.0013127,35.3199742 C66.1086625,35.2010499 66.7602701,33.2352692 67.8949754,33.2352692 C68.4749116,33.2352692 68.7402597,33.6919602 68.7402597,34.4093073 C68.7402597,35.464421 68.1367978,37.044105 66.9780197,38.0264523 C67.0020925,37.9303354 67.0020925,37.810325 67.0020925,37.6675073 C67.0020925,36.995775 66.7356501,36.0384073 65.9642256,36.0384073 C64.7600373,36.0384073 64.3732308,37.3313696 63.6970033,38.4092908 C62.9977973,35.9672699 62.0562216,33.7630976 60.3672942,32.4228913 C58.6553883,31.0571625 55.7108443,31.7994891 55.7108443,29.3102242 C55.7108443,28.639035 56.1447023,27.6816673 56.1447023,26.9165333 C56.1447023,26.6537052 56.0965566,26.4136844 55.9515726,26.2219937 C58.2685818,27.0827015 57.4484645,28.6151416 58.8725908,30.1948256 C59.7632852,31.2010663 62.2247314,32.1595202 63.6499519,36.3012354 C63.6729305,36.1823111 63.6970033,35.871153 63.6970033,35.6561118 C63.6970033,32.1117332 58.9694292,28.639035 58.5596441,27.2032549 C61.3083228,27.514413 61.7903263,28.1850592 63.0946357,31.7755956 C63.3594367,32.5184652 64.2287939,34.3620634 64.2287939,35.2727303 Z M12.404383,15.7566552 C12.5247471,15.3732737 12.6215855,14.8954044 12.6215855,14.368119 C12.6215855,13.2179744 12.0919834,11.4704931 10.4495604,11.4704931 C9.50907897,11.4704931 8.83449281,12.2117336 8.83449281,13.097964 C8.83449281,14.9909782 10.7400756,15.7566552 12.404383,15.7566552 Z M10.3532691,21.7913847 C9.55722461,21.7913847 8.68950877,20.8101235 8.68950877,19.9244361 C8.68950877,19.4443946 9.05224244,18.8454289 9.31485505,18.8454289 C9.41224056,18.8454289 9.46038621,18.9171093 9.48445903,19.0849066 C9.62944308,20.2594877 10.4019619,20.9295908 11.126335,21.2635563 C11.1985534,21.3118863 11.2472462,21.3363228 11.2472462,21.3835667 C11.2472462,21.551364 10.7876741,21.7913847 10.3532691,21.7913847 Z M13.2009746,19.5405115 C13.2009746,19.8755631 13.0072978,20.3072746 12.6215855,20.3072746 C11.7784896,20.3072746 11.1022622,19.0371196 11.1022622,18.3186865 C11.1022622,17.8647106 11.3676103,17.8163807 11.7297969,17.8163807 C11.8983066,17.8163807 11.9705251,17.8402741 12.0919834,17.9119545 C12.3075446,18.0319649 12.3075446,18.5103773 12.5728928,18.8693223 C12.7178768,19.1088 13.2009746,19.3721712 13.2009746,19.5405115 Z M12.3556903,17.0257241 C12.2123476,17.0018307 12.0186708,17.0018307 11.8255411,17.0018307 C11.0294966,17.0018307 9.96700971,17.1451915 9.02762251,17.7685937 C6.90319589,19.1337796 7.24076252,21.2874498 6.90319589,21.8386286 C6.85505024,21.910309 6.83097742,22.0069689 6.83097742,22.1030858 C6.83097742,22.318127 7.07225276,22.5570617 7.28890816,22.5570617 C7.48313207,22.5570617 7.60349619,22.5103608 7.69978748,22.5103608 C8.27917656,22.5103608 8.930237,22.9170928 9.87126553,22.9170928 C10.4260347,22.9170928 11.0776422,22.7492955 11.8983066,22.3420205 C13.6353797,21.4796836 14.31106,19.3482777 14.31106,18.9893327 C14.31106,18.5342708 13.9494206,18.6059512 13.6353797,18.1747827 C13.2972659,17.6730199 13.4657757,17.4813291 13.2491203,17.1935214 C13.1035891,17.0740541 12.7906424,17.0740541 12.3556903,17.0257241 Z M14.9145219,20.8818039 C14.3838256,21.503034 13.8279622,22.5570617 13.8279622,23.6360689 C13.8279622,24.9279452 14.6240067,26.0058664 15.8544562,26.0058664 C17.0373072,26.0058664 17.5920764,24.9996256 17.5920764,23.9711205 C17.5920764,22.365914 16.1198044,21.2396628 14.9145219,20.8818039 Z M9.7503543,16.2833976 C9.7503543,16.2833976 9.05224244,16.8101399 8.18233816,16.8101399 C7.14501833,16.8101399 6.32435392,16.0433768 6.32435392,14.9665417 C6.32435392,14.2242152 6.70951908,13.4579951 7.60349619,13.0746136 C7.57942337,13.2179744 7.57942337,13.3379848 7.57942337,13.4818886 C7.57942337,14.8470744 8.35194214,15.8755795 9.7503543,16.2833976 Z M52.6716504,30.218719 C52.6716504,29.7408497 53.103867,29.3335747 53.5875119,29.3335747 C54.1176612,29.3335747 54.5285405,29.7408497 54.5285405,30.218719 C54.5285405,30.7693548 54.1176612,31.1527364 53.5875119,31.1527364 C53.103867,31.1527364 52.6716504,30.7693548 52.6716504,30.218719 Z M53.2975438,57.7597407 C53.417908,57.7597407 53.562892,57.8314211 53.562892,58.2625895 C53.562892,58.7877028 53.3216167,59.4816994 52.4555421,60.0328782 C51.8515331,60.4401532 51.0308687,60.7752048 49.8239449,60.7990982 C50.0159804,60.224569 50.1620587,59.6261462 50.1620587,59.0510739 C50.1620587,58.8593832 50.1374387,58.7149363 50.1133659,58.5026103 L50.4268597,58.5026103 C52.3335367,58.5026103 53.1531069,57.7597407 53.2975438,57.7597407 Z M53.4901264,55.387228 C53.6838032,55.2199738 53.7308547,54.9571456 53.7308547,54.6926884 L53.7308547,54.1420526 C53.7308547,53.4475129 52.6716504,53.0396949 51.2234513,53.0396949 C49.4623055,53.0396949 48.5207298,53.8303514 48.5207298,54.1659461 L48.5207298,55.2677607 C48.5207298,55.7233657 49.5826696,56.1778846 50.8858847,56.1778846 C51.9237516,56.1778846 52.8653272,55.9145134 53.4901264,55.387228 Z M54.7451959,55.6516853 C54.1176612,56.1300976 52.6475776,57.2085618 50.2102043,57.2085618 C48.9069892,57.2085618 48.3286943,56.8012868 48.1350175,56.8012868 C47.8948364,56.8012868 47.6289412,57.0407645 47.3630459,57.3519226 C46.7836568,58.0225688 46.035758,59.2661151 46.035758,60.6307579 C46.035758,61.5897548 46.7836568,62.5482086 48.1837103,62.5482086 C52.6957233,62.5482086 56.0724838,59.7450705 56.0724838,57.472476 C56.0724838,56.1778846 55.3005121,55.6516853 54.7451959,55.6516853 Z M55.589386,35.512208 C55.589386,36.1100877 55.7830628,36.8040843 56.3865247,36.8040843 C56.8931482,36.8040843 57.3281004,36.0384073 57.3281004,35.2010499 C57.3281004,34.242596 57.1584964,33.4997264 57.1584964,33.1158019 C57.1584964,32.9496337 57.2312619,32.8774102 57.3281004,32.8774102 C57.6897398,32.9013037 58.0278535,33.883651 58.4141129,33.883651 C58.8490651,33.883651 59.4984842,33.0929945 59.7632852,33.0929945 C59.8355037,33.0929945 59.8601236,33.1885683 59.8601236,33.2124618 C59.8601236,33.5714068 59.3048074,34.3620634 59.3048074,34.6737645 C59.3048074,34.9365926 60.7048609,34.9849226 60.7048609,35.2249433 C60.7048609,35.5838884 59.2325889,35.5838884 58.5350242,35.8950465 C57.8593438,36.1823111 57.4484645,36.5412561 57.4484645,37.0202115 C57.4484645,37.4991669 57.930468,37.5952838 58.6072426,37.5952838 C60.2223102,37.5952838 61.3570155,36.7329469 61.7181079,36.7329469 C61.7903263,36.7329469 61.838472,36.7801908 61.838472,36.8524142 C61.838472,37.092435 61.0183547,37.8836345 61.0183547,38.2425796 C61.0183547,38.6493115 62.5152466,39.1271809 62.4911738,39.3672016 C62.4671009,39.438339 62.3708096,39.4622324 62.2012057,39.4622324 C61.9358575,39.4622324 61.5255253,39.3910951 61.2120315,39.3910951 C61.0183547,39.3910951 60.8492978,39.4144455 60.7776265,39.5100194 C60.6074754,39.7022532 60.8257721,40.9718651 60.4871112,40.9718651 C60.1741646,40.9718651 59.3524059,38.1459196 57.4971572,38.1459196 C57.2312619,38.1459196 57.0381323,38.3620469 57.0381323,38.7209919 C57.0381323,39.6783597 57.980255,40.7796313 58.8725908,41.3069167 C59.2807346,41.5713739 59.956962,41.834202 59.956962,41.9781059 C59.956962,42.2642845 58.4141129,42.0014563 58.4141129,42.4798687 C58.4141129,42.9115802 58.6072426,43.5583329 58.6072426,43.9417144 C58.6072426,44.0606387 58.5837169,44.2045426 58.4381858,44.2045426 C58.1493119,44.2045426 57.4484645,42.8876867 57.1103507,42.8876867 C56.8214769,42.8876867 56.1939421,43.6772572 55.9280469,43.6772572 C55.8563755,43.6772572 55.8071356,43.6055768 55.8071356,43.5338964 C55.8071356,42.9827176 56.7005656,41.7386282 56.7005656,40.5168032 C56.7005656,39.9422739 56.6288943,38.6970985 55.9280469,38.6970985 C55.3486578,38.6970985 54.6975973,39.6061363 54.4070821,40.5168032 C54.2380253,41.0440885 54.3600307,43.0788345 53.9732242,43.0788345 C53.6115848,43.0788345 53.7073289,41.7141917 53.2247783,41.7141917 C52.8653272,41.7141917 52.0933556,42.3604014 51.8269132,42.3604014 C51.7793147,42.3604014 51.731169,42.3365079 51.731169,42.2881779 C51.731169,42.0014563 52.4303751,41.067982 52.4303751,40.8762912 C52.4303751,40.5168032 50.8371919,40.4690162 50.8371919,40.1812086 C50.8371919,40.0128682 51.4647266,39.8939439 52.0446628,39.797827 C53.2740181,39.5822428 55.0838567,38.6970985 55.0838567,37.45138 C55.0838567,36.0623007 53.7308547,35.464421 52.8412544,34.8898918 C52.3816824,34.6015411 51.875606,34.3620634 51.875606,34.1703726 C51.875606,33.9786818 52.4555421,33.9786818 52.6957233,33.9786818 C53.0557214,33.9786818 53.417908,33.9547884 53.417908,33.6669807 C53.417908,33.4519395 53.3686681,33.0218571 53.3686681,32.6868055 C53.3686681,32.4467848 53.393288,32.255094 53.4901264,32.255094 C53.8517659,32.255094 54.3600307,33.427503 54.6007589,33.427503 C54.9864712,33.427503 55.5182618,32.4706783 55.8804483,32.4706783 C56.0002653,32.4706783 56.048411,32.5423587 56.048411,32.7579429 C56.048411,33.6430872 55.589386,34.649871 55.589386,35.512208 Z M44.0814824,28.4967603 C44.3479248,30.5309632 47.0982448,29.5008289 47.0982448,31.9672864 C47.0982448,32.3267744 47.0008593,32.8540598 47.0008593,33.3080357 C47.0008593,33.835321 47.049005,34.290383 47.4593372,34.290383 C47.8696694,34.290383 47.9665078,34.0031183 47.9665078,33.6191938 C47.9665078,33.2352692 47.8696694,32.7579429 47.8696694,32.4945717 C47.8696694,31.6561283 48.4731313,31.4644375 48.8347707,31.4644375 C49.7517264,31.4644375 50.4509325,32.3989979 51.8269132,32.3989979 C51.5128723,33.9308949 48.3286943,33.5236199 48.3286943,35.2010499 C48.3286943,36.0384073 49.1717903,36.230098 49.7276536,36.230098 C50.2342771,36.230098 50.4027869,36.1573316 50.4027869,35.7277922 C50.4027869,35.4877715 50.3546412,35.2249433 50.3546412,35.056603 C50.3546412,34.9604861 50.4268597,34.8659983 50.548318,34.8659983 C51.0790144,34.8659983 53.6838032,36.8285208 53.6838032,37.4274865 C53.6838032,37.9781223 50.9345774,38.5293012 50.1374387,38.5293012 C49.8972576,38.5293012 49.8480177,38.3620469 49.8480177,38.266473 C49.8480177,38.0981327 50.2583499,37.5952838 50.2583499,37.3074762 C50.2583499,37.092435 49.8972576,36.9485311 48.9316091,36.9485311 C48.4731313,36.9485311 48.1350175,36.995775 48.1350175,37.3558061 C48.1350175,38.0025588 49.1958631,38.7932154 49.1958631,39.3910951 C49.1958631,39.8700505 48.9069892,40.1573151 48.1350175,40.1573151 C47.4839571,40.1573151 46.4942358,39.6539232 46.4942358,38.8171088 C46.4942358,38.1459196 47.1945361,37.4758165 47.1945361,37.0685415 C47.1945361,36.9485311 47.0982448,36.7568404 46.8082767,36.7568404 C45.9148467,36.7568404 45.6741185,39.1027444 42.5123721,39.3672016 C43.0200898,38.9126827 43.4550419,38.4092908 43.4550419,37.3796996 C43.4550419,36.8763077 43.3341307,36.4684897 43.3341307,35.919483 C43.3341307,35.2010499 43.6711502,34.8410188 44.154248,34.8410188 C45.0471309,34.8410188 45.4809888,36.0856512 46.0603779,36.0856512 C46.3744188,36.0856512 46.7114383,35.7994726 46.7114383,35.3688472 C46.7114383,33.5475134 43.1891467,33.8108845 43.1891467,31.2488533 C43.1891467,30.5548567 43.4298749,29.6930627 44.0814824,28.4967603 Z M48.6657139,44.0606387 C48.6657139,44.3967764 48.9069892,44.6596045 49.2440087,44.6596045 C49.6308152,44.6596045 49.8726377,44.3245529 49.8726377,43.9417144 C49.8726377,43.4383225 49.4141598,42.7437829 48.9792077,42.7437829 C48.786078,42.7437829 48.8588436,43.0305045 48.8090566,43.3416626 C48.786078,43.5816833 48.6657139,43.869491 48.6657139,44.0606387 Z M47.4117386,40.8762912 C49.9448561,41.3552466 51.3208368,43.2466318 51.3208368,45.0190926 C51.3208368,46.2409176 50.548318,47.3644535 49.1958631,47.3644535 C47.9665078,47.3644535 47.0730778,46.5260101 47.0730778,45.1868899 C47.0730778,44.1811921 47.8696694,43.1271644 47.8696694,42.0959441 C47.8696694,41.6902982 47.7498524,41.2830232 47.4117386,40.8762912 Z M44.2023937,44.9479552 C44.4431219,45.1868899 44.5164346,45.4263676 44.5164346,45.6658453 C44.5164346,46.0247903 44.3479248,46.4081718 44.3479248,46.8138177 C44.3479248,47.388347 44.7812356,47.8906528 45.4098646,47.8906528 C46.0844507,47.8906528 46.5429286,47.3644535 46.5429286,46.7415943 C46.5429286,45.8336426 45.6013529,44.9479552 44.2023937,44.9479552 Z M52.1880055,43.4144291 C52.3576095,43.6772572 52.4303751,43.9417144 52.4303751,44.1811921 C52.4303751,44.8518383 51.9718973,45.4746975 51.9718973,46.1686941 C51.9718973,46.9571785 52.5759063,47.6044743 53.4901264,47.6044743 C54.4803948,47.6044743 55.1560752,46.8138177 55.1560752,45.8819725 C55.1560752,44.6129036 53.997297,43.5338964 52.1880055,43.4144291 Z M44.7812356,42.1448171 C45.8907739,42.2881779 46.1561221,42.6715595 46.1561221,42.9827176 C46.1561221,43.5100029 45.6741185,43.6772572 45.2156407,43.6772572 C44.8786211,43.6772572 44.4929089,43.6055768 44.0814824,43.6055768 C43.550239,43.6055768 43.0200898,43.7255872 42.5856848,44.2289791 C42.8986315,44.276766 43.3582035,44.4923502 43.3582035,44.9713056 C43.3582035,46.3609279 39.4731782,45.2107833 39.4731782,48.7785123 C39.4731782,50.6709835 41.4526208,52.7285368 44.4431219,52.7285368 C45.9876123,52.7285368 46.9762394,52.2284031 46.9762394,51.6527878 C46.9762394,51.1977258 46.1561221,51.509427 46.1561221,51.1260454 C46.1561221,50.9577051 46.4460902,50.646547 46.4460902,50.3831758 C46.4460902,50.2642515 46.350346,50.0481243 46.1561221,50.0481243 C45.721717,50.0481243 44.902694,50.7421209 43.2372923,50.7421209 C41.9351714,50.7421209 40.6560292,49.9997943 40.6560292,48.9935535 C40.6560292,48.7785123 40.7523204,48.6579589 40.8973045,48.6579589 C41.0417414,48.6579589 41.234324,48.7546189 41.4033809,48.7546189 C41.5494592,48.7546189 41.5724378,48.6579589 41.5724378,48.3945878 C41.5724378,48.1312166 41.5724378,47.388347 42.0314627,47.388347 C42.4882992,47.388347 43.3582035,49.065777 46.6873655,49.065777 C47.797998,49.065777 49.9448561,48.8501927 50.7409006,48.1312166 C50.7168278,50.7671004 48.641641,54.2370834 44.2997792,54.2370834 C39.7872191,54.2370834 37.3750128,50.646547 37.3750128,47.3405601 C37.3750128,43.6772572 40.3901339,40.3490059 44.5164346,40.3490059 C45.576733,40.3490059 46.4707101,40.709037 46.4707101,41.1630128 C46.4707101,41.7858721 44.902694,41.4030336 44.7812356,42.1448171 Z M27.3158555,17.6246899 C27.3158555,17.2174149 27.2190171,17.1223841 27.1221787,17.1223841 C26.8814505,17.1223841 26.6150081,17.4096487 26.2298429,18.0553154 C26.2779886,18.9171093 26.4229726,19.3010338 26.6631537,19.3010338 C26.929049,19.3010338 27.3158555,18.4620473 27.3158555,17.6246899 Z M24.009125,18.6059512 C24.2755674,18.6059512 24.6120398,18.3186865 25.2401216,17.6246899 C25.2882673,17.3135318 25.2882673,17.0257241 25.2882673,16.6667791 C25.2882673,16.1878237 25.0951376,15.6599953 24.8046224,15.6599953 C24.0824377,15.6599953 23.719704,17.576903 23.719704,18.0792088 C23.719704,18.3664735 23.8657823,18.6059512 24.009125,18.6059512 Z M27.942296,20.737357 C28.5457579,20.737357 29.2208912,18.4381539 29.2208912,17.0018307 C29.2208912,16.6906726 29.1721984,16.355078 29.0283086,16.355078 C28.5216851,16.355078 27.6758536,18.7254185 27.6758536,20.0194669 C27.6758536,20.5217728 27.7967648,20.737357 27.942296,20.737357 Z M22.0307766,19.4205012 C22.8514411,19.4205012 23.7930167,15.0148717 23.7930167,14.2720021 C23.7930167,14.0808544 23.719704,13.9369505 23.5517414,13.9369505 C22.8032954,13.9369505 21.7648814,18.1269958 21.7648814,19.0610131 C21.7648814,19.2282674 21.8135741,19.4205012 22.0307766,19.4205012 Z M24.6607326,21.2396628 C23.6234127,21.2396628 23.5758142,22.4859243 23.5758142,24.9996256 C22.8032954,23.3482613 21.5241531,21.5752574 20.0289026,21.5752574 C19.0151085,21.5752574 18.6288491,22.2459036 18.6288491,23.4193986 C18.6288491,23.6599624 18.6529219,24.0189074 18.7010676,24.2334056 C18.8219788,23.8277597 19.2082382,23.6599624 19.6913359,23.6599624 C20.7292029,23.6599624 21.982631,24.4489898 22.8032954,25.526911 C21.8622669,25.3596567 20.9458583,25.1913164 20.1733395,25.1913164 C19.6913359,25.1913164 19.2563838,25.2396464 18.8947444,25.4074437 C18.1955383,25.7186018 17.2534155,26.748736 17.2534155,28.3050695 C17.2534155,28.5445472 17.2780355,28.8062893 17.3272753,29.094097 C18.1714654,27.2266053 20.415162,26.389791 21.862814,26.389791 C22.1511408,26.389791 22.3688904,26.4136844 22.5379473,26.4375779 C21.7889542,27.106595 21.6204444,28.280633 21.5722988,29.0702035 C21.548226,29.453585 21.4026948,29.4780215 21.1395351,29.4780215 C21.1395351,30.266506 21.7648814,31.440544 21.7648814,32.0395098 C21.7648814,32.255094 21.6445173,32.4467848 21.5241531,32.4945717 C21.5241531,33.5475134 22.5855458,34.3137334 22.5855458,34.9849226 C22.5855458,35.1521769 22.5379473,35.2960807 22.4651817,35.3688472 C22.5379473,35.7994726 23.6961783,36.5412561 23.8411624,36.8524142 C24.0824377,37.3558061 24.2514946,37.40305 24.3713116,37.40305 C24.7805496,37.40305 25.4327042,36.9246377 25.4327042,36.4923831 C25.4327042,36.3495654 25.311793,36.1823111 25.2160488,36.1100877 C24.7570238,35.7755791 24.5157485,35.056603 24.323713,34.5776476 C24.1546562,34.5776476 23.9374536,34.4820737 23.8657823,34.242596 C23.7689439,33.9308949 23.719704,32.8057298 23.5276685,32.255094 C23.2130805,32.1834136 23.0691907,32.0639463 23.0691907,31.4166506 C23.0691907,31.1054925 23.2617733,29.8836674 23.2617733,29.453585 C23.1167892,29.453585 22.9236595,29.3574681 22.9236595,29.0702035 C22.9236595,28.3050695 23.6961783,27.7055607 23.9133808,26.7248425 C25.2882673,27.7299972 25.6258339,28.7590454 25.6258339,29.6691693 C25.6258339,30.1470386 25.5530683,30.6015575 25.4573241,31.033269 C26.4711183,30.5309632 27.9904416,29.7886366 27.9904416,28.280633 C27.9904416,27.3949457 27.5801094,26.4136844 24.8538622,26.0297599 C25.6980524,25.7186018 26.7605392,25.5508045 27.652875,25.5508045 C29.1968183,25.5508045 30.0897012,26.0297599 30.283378,27.106595 C30.5957776,26.6292687 30.837053,26.0780898 30.837053,25.5746979 C30.837053,24.4012029 29.848973,23.6360689 28.5933564,23.6360689 C27.1221787,23.6360689 25.8189636,24.4012029 24.418363,25.3357633 C25.0469919,24.0433439 25.4808499,23.2771239 26.2539157,23.2771239 C26.3742799,23.2771239 26.494644,23.2999313 26.6150081,23.3238248 C26.3255871,22.2697971 25.2401216,21.2396628 24.6607326,21.2396628 Z M9.26725652,6.32090802 C9.26725652,6.79986342 7.43389221,8.40506996 6.78283177,8.40506996 C6.54155643,8.40506996 6.46933796,8.11726229 6.46933796,7.85443416 C6.46933796,7.37547875 6.68599337,6.70483259 6.95134153,6.48870532 C7.26538245,6.20144068 7.98975557,6.05916595 8.54452472,6.05916595 C8.88263846,6.05916595 9.26725652,6.12921725 9.26725652,6.32090802 Z M65.312618,38.5048647 C66.5189947,38.5048647 67.4840961,40.0617412 67.4840961,41.882532 C67.4840961,43.820618 66.5676875,45.9297595 64.9290942,47.3644535 C64.9050214,44.1323191 60.9220634,45.1629964 60.9220634,42.8149203 C60.9220634,41.8097655 61.6453423,41.1391194 62.5152466,41.1391194 C63.2872182,41.1391194 63.8912273,41.3552466 64.3250852,41.7858721 C63.8912273,41.3796831 63.6729305,40.8046108 63.6729305,40.252889 C63.6729305,39.3433081 64.2534138,38.5048647 65.312618,38.5048647 Z M47.4117386,14.0086309 C47.2186089,13.6969298 46.4942358,13.5291325 46.1561221,13.5291325 C45.0958237,13.5291325 44.3719976,14.2720021 44.2270136,14.9426483 C44.1307223,14.7031706 44.0574096,14.4159059 44.0574096,14.1286413 C44.0574096,13.0746136 44.7812356,11.7821943 46.5429286,11.7821943 C48.0879661,11.7821943 48.6903338,12.5956582 48.9069892,12.5956582 C49.1477174,12.5956582 49.3895399,12.3561805 49.5826696,12.3561805 C49.8480177,12.3561805 49.8480177,12.7634555 49.8480177,13.0501771 C49.8480177,14.0086309 49.4141598,15.6599953 48.3286943,16.2595041 C48.1350175,15.8516861 47.7498524,15.3977102 47.1223177,15.1099025 C46.9527137,15.0393082 46.8810423,14.8954044 46.8810423,14.7515005 C46.8810423,14.4875863 47.1223177,14.1519917 47.4117386,14.0086309 Z M43.7685357,15.7566552 C44.3960705,16.355078 44.9502925,16.6184491 45.6254258,16.6184491 C45.8907739,16.6184491 46.2048148,16.5467687 46.3744188,16.5467687 C46.5916213,16.5467687 46.7360583,16.6423426 46.7360583,16.8101399 C46.7360583,17.0740541 46.4942358,17.5052226 46.2048148,17.7447003 C46.4942358,17.8647106 46.8082767,17.9119545 47.1458434,17.9119545 C48.5207298,17.9119545 50.0892931,17.0496176 50.0892931,14.8954044 C50.3787141,15.2771568 50.548318,16.0678133 50.548318,16.4267584 C50.548318,19.0371196 48.616474,20.0433604 46.8328967,20.0433604 C45.6741185,20.0433604 45.0958237,19.6605219 44.9502925,19.6605219 C44.4929089,19.6605219 44.5164346,20.5701027 44.2023937,20.5462093 C43.6470774,20.4511784 43.141001,19.2282674 43.141001,17.935848 C43.141001,17.1690849 43.3341307,16.355078 43.7685357,15.7566552 Z M27.0018146,8.78845149 C27.0018146,9.62580889 30.0169356,13.7213663 30.5957776,13.7213663 C31.0777812,13.7213663 31.4405149,12.8829228 31.4405149,12.1639467 C31.4405149,11.973342 31.3918221,11.7821943 31.2960779,11.6382904 C30.8611258,11.0398677 27.7967648,8.64509069 27.1221787,8.64509069 C27.0499602,8.64509069 27.0018146,8.71622806 27.0018146,8.78845149 Z M61.8143992,6.82375689 C61.8143992,5.12460558 57.7143597,4.69343711 57.7143597,4.30951255 C57.7143597,3.99835444 60.0051077,3.47106908 61.1879587,3.44717561 C59.3770258,1.14905854 56.797404,1.38853624 56.797404,0.981804269 C56.797404,0.741783535 58.7281538,0.261742067 60.5122783,0.261742067 C62.008076,0.261742067 63.4086766,0.597879702 63.4086766,1.72413084 C63.4086766,2.34699007 62.9004117,2.99428581 62.9004117,3.95056751 C62.9004117,4.47730985 63.166307,4.93291481 63.8666073,4.93291481 C64.6150533,4.93291481 64.7841101,4.14225828 64.7841101,3.30327178 C64.7841101,2.61036124 64.6631989,2.08307587 64.6631989,1.7480243 C64.6631989,0.741783535 65.3607637,0.0716804002 66.350485,0.0716804002 C67.1711494,0.0716804002 67.363732,0.430082401 68.5706558,0.430082401 C67.9190482,0.812920902 67.6777729,1.5085466 67.6777729,1.84359817 C67.6777729,2.84983894 68.3299275,3.54383554 68.3299275,5.60356098 C68.3299275,9.38633119 64.7600373,10.7276235 60.39082,10.7276235 C59.1838962,10.7276235 57.9074894,10.6320497 56.6529671,10.4398159 C56.4587432,10.4159224 56.4105975,10.3686785 56.4105975,10.2486681 C56.4105975,9.93696699 58.1241448,9.76971273 58.1241448,8.23727266 C58.1241448,7.63884992 57.930468,7.06323459 57.930468,6.84819339 C57.930468,6.72818302 58.0278535,6.65595959 58.1241448,6.65595959 C58.4868785,6.65595959 59.207969,8.04612492 60.5593297,8.04612492 C60.9220634,8.04612492 61.8143992,7.92665759 61.8143992,6.82375689 Z M65.8909129,4.40508641 C65.8909129,6.53703528 64.3250852,8.16504922 61.5009054,8.62065419 C61.8143992,8.64509069 62.1043673,8.64509069 62.3943354,8.64509069 C65.6988774,8.64509069 66.9058012,7.15989452 66.9058012,5.91526212 C66.9058012,5.22017945 66.5189947,4.59732021 65.8909129,4.40508641 Z M63.6012592,23.6599624 C63.6012592,23.1565705 62.3221169,23.1087836 62.2012057,21.6952678 C62.1765857,21.4796836 62.1043673,21.0968451 61.838472,21.0968451 C61.4051612,21.0968451 61.7421807,22.4137009 61.2601771,22.4137009 C60.1484504,22.4137009 59.7873581,20.2594877 59.3770258,20.2594877 C59.2807346,20.2594877 59.1598233,20.3311681 59.1598233,20.6184327 C59.1598233,20.8818039 59.207969,21.0496012 59.207969,21.3602162 C59.207969,21.6708313 59.1352034,21.8869586 58.8490651,21.8869586 C58.1969104,21.8869586 57.6175213,20.378412 57.0627522,20.378412 C56.941841,20.378412 56.8214769,20.4511784 56.8214769,20.5701027 C56.8214769,20.8579104 57.3040275,21.3835667 57.3040275,21.6469378 C57.3040275,22.2220101 55.7343701,21.910309 55.7343701,22.3898074 C55.7343701,22.6059347 55.9515726,22.6776151 56.2420878,22.6776151 C56.7487113,22.6776151 57.5453029,22.4614878 57.9545409,22.4614878 C58.1969104,22.4614878 58.5596441,22.5103608 58.5596441,22.8209759 C58.5596441,23.1565705 57.6897398,23.587739 57.6897398,23.8988971 C57.6897398,24.0433439 57.835271,24.1139383 57.9545409,24.1139383 C58.6072426,24.1139383 59.7632852,22.9887732 60.5834025,22.9887732 C60.7294808,22.9887732 61.0916674,23.0609966 61.0916674,23.2771239 C61.0916674,23.587739 60.2699087,24.1378317 60.2699087,24.5928937 C60.2699087,24.712904 60.3432214,24.8562648 60.4871112,24.8562648 C60.9220634,24.8562648 61.5009054,23.7310998 62.3221169,23.7310998 C62.6356107,23.7310998 63.0946357,23.8516532 63.3353639,23.8516532 C63.5290407,23.8516532 63.6012592,23.7310998 63.6012592,23.6599624 Z M46.325179,5.38797675 C46.325179,5.12460558 45.3852446,4.62121368 45.3852446,4.33449208 C45.3852446,4.28561908 45.4339374,4.26172561 45.5050616,4.26172561 C45.7698627,4.26172561 46.2288877,4.35784251 46.5916213,4.35784251 C46.9040209,4.35784251 46.9527137,3.01817928 47.1945361,3.01817928 C47.3630459,3.01817928 47.653014,4.28561908 47.9189093,4.28561908 C48.2318559,4.28561908 48.8090566,3.92667404 49.0519733,3.92667404 C49.100666,3.92667404 49.1477174,3.95056751 49.1477174,3.99835444 C49.1477174,4.16669478 48.5448026,4.81236141 48.5448026,5.00459521 C48.5448026,5.22017945 49.8972576,5.48355062 49.8972576,5.67578442 C49.8972576,5.91526212 48.5207298,5.89136865 48.5207298,6.10532378 C48.5207298,6.27312108 49.0279004,6.94322422 49.0279004,7.15989452 C49.0279004,7.20768145 49.0032805,7.23157492 48.9551349,7.23157492 C48.7625523,7.23157492 48.0157477,6.89598032 47.797998,6.89598032 C47.5326499,6.89598032 47.0982448,7.87832762 46.8810423,7.87832762 C46.8082767,7.87832762 46.7601311,7.78221072 46.7601311,7.66274339 L46.7114383,6.70483259 C46.7114383,6.60817265 46.6638398,6.51314182 46.5429286,6.51314182 C46.2529605,6.51314182 45.6981913,6.48870532 45.5291345,6.48870532 C45.4098646,6.48870532 45.3611718,6.46481185 45.3611718,6.41648188 C45.3611718,6.22533415 46.325179,5.55523102 46.325179,5.38797675 Z M51.0308687,9.93696699 C49.3408471,9.93696699 48.2318559,9.09852353 48.2318559,8.66898416 C48.2318559,8.45339992 48.3773871,8.30949609 48.5688755,8.30949609 C49.100666,8.30949609 50.2583499,9.12241699 50.6451564,9.12241699 C50.7409006,9.12241699 50.8136662,9.07517309 50.8136662,8.93181229 C50.8136662,8.50118686 50.4027869,7.78221072 50.4027869,7.42272265 C50.4027869,7.32714879 50.4755525,7.25546839 50.6205365,7.25546839 C51.2721441,7.25546839 52.2377925,7.51938259 52.744416,7.51938259 C52.91402,7.51938259 52.9616185,7.42272265 52.9616185,7.32714879 C52.9616185,6.79986342 51.3936024,5.77081525 51.3936024,5.45965715 C51.3936024,5.17239251 53.3456895,4.74122405 53.3456895,4.28561908 C53.3456895,3.80666368 50.692755,4.14225828 50.692755,3.68665331 C50.692755,3.35160174 51.1988314,2.77707247 51.1988314,2.51478737 C51.1988314,2.39423397 51.1036343,2.34699007 50.9345774,2.34699007 C50.7168278,2.34699007 49.5580496,2.80205201 49.0760461,2.80205201 C48.8347707,2.80205201 48.5448026,2.75372204 48.5448026,2.41867047 C48.5448026,1.86803467 49.4863783,1.26798284 50.9591974,1.26798284 C53.3456895,1.26798284 54.7698158,2.89762587 54.7698158,5.62799748 C54.7698158,9.07517309 52.3335367,9.93696699 51.0308687,9.93696699 Z M34.6980055,51.3660662 C34.6980055,51.5805643 34.6246928,51.8211281 34.4315631,52.0595197 C34.1673092,51.5805643 33.4183161,51.3405436 33.0823908,51.3405436 C30.5957776,51.3405436 31.5368061,54.9088157 28.8827774,54.9088157 C27.772692,54.9088157 27.6758536,54.7649118 27.2671627,54.7649118 C27.0975588,54.7649118 27.0018146,54.8371353 27.0018146,54.979953 C27.0018146,55.6033553 27.8941504,57.1374245 30.3785751,57.1374245 C32.8651883,57.1374245 35.2516804,55.6272488 35.2516804,53.758128 C35.2516804,53.4475129 35.1794619,53.1113753 35.0344779,52.7763237 C35.1313163,52.6324199 35.3720445,52.536846 35.5886999,52.536846 C35.9755064,52.536846 36.1932561,52.9685575 36.5543484,52.9685575 C36.9400607,52.9685575 37.2294817,52.6807499 37.2294817,52.3000835 C37.2294817,51.9883824 37.0604248,51.7733412 36.7704567,51.6278082 C36.9646806,51.4849905 37.1085704,51.2455128 37.1085704,50.9826846 C37.1085704,50.5748666 36.8186023,50.1914851 36.337693,50.1914851 C36.1199434,50.1914851 35.9755064,50.2642515 35.8069967,50.4309628 C35.7583039,49.9997943 35.5175757,49.5925193 35.0585507,49.5925193 C34.6980055,49.5925193 34.4315631,49.8564335 34.4315631,50.2642515 C34.4315631,50.646547 34.6980055,50.9577051 34.6980055,51.3660662 Z M28.2070971,52.275647 C27.4838181,52.275647 26.3988998,51.509427 26.3988998,51.0782585 C26.3988998,50.7182274 26.7364664,50.5265366 27.0018146,50.5265366 C27.6047294,50.5265366 28.6901948,51.2694062 28.6901948,51.8922655 C28.6901948,52.0595197 28.5692836,52.275647 28.2070971,52.275647 Z M21.4760075,46.9093916 C23.4067573,47.388347 24.3713116,48.4184812 24.5644413,49.6403062 C24.7570238,50.8143443 24.9982992,51.7733412 25.4573241,52.2512105 C26.060786,52.9196845 27.2430899,53.5186503 28.2798626,53.5186503 C29.1486727,53.5186503 29.848973,53.2319287 29.848973,52.4434443 C29.848973,51.5805643 28.666122,49.6403062 26.929049,49.6403062 C26.7605392,49.6403062 26.5427896,49.6641997 26.3020614,49.6641997 C26.0848589,49.6641997 25.7702708,49.6164128 25.5771411,49.4491585 C25.1908818,49.1141069 25.0710648,47.3172096 24.3466916,46.2409176 C23.5517414,45.042986 22.6834784,44.7079345 21.5006274,44.7079345 C20.6558902,44.7079345 19.7154088,45.1629964 19.7154088,45.8336426 C19.7154088,46.2409176 19.9326113,46.5260101 21.4760075,46.9093916 Z M33.587373,43.9889583 C33.587373,42.9115802 31.3442236,42.8876867 31.3442236,41.2596728 C31.3442236,40.8523978 31.6090246,40.1573151 32.1413623,39.4144455 C32.3574706,40.660164 32.8651883,41.3069167 33.9495595,41.7141917 C36.0964177,42.5037622 36.3863857,43.7011507 36.3863857,44.9713056 C36.3863857,47.1249758 34.8665152,49.8086466 30.9585113,49.8086466 C27.8208377,49.8086466 25.5771411,47.029402 25.5771411,44.684041 C25.5771411,44.0367453 25.7467451,43.3188552 26.1570773,43.3188552 C26.5181697,43.3188552 26.6390809,43.6055768 26.929049,43.8933845 C28.0139674,44.9713056 29.1968183,45.2585703 30.9092714,45.2585703 C32.454309,45.2585703 33.587373,44.6362541 33.587373,43.9889583 Z M33.6836643,45.7141752 C32.8405684,46.0492268 32.5270745,46.0247903 32.5270745,46.8616047 C32.5270745,47.1733058 32.454309,47.5805808 32.454309,47.796165 C32.454309,48.0839727 32.5030017,48.25177 32.8405684,48.25177 C33.7077371,48.25177 35.0826235,46.7904673 35.0826235,45.5458349 C35.0826235,45.2107833 34.8905881,45.0674225 34.6739327,45.0674225 C34.4797088,45.0674225 34.2630533,45.450261 33.6836643,45.7141752 Z M25.9880205,33.6191938 C25.9880205,32.0878398 29.6558433,31.2727467 29.6558433,29.3813616 C29.6558433,29.0702035 29.5349321,28.5206538 29.3177296,28.1128357 C30.5957776,28.8062893 31.5368061,29.9814134 31.5368061,30.9376952 C31.5368061,32.5912317 29.8008274,33.3563656 29.8008274,34.3859568 C29.8008274,35.5838884 31.6582645,35.7755791 31.6582645,37.2602323 C31.6582645,38.4815142 29.8971186,39.8939439 29.8971186,41.475257 C29.8971186,42.6954529 30.7637403,43.7011507 32.0921224,43.869491 C31.6582645,43.9656079 31.271458,44.0367453 30.8611258,44.0367453 C28.4248467,44.0367453 25.9152549,42.0487002 25.9152549,39.6783597 C25.9152549,38.5048647 26.4229726,37.4758165 27.1949443,36.7329469 C27.8695304,37.3074762 28.5457579,37.6914007 28.9796158,37.6914007 C29.3658752,37.6914007 29.5349321,37.4991669 29.5349321,37.2124453 C29.5349321,36.3251289 25.9880205,35.512208 25.9880205,33.6191938 L25.9880205,33.6191938 Z" id="Fill-2"></path>
                            <path d="M31.7176479,85.7594228 C32.3978714,85.7594228 33.5657612,85.532031 34.4854539,84.0149632 C33.960149,82.8151209 33.5848532,80.384556 33.5313954,79.5002548 C33.2608334,74.9788088 34.9540281,70.7251798 36.8070507,70.6083959 C38.1658613,70.5247382 39.2524733,71.8486634 39.37739,73.9878301 C39.7128651,79.6254606 37.8871169,81.9791054 36.976152,84.0048569 C37.1305251,84.7942712 38.4255135,86.1333558 39.651225,86.1333558 C40.1034345,86.1333558 40.6489225,85.900911 40.7852945,85.7116986 C40.693107,85.388297 40.6020105,84.9677627 40.6020105,84.3597003 C40.6020105,81.0953657 42.644863,78.3391533 44.4111531,78.3391533 C45.8179666,78.3391533 46.6301981,80.2520512 46.6301981,81.5164615 C46.6301981,83.0071406 45.4072141,84.2215809 43.5951031,85.388297 C43.914759,85.7116986 44.5011586,85.9475122 45.0019165,85.9475122 C47.5858931,85.9475122 48.9430672,82.7292174 49.9429466,79.7860385 C50.1235031,79.2262618 50.4437046,78.4334788 51.0753796,78.4334788 C52.1641736,78.4334788 52.6185651,85.8054626 54.4290397,85.8054626 C55.2019962,85.8054626 55.8347622,84.1721723 55.8347622,82.9156225 C55.8347622,81.9819127 55.5178337,81.8881487 55.5178337,80.5327817 C55.5178337,79.0415411 56.2886082,77.7804996 57.3332177,77.7804996 C57.9665292,77.7804996 58.1939977,78.4334788 58.1939977,79.2262618 C58.1939977,82.2137961 56.1091427,87.7672075 53.0276811,87.7672075 C50.7126301,87.7672075 50.8931867,83.6573125 50.0804096,83.6573125 C49.1710811,83.6573125 47.9011851,87.8149317 43.4145465,87.8149317 C42.6868656,87.8149317 41.9177275,87.4415601 41.2849615,86.6908867 C40.196713,87.4415601 39.2873845,87.7672075 38.244957,87.7672075 C36.569218,87.7672075 35.842628,85.9924291 35.1645864,85.9924291 C34.3468999,85.9924291 33.4435719,87.8149317 30.7210414,87.8149317 C28.5434534,87.8149317 28.1807039,84.8290818 27.4121113,84.8290818 C26.7318878,84.8290818 25.6889148,87.8149317 24.5564818,87.8149317 C22.6483649,87.8149317 22.2441583,82.6354534 20.5651463,82.6354534 C19.2499748,82.6354534 15.0971748,87.8946592 13.9680147,87.775068 C13.5147142,87.7256594 13.3248844,87.3775536 13.3723419,86.909295 C13.436164,86.2641763 13.9756516,84.537122 14.1960287,83.7173889 C14.5625966,82.3013841 14.8986172,80.7427681 15.0868106,80.2475595 C15.272822,79.7478591 15.7784893,79.3907699 16.180514,79.4289493 C16.383981,79.4497233 16.4450756,79.8399388 16.5083522,80.1610945 C16.7358207,81.3188272 17.0576586,82.4939652 17.4187717,82.4939652 C18.0542651,82.4939652 20.1587577,78.3391533 21.3811963,78.3391533 C22.8785608,78.3391533 23.0591173,84.8739987 25.0986968,84.8739987 C25.7794658,84.8739987 26.2802238,84.03293 26.7318878,83.0071406 C26.7782543,81.2778405 27.2304638,78.8085348 28.5903654,78.8085348 C29.5444238,78.8085348 29.9971788,80.9987944 29.3153189,82.9156225 C29.3153189,85.1985232 30.7652259,85.7594228 31.7176479,85.7594228 Z M65.5368113,81.3749733 C65.5368113,80.2088187 64.4960203,78.5732826 62.9544712,78.5732826 C60.9138007,78.5732826 58.9222241,80.860675 58.9222241,84.03293 C58.9222241,86.8772917 60.6405113,87.8149317 62.3626168,87.8149317 C65.3562548,87.8149317 67.1710933,85.2900413 68.1213333,83.1929842 C68.5762703,84.5927067 68.8441049,87.8149317 69.9803564,87.8149317 C70.4336569,87.8149317 70.7511309,87.5808025 71.2971643,86.3197609 C72.6543384,83.1929842 73.9684189,79.6001949 75.7843484,79.6001949 C76.4618445,79.6001949 76.0560014,80.860675 77.6870104,80.860675 C78.4583304,80.860675 79,80.2088187 79,79.4581452 C79,78.3851931 78.0497599,77.5458088 76.5982165,77.5458088 C72.3395918,77.5458088 71.4329908,84.1272555 70.7511309,84.1272555 C69.6176068,84.1272555 69.9803564,78.8545746 69.1637609,78.8545746 C68.4382619,78.8545746 68.0744214,79.7422445 67.9844159,80.1599716 C67.3941979,82.5866063 65.7190043,86.0878775 63.1786668,86.0878775 C62.5906308,86.0878775 61.5476578,85.8531868 61.5476578,85.2468088 C61.5476578,84.5927067 65.5368113,84.5023114 65.5368113,81.3749733 Z M37.9089364,75.2488716 C37.8309316,73.9462819 37.5238219,73.3578708 36.8452349,73.404472 C35.9413613,73.461741 35.525154,76.3835844 35.7078924,79.4558994 C35.8251724,81.4619998 36.115372,81.769119 36.385934,81.7505908 C36.8861465,81.7208333 38.0824016,78.1381503 37.9089364,75.2488716 Z M30.5377574,72.510626 C30.4946639,71.7616369 29.9055369,71.2495844 29.1347624,71.2495844 C28.2728914,71.2495844 27.4546594,72.1821713 27.5490288,73.3483259 C27.5490288,74.0479064 28.0459684,74.7486098 28.9100213,74.7486098 C29.9055369,74.7486098 30.6304904,73.584701 30.5377574,72.510626 Z M44.639167,82.0273911 C44.639167,81.2368539 44.2300511,80.5805059 43.732566,80.5805059 C43.3218136,80.5805059 42.37321,81.04708 42.37321,82.540005 C42.37321,83.7067211 42.7785076,84.2648134 42.9628825,84.5023114 C44.2753266,84.0795313 44.639167,82.9594164 44.639167,82.0273911 Z M62.3626168,80.4429479 C63.3161298,80.4429479 63.5894193,81.6062953 63.3624963,82.3075601 C63.1339368,83.0071406 62.3200687,83.7993622 61.0501727,84.03293 C60.7774287,83.3316651 60.6405113,80.4429479 62.3626168,80.4429479 Z M0.00952297089,81.1891297 C-0.0357525309,79.2723016 0.0558894487,77.3605267 0.827754932,74.6554073 C1.23414347,73.2113294 1.59852944,72.6953467 2.86624349,72.416862 C3.86339551,72.2298955 3.77448097,73.3011632 3.54810346,74.5627662 C3.05007294,77.3605267 2.81987701,78.7136479 3.00370646,81.8881487 C3.18099005,85.2468088 4.68053649,86.5538902 6.31100004,86.5538902 C8.75915007,86.6016144 9.84794407,84.5023114 10.3006991,81.4681758 C10.6623576,79.0415411 10.3896136,77.8725792 10.1626906,77.1280818 C10.0279551,76.7086704 9.6652056,75.7738377 9.5288336,75.0759416 C9.34882257,73.3011632 10.1626906,72.4651477 10.8445506,72.2298955 C11.6611461,71.9952047 11.9797111,72.416862 12.2944576,73.3982959 C12.7046646,74.890098 12.7493946,76.8467898 12.6124771,79.6451118 C12.4324661,83.470346 10.5728976,88.0945393 5.94934152,87.9985295 C1.9585515,87.9086957 0.193352418,85.2468088 0.00952297089,81.1891297 L0.00952297089,81.1891297 Z" id="Fill-3"></path>
                        </g>
                    </g>
                </g>
            </g>
        </g>
    </g>
</svg>